<?xml version="1.0" standalone="no"?>
<!DOCTYPE svg PUBLIC "-//W3C//DTD SVG 1.1//EN" "http://www.w3.org/Graphics/SVG/1.1/DTD/svg11.dtd" >
<svg>
<metadata>
Created by FontForge 20090622 at Fri Jun  2 11:17:24 2017
 By deploy user
&#194;&#169; 1992, 1994, 1997, 2000, 2004 Adobe Systems Incorporated. All rights reserved.
</metadata>
<defs>
<font id="MyriadPro-Semibold" horiz-adv-x="300" >
  <font-face 
    font-family="Myriad Pro Light"
    font-weight="600"
    font-stretch="normal"
    units-per-em="1000"
    panose-1="2 11 6 3 3 4 3 2 2 4"
    ascent="750"
    descent="-250"
    x-height="487"
    cap-height="674"
    bbox="-161 -250 1198 973"
    underline-thickness="50"
    underline-position="-50"
    unicode-range="U+0020-U+FB04"
  />
<missing-glyph horiz-adv-x="500" 
d="M0 0v700h500v-700h-500zM250 395l170 255h-340zM280 350l170 -255v510zM80 50h340l-170 255zM50 605v-510l170 255z" />
    <glyph glyph-name="f_f_j" unicode="ffj" horiz-adv-x="852" 
d="M747 693l-29 -93q-44 23 -100 23q-113 0 -113 -116v-20h290v-435q0 -144 -64 -208q-60 -57 -171 -57l-12 96q65 5 92 35q18 19 25 55t7 114v308h-166v-395h-123v395h-180v-395h-123v395h-66v92h66v12q0 102 61 160q51 49 136 49q46 0 86 -19l-30 -89q-24 13 -51 13
q-34 0 -53 -21q-27 -27 -27 -89v-16h181v23q0 98 63.5 154.5t171.5 56.5q78 0 129 -28z" />
    <glyph glyph-name="f_j" unicode="fj" horiz-adv-x="557" 
d="M203 0h-123v395h-66v92h66v23q0 98 63.5 154.5t171.5 56.5q87 0 135 -31l-28 -93q-44 26 -107 26q-113 0 -113 -116v-20h290v-435q0 -144 -64 -208q-60 -57 -171 -57l-12 96q65 5 92 35q18 19 25 55t7 114v308h-166v-395z" />
    <glyph glyph-name="f_f" unicode="ff" horiz-adv-x="620" 
d="M503 0h-123v395h-177v-395h-123v395h-66v92h66v10q0 105 55 161q48 50 137 50q37 0 67 -14l-20 -92q-20 10 -45 10q-72 0 -72 -108v-17h178v21q0 110 59 166q50 47 128 47q40 0 78 -12l-9 -95q-23 9 -52 9q-82 0 -82 -111v-25h107v-92h-106v-395z" />
    <glyph glyph-name="f_f_i" unicode="ffi" horiz-adv-x="861" 
d="M747 693l-29 -93q-44 23 -100 23q-113 0 -113 -116v-20h290v-487h-123v395h-166v-395h-123v395h-180v-395h-123v395h-66v92h66v12q0 102 61 160q51 49 136 49q46 0 86 -19l-30 -89q-24 13 -51 13q-34 0 -53 -21q-27 -27 -27 -89v-16h181v23q0 98 63.5 154.5t171.5 56.5
q78 0 129 -28z" />
    <glyph glyph-name="f_f_l" unicode="ffl" horiz-adv-x="861" 
d="M364 692l-28 -90q-25 11 -52 11q-36 0 -55 -22q-27 -27 -27 -88v-16h181v21q0 101 72 161q64 52 171 52q100 0 169 -37v-684h-123v617q-20 11 -64 11q-53 0 -78 -33t-25 -86v-22h100v-92h-99v-395h-123v395h-180v-395h-123v395h-66v92h66v9q0 104 59 160q54 52 146 52
q42 0 79 -16z" />
    <glyph glyph-name="f_i" unicode="fi" horiz-adv-x="559" 
d="M203 0h-123v395h-66v92h66v23q0 98 63.5 154.5t171.5 56.5q87 0 135 -31l-28 -93q-44 26 -107 26q-113 0 -113 -116v-20h290v-487h-123v395h-166v-395z" />
    <glyph glyph-name="f_l" unicode="fl" horiz-adv-x="559" 
d="M203 0h-123v395h-66v92h66v21q0 101 72 161q62 52 172 52q100 0 169 -37v-684h-123v617q-20 11 -65 11q-53 0 -78 -33t-25 -86v-22h100v-92h-99v-395z" />
    <glyph glyph-name=".notdef" horiz-adv-x="500" 
d="M0 0v700h500v-700h-500zM250 395l170 255h-340zM280 350l170 -255v510zM80 50h340l-170 255zM50 605v-510l170 255z" />
    <glyph glyph-name=".null" horiz-adv-x="0" 
 />
    <glyph glyph-name="nonmarkingreturn" horiz-adv-x="333" 
 />
    <glyph glyph-name="space" unicode=" " horiz-adv-x="207" 
 />
    <glyph glyph-name="exclam" unicode="!" horiz-adv-x="251" 
d="M172 208h-93l-19 466h130zM124 -11q-33 0 -54 22.5t-21 55.5q0 35 21 56.5t55 21.5t54.5 -21.5t21.5 -56.5q0 -34 -21 -56t-56 -22z" />
    <glyph glyph-name="quotedbl" unicode="&#x22;" horiz-adv-x="370" 
d="M42 692h113l-20 -257h-73zM215 692h113l-20 -257h-73z" />
    <glyph glyph-name="numbersign" unicode="#" horiz-adv-x="526" 
d="M208 264h96l17 127h-96zM170 0h-77l26 187h-82v77h95l17 127h-85v77h97l25 182h75l-25 -182h97l26 182h75l-25 -182h81v-77h-93l-17 -127h84v-77h-96l-26 -187h-76l26 187h-97z" />
    <glyph glyph-name="dollar" unicode="$" horiz-adv-x="536" 
d="M305 -86h-83v97q-100 3 -162 43l27 95q73 -44 156 -44q48 0 77.5 21.5t29.5 56.5q0 34 -26 57t-84 44q-85 31 -129 72.5t-44 106.5t43 111.5t118 59.5v97h82v-92q75 -2 138 -34l-27 -92q-70 35 -136 35q-49 0 -72 -20.5t-23 -49.5q0 -30 27.5 -51t94.5 -47
q85 -32 123 -75.5t38 -110.5q0 -66 -44.5 -115t-123.5 -62v-103z" />
    <glyph glyph-name="percent" unicode="%" horiz-adv-x="840" 
d="M200 661q75 0 119 -52.5t44 -140.5q0 -98 -49 -152.5t-120 -54.5t-118 52.5t-48 143.5q0 92 48 148t124 56zM195 592q-35 0 -54 -36.5t-19 -94.5q-1 -58 19 -94.5t55 -36.5q36 0 54.5 35.5t18.5 96.5q0 130 -74 130zM265 -11h-70l377 672h71zM648 391q76 0 120 -52.5
t44 -140.5q0 -97 -49 -151.5t-121 -54.5q-71 0 -118 52.5t-48 143.5q0 91 48 147t124 56zM644 322q-35 0 -54.5 -37t-19.5 -94q-1 -57 19 -93.5t56 -36.5q73 0 73 131q0 130 -74 130z" />
    <glyph glyph-name="ampersand" unicode="&#x26;" horiz-adv-x="645" 
d="M640 0h-144q-10 10 -28 29.5t-25 26.5q-78 -67 -190 -67q-105 0 -163.5 56t-58.5 135q0 126 130 195v3q-54 64 -54 135q0 69 50 121t138 52q73 0 120.5 -41.5t47.5 -109.5q0 -106 -139 -177l-1 -3l136 -154q43 66 61 179h110q-29 -167 -105 -253zM272 80q67 0 113 46
q-50 51 -169 187q-68 -48 -68 -114q0 -51 34.5 -85t89.5 -34zM289 607q-33 0 -52 -24t-19 -58q0 -52 49 -108q46 29 68 55t22 59q0 30 -17.5 53t-50.5 23z" />
    <glyph glyph-name="quotesingle" unicode="'" horiz-adv-x="198" 
d="M42 692h113l-20 -257h-73z" />
    <glyph glyph-name="parenleft" unicode="(" horiz-adv-x="301" 
d="M184 693h89q-112 -166 -112 -407q0 -233 112 -404h-89q-122 168 -122 404q1 238 122 407z" />
    <glyph glyph-name="parenright" unicode=")" horiz-adv-x="301" 
d="M117 -118h-89q112 169 112 406q0 234 -112 405h89q122 -166 122 -405q-1 -237 -122 -406z" />
    <glyph glyph-name="asterisk" unicode="*" horiz-adv-x="437" 
d="M278 686l75 -44l-102 -126v-2l156 26v-86l-157 24v-3l103 -122l-77 -44l-59 148l-2 -1l-60 -148l-73 45l101 123v3l-153 -25v86l152 -26v2l-100 125l76 44l59 -147h2z" />
    <glyph glyph-name="plus" unicode="+" horiz-adv-x="596" 
d="M257 532h83v-226h217v-78h-217v-228h-83v228h-217v78h217v226z" />
    <glyph glyph-name="comma" unicode="," horiz-adv-x="236" 
d="M92 -113l-84 -8q46 129 67 264l129 10q-51 -166 -112 -266z" />
    <glyph glyph-name="hyphen" unicode="-" horiz-adv-x="315" 
d="M30 309h255v-85h-255v85z" />
    <glyph glyph-name="period" unicode="." horiz-adv-x="236" 
d="M126 -11q-33 0 -54 22.5t-21 56.5t21.5 56.5t54.5 22.5q34 0 55 -22t21 -57q0 -34 -21 -56.5t-56 -22.5z" />
    <glyph glyph-name="slash" unicode="/" horiz-adv-x="337" 
d="M94 -39h-85l243 725h86z" />
    <glyph glyph-name="zero" unicode="0" horiz-adv-x="536" 
d="M272 661q113 0 171.5 -90.5t58.5 -240.5q0 -160 -61.5 -250.5t-176.5 -90.5q-109 0 -169 91t-61 243q0 155 63 246.5t175 91.5zM269 567q-50 0 -80.5 -62.5t-30.5 -180.5q0 -117 29.5 -179t80.5 -62q110 0 110 244q0 240 -109 240z" />
    <glyph glyph-name="one" unicode="1" horiz-adv-x="536" 
d="M236 0v539h-2l-119 -60l-21 93l159 78h102v-650h-119z" />
    <glyph glyph-name="two" unicode="2" horiz-adv-x="536" 
d="M483 0h-440v75l77 71q125 116 175 180.5t51 125.5q0 48 -28 78.5t-88 30.5q-68 0 -139 -54l-36 87q83 67 200 67q103 0 158.5 -56t55.5 -141q0 -79 -49 -150t-147 -161l-56 -49v-2h266v-102z" />
    <glyph glyph-name="three" unicode="3" horiz-adv-x="536" 
d="M40 34l28 93q67 -40 148 -40q66 0 98.5 30.5t32.5 73.5q0 54 -43 82t-105 28h-56v90h56q49 0 88.5 23t39.5 67q0 36 -26.5 59t-77.5 23q-71 0 -133 -41l-28 89q30 20 81.5 35t105.5 15q97 0 150 -45.5t53 -113.5q0 -52 -30.5 -91.5t-89.5 -60.5v-2q62 -12 102 -55
t41 -107q0 -85 -68 -141t-185 -56q-114 0 -182 45z" />
    <glyph glyph-name="four" unicode="4" horiz-adv-x="536" 
d="M430 0h-116v165h-295v80l266 405h145v-392h84v-93h-84v-165zM137 258h177v177q0 35 4 113h-4q-30 -61 -57 -110l-120 -178v-2z" />
    <glyph glyph-name="five" unicode="5" horiz-adv-x="536" 
d="M457 650v-102h-250l-19 -130q21 3 46 3q96 0 158 -42q85 -54 85 -165q0 -95 -72.5 -160t-189.5 -65q-105 0 -173 38l25 93q63 -34 143 -34q58 0 99.5 31.5t41.5 86.5q0 124 -184 124q-39 0 -89 -6l42 328h337z" />
    <glyph glyph-name="six" unicode="6" horiz-adv-x="536" 
d="M438 659v-97q-26 1 -62 -3q-97 -11 -151 -63t-67 -126h3q54 63 146 63q86 0 142.5 -57.5t56.5 -154.5q0 -96 -64 -164t-165 -68q-115 0 -180 78.5t-65 202.5q0 184 113 290q88 85 231 96q33 5 62 3zM277 81q47 0 75.5 37t28.5 96q0 58 -30 93.5t-83 35.5
q-34 0 -62.5 -18.5t-43.5 -48.5q-8 -16 -8 -39q2 -68 33.5 -112t89.5 -44z" />
    <glyph glyph-name="seven" unicode="7" horiz-adv-x="536" 
d="M53 650h437v-79l-275 -571h-129l274 546v2h-307v102z" />
    <glyph glyph-name="eight" unicode="8" horiz-adv-x="536" 
d="M156 336v3q-99 48 -99 144q0 79 62 128.5t155 49.5q99 0 151.5 -49t52.5 -115q0 -44 -24.5 -83t-75.5 -64v-3q56 -21 90 -63.5t34 -100.5q0 -87 -66 -140.5t-171 -53.5q-108 0 -169.5 53t-61.5 126q0 114 122 168zM269 76q48 0 78 27.5t30 69.5q0 89 -121 122
q-45 -13 -70.5 -43t-25.5 -70q-2 -44 28.5 -75t80.5 -31zM268 576q-44 0 -69 -25.5t-25 -62.5q0 -73 106 -102q35 10 58 36.5t23 61.5q0 38 -23.5 65t-69.5 27z" />
    <glyph glyph-name="nine" unicode="9" horiz-adv-x="536" 
d="M92 -10v98q25 -2 68 2q78 6 132 50q66 52 84 145h-2q-52 -57 -142 -57q-86 0 -141.5 56t-55.5 145q0 96 66.5 164t167.5 68q111 0 171.5 -77t60.5 -200q0 -195 -113 -303q-86 -80 -222 -89q-37 -4 -74 -2zM263 570q-47 0 -76.5 -37.5t-29.5 -96.5q0 -52 28.5 -85.5
t78.5 -33.5q71 0 105 54q7 16 7 36q0 71 -28 117t-85 46z" />
    <glyph glyph-name="colon" unicode=":" horiz-adv-x="236" 
d="M125 326q-32 0 -53 22.5t-21 55.5q0 35 21 57t55 22t54.5 -22t20.5 -57q0 -34 -21 -56t-56 -22zM125 -11q-32 0 -53 22.5t-21 55.5q0 35 21 57t55 22t54.5 -22t20.5 -57q0 -34 -21 -56t-56 -22z" />
    <glyph glyph-name="semicolon" unicode=";" horiz-adv-x="236" 
d="M92 -113l-83 -8q46 129 67 264l128 10q-51 -166 -112 -266zM132 326q-32 0 -53 22.5t-21 55.5q0 35 21 57t55 22t54.5 -22t20.5 -57q0 -34 -21 -56t-56 -22z" />
    <glyph glyph-name="less" unicode="&#x3c;" horiz-adv-x="596" 
d="M61 230v72l473 230v-90l-376 -175v-2l376 -175v-90z" />
    <glyph glyph-name="equal" unicode="=" horiz-adv-x="596" 
d="M556 330h-516v78h516v-78zM556 128h-516v78h516v-78z" />
    <glyph glyph-name="greater" unicode="&#x3e;" horiz-adv-x="596" 
d="M535 304v-76l-474 -228v89l382 176v2l-382 176v89z" />
    <glyph glyph-name="question" unicode="?" horiz-adv-x="428" 
d="M248 206h-109l-1 26q-8 83 60 164q33 40 48.5 66.5t15.5 53.5q0 32 -21 51t-62 20q-61 0 -100 -30l-30 88q64 41 157 41q88 0 134.5 -43.5t46.5 -108.5q0 -34 -14.5 -67.5t-28.5 -52t-43 -51.5q-56 -64 -53 -135v-22zM190 -11q-33 0 -54 22.5t-21 55.5q0 34 21.5 56
t54.5 22q34 0 54.5 -21.5t21.5 -56.5q0 -34 -21 -56t-56 -22z" />
    <glyph glyph-name="at" unicode="@" horiz-adv-x="755" 
d="M445 252l17 103q-18 6 -39 6q-57 0 -97 -47t-40 -112q0 -68 58 -68q34 0 63.5 36t37.5 82zM519 -16l17 -51q-79 -38 -181 -38q-128 0 -218 86.5t-90 228.5q0 103 45 190t130.5 140t194.5 53q131 0 214 -81.5t83 -208.5q0 -107 -53 -172.5t-131 -65.5q-35 0 -57.5 21
t-23.5 61h-3q-50 -82 -135 -82q-48 0 -79 35t-31 94q0 95 66 164.5t169 69.5q70 0 114 -23l-31 -183q-18 -97 27 -98q39 -2 70.5 45.5t31.5 129.5q0 106 -63.5 172.5t-177.5 66.5q-122 0 -207 -88.5t-85 -231.5q0 -124 71 -195.5t184 -71.5q85 0 149 33z" />
    <glyph glyph-name="A" unicode="A" horiz-adv-x="636" 
d="M419 191h-213l-58 -191h-127l216 674h157l219 -674h-133zM226 284h173l-53 166q-9 28 -34 126h-2l-14 -55l-18 -71z" />
    <glyph glyph-name="B" unicode="B" horiz-adv-x="576" 
d="M71 2v662q73 15 180 15q130 0 192 -43q70 -42 70 -127q0 -48 -29 -86.5t-83 -58.5v-3q58 -15 97 -58t39 -108q0 -84 -64 -140q-73 -62 -251 -62q-79 0 -151 9zM193 583v-185h63q63 0 98 26.5t35 70.5q0 93 -126 93q-48 0 -70 -5zM193 309v-220q16 -3 65 -3q66 0 108 27
t42 85q0 56 -42.5 83.5t-111.5 27.5h-61z" />
    <glyph glyph-name="C" unicode="C" horiz-adv-x="588" 
d="M534 116l20 -97q-62 -30 -175 -30q-159 0 -251.5 92.5t-92.5 247.5q0 163 101.5 259.5t259.5 96.5q105 0 163 -30l-26 -98q-59 26 -132 26q-106 0 -171 -65t-65 -183q0 -113 62 -178t173 -65q77 0 134 24z" />
    <glyph glyph-name="D" unicode="D" horiz-adv-x="683" 
d="M71 2v663q96 14 196 14q181 0 274 -78q106 -85 106 -248q0 -173 -105 -268q-101 -92 -305 -92q-92 0 -166 9zM194 576v-483q17 -3 68 -3q121 -1 188 65.5t67 193.5q1 111 -61.5 172.5t-177.5 61.5q-52 0 -84 -7z" />
    <glyph glyph-name="E" unicode="E" horiz-adv-x="515" 
d="M448 399v-100h-254v-198h284v-101h-407v674h392v-101h-269v-174h254z" />
    <glyph glyph-name="F" unicode="F" horiz-adv-x="509" 
d="M71 0v674h390v-101h-267v-186h248v-100h-248v-287h-123z" />
    <glyph glyph-name="G" unicode="G" horiz-adv-x="666" 
d="M611 372v-341q-102 -38 -216 -38q-171 0 -265 90q-94 89 -94 248q1 160 104 255t271 95q113 0 179 -32l-27 -99q-63 29 -153 29q-111 0 -178 -63.5t-67 -178.5q0 -113 64 -178.5t170 -65.5q63 0 93 13v169h-119v97h238z" />
    <glyph glyph-name="H" unicode="H" horiz-adv-x="672" 
d="M71 674h123v-270h285v270h123v-674h-123v297h-285v-297h-123v674z" />
    <glyph glyph-name="I" unicode="I" horiz-adv-x="264" 
d="M71 674h123v-674h-123v674z" />
    <glyph glyph-name="J" unicode="J" horiz-adv-x="392" 
d="M205 241v433h123v-437q0 -133 -58 -190.5t-165 -57.5q-61 0 -104 16l15 99q34 -12 76 -12q56 0 84.5 33t28.5 116z" />
    <glyph glyph-name="K" unicode="K" horiz-adv-x="582" 
d="M71 0v674h122v-310h3q14 22 49 73l177 237h151l-232 -287l247 -387h-144l-190 309l-61 -72v-237h-122z" />
    <glyph glyph-name="L" unicode="L" horiz-adv-x="493" 
d="M71 0v674h123v-571h277v-103h-400z" />
    <glyph glyph-name="M" unicode="M" horiz-adv-x="827" 
d="M653 0l-13 275q-9 195 -8 283h-3q-35 -131 -80 -258l-99 -292h-94l-90 288q-41 135 -68 262h-2q-6 -178 -12 -287l-15 -271h-115l45 674h162l88 -271q35 -116 62 -234h3q31 125 67 235l93 270h160l39 -674h-120z" />
    <glyph glyph-name="N" unicode="N" horiz-adv-x="676" 
d="M184 0h-114v674h141l174 -289q69 -117 115 -226h2q-11 110 -11 280v235h114v-674h-128l-176 297q-76 131 -120 232l-4 -1q7 -122 7 -287v-241z" />
    <glyph glyph-name="O" unicode="O" horiz-adv-x="704" 
d="M357 686q144 0 228 -96.5t84 -245.5q0 -166 -90 -260.5t-232 -94.5q-141 0 -226 96.5t-85 246.5q0 156 89.5 255t231.5 99zM353 587q-88 0 -137.5 -71.5t-49.5 -180.5q0 -107 50.5 -177t136.5 -70q87 0 136.5 71.5t49.5 180.5q0 102 -49 174.5t-137 72.5z" />
    <glyph glyph-name="P" unicode="P" horiz-adv-x="559" 
d="M71 0v665q79 14 188 14q132 0 198 -55q66 -54 66 -149q0 -97 -57 -152q-74 -73 -213 -73q-39 0 -60 5v-255h-122zM193 578v-226q19 -6 60 -6q69 0 108.5 33t39.5 91q0 55 -36 84.5t-101 29.5q-45 0 -71 -6z" />
    <glyph glyph-name="Q" unicode="Q" horiz-adv-x="704" 
d="M673 -10l-35 -98q-135 37 -263 87q-20 8 -44 10q-125 6 -210 96t-85 246q0 157 89 256t233 99q143 0 227 -97t84 -244q0 -117 -48 -198.5t-126 -112.5v-4q81 -22 178 -40zM353 88q86 0 136 71t50 181q0 103 -49 175t-136 72q-88 0 -138 -72.5t-50 -179.5
q0 -105 50.5 -176t136.5 -71z" />
    <glyph glyph-name="R" unicode="R" horiz-adv-x="569" 
d="M71 0v664q78 15 186 15q143 0 208 -54q58 -49 58 -136q0 -62 -35.5 -106t-87.5 -62v-3q68 -25 94 -130q45 -172 53 -188h-126q-19 38 -45 159q-15 65 -41.5 90.5t-79.5 27.5h-62v-277h-122zM193 580v-213h73q62 0 98 30t36 81q0 53 -34.5 80.5t-96.5 27.5q-52 0 -76 -6z
" />
    <glyph glyph-name="S" unicode="S" horiz-adv-x="519" 
d="M41 32l28 102q73 -43 163 -43q58 0 90 25t32 67q0 38 -27.5 63t-91.5 49q-183 65 -183 196q0 85 65.5 139.5t173.5 54.5q95 0 161 -34l-29 -99q-62 32 -135 32q-55 0 -83 -24t-28 -57q0 -37 28.5 -60t100.5 -51q89 -34 131 -81t42 -119q0 -87 -65.5 -145t-189.5 -58
q-52 0 -103 12.5t-80 30.5z" />
    <glyph glyph-name="T" unicode="T" horiz-adv-x="525" 
d="M200 0v571h-192v103h509v-103h-194v-571h-123z" />
    <glyph glyph-name="U" unicode="U" horiz-adv-x="666" 
d="M70 674h123v-393q0 -96 37 -144.5t101 -48.5q142 0 142 193v393h123v-385q0 -151 -71.5 -225.5t-197.5 -74.5q-122 0 -189.5 72.5t-67.5 226.5v386z" />
    <glyph glyph-name="V" unicode="V" horiz-adv-x="601" 
d="M366 0h-141l-218 674h134l92 -307q47 -154 66 -245h2q20 91 69 244l98 308h131z" />
    <glyph glyph-name="W" unicode="W" horiz-adv-x="869" 
d="M313 0h-133l-165 674h131l64 -306q26 -126 44 -235h2q8 55 49 236l73 305h129l67 -310q31 -155 41 -228h2q14 87 46 234l70 304h125l-182 -674h-131l-70 317q-26 119 -38 214h-2q-17 -108 -44 -214z" />
    <glyph glyph-name="X" unicode="X" horiz-adv-x="594" 
d="M574 0h-143l-72 134l-68 127h-2q-19 -45 -61 -127l-67 -134h-141l200 341l-193 333h142l73 -139q30 -58 55 -113h3q25 58 53 113l72 139h141l-197 -329z" />
    <glyph glyph-name="Y" unicode="Y" horiz-adv-x="575" 
d="M347 0h-123v281l-213 393h141l80 -173q36 -78 59 -134h2q19 50 58 134l81 173h139l-224 -390v-284z" />
    <glyph glyph-name="Z" unicode="Z" horiz-adv-x="566" 
d="M26 0v68l344 501v3h-314v102h474v-72l-340 -497v-3h345v-102h-509z" />
    <glyph glyph-name="bracketleft" unicode="[" horiz-adv-x="301" 
d="M269 -112h-195v798h195v-71h-104v-656h104v-71z" />
    <glyph glyph-name="backslash" unicode="\" horiz-adv-x="335" 
d="M327 -39h-86l-234 725h86z" />
    <glyph glyph-name="bracketright" unicode="]" horiz-adv-x="301" 
d="M31 686h195v-798h-195v71h104v656h-104v71z" />
    <glyph glyph-name="asciicircum" unicode="^" horiz-adv-x="596" 
d="M546 182h-91l-156 371h-2l-156 -371h-90l208 468h79z" />
    <glyph glyph-name="underscore" unicode="_" horiz-adv-x="500" 
d="M0 -75h500v-50h-500v50z" />
    <glyph glyph-name="grave" unicode="`" 
d="M12 698h120l87 -148h-85z" />
    <glyph glyph-name="a" unicode="a" horiz-adv-x="508" 
d="M444 292v-175q0 -77 8 -117h-111l-9 54h-3q-50 -65 -144 -65q-70 0 -111.5 43t-41.5 102q0 90 76 137.5t213 46.5v8q0 33 -21 59t-78 26q-74 0 -131 -36l-24 80q70 43 176 43q108 0 154.5 -57.5t46.5 -148.5zM324 171v67q-170 2 -170 -91q0 -34 19.5 -52t50.5 -18
q36 0 61.5 19.5t35.5 47.5q3 9 3 27z" />
    <glyph glyph-name="b" unicode="b" horiz-adv-x="585" 
d="M66 137v573h123v-290h2q50 78 156 78q90 0 147 -68.5t56 -178.5q0 -124 -65.5 -193t-155.5 -69q-105 0 -154 84h-2l-6 -73h-105q4 66 4 137zM189 280v-79q0 -15 3 -29q10 -38 40 -62t69 -24q58 0 91 43t33 117q0 68 -32 112t-91 44q-38 0 -68.5 -25t-40.5 -65
q-4 -18 -4 -32z" />
    <glyph glyph-name="c" unicode="c" horiz-adv-x="449" 
d="M407 106l17 -91q-54 -25 -138 -25q-114 0 -182.5 68t-68.5 181t73 186t198 73q68 0 119 -22l-22 -93q-38 19 -93 19q-69 0 -109.5 -45t-39.5 -113q0 -73 42 -115t107 -42q51 0 97 19z" />
    <glyph glyph-name="d" unicode="d" horiz-adv-x="581" 
d="M392 710h123v-573q0 -71 4 -137h-109l-6 77h-2q-22 -41 -64 -64.5t-94 -23.5q-89 0 -149 69t-60 180q-1 118 62.5 189t155.5 71q48 0 84 -17.5t53 -45.5h2v275zM392 211v73q0 18 -3 33q-9 37 -37.5 61.5t-68.5 24.5q-58 0 -90.5 -45t-32.5 -115q0 -69 32.5 -112t89.5 -43
q38 0 67.5 24t38.5 63q4 15 4 36z" />
    <glyph glyph-name="e" unicode="e" horiz-adv-x="516" 
d="M479 209h-326q2 -63 44 -94.5t106 -31.5q71 0 135 22l18 -84q-72 -31 -170 -31q-117 0 -184 66.5t-67 179.5q0 108 63.5 185t174.5 77q56 0 99 -21.5t66 -57.5t34 -75.5t11 -82.5q0 -30 -4 -52zM153 295h214q1 44 -22.5 81.5t-78.5 37.5q-52 0 -80 -37t-33 -82z" />
    <glyph glyph-name="f" unicode="f" horiz-adv-x="319" 
d="M203 0h-123v395h-66v92h66v21q0 110 59 166q50 47 127 47q40 0 78 -12l-8 -95q-25 9 -53 9q-81 0 -81 -111v-25h106v-92h-105v-395z" />
    <glyph glyph-name="g" unicode="g" horiz-adv-x="573" 
d="M507 347v-276q0 -156 -72 -221q-66 -59 -188 -59q-104 0 -170 39l27 93q64 -37 142 -37q64 0 102 36t38 111v42h-2q-47 -72 -142 -72q-91 0 -149 67t-58 171q0 116 65 186.5t156 70.5q97 0 141 -76h2l5 65h107q-4 -66 -4 -140zM384 213v79q0 20 -4 33q-10 35 -36 57
t-64 22q-53 0 -86.5 -43t-33.5 -116q0 -65 31.5 -107.5t87.5 -42.5q35 0 62 20.5t38 54.5q5 15 5 43z" />
    <glyph glyph-name="h" unicode="h" horiz-adv-x="572" 
d="M66 0v710h123v-289h2q23 35 61 55q39 22 85 22q71 0 120.5 -51.5t49.5 -159.5v-287h-123v274q0 56 -23 90t-71 34q-34 0 -59.5 -19.5t-36.5 -49.5q-5 -14 -5 -37v-292h-123z" />
    <glyph glyph-name="i" unicode="i" horiz-adv-x="256" 
d="M189 0h-123v487h123v-487zM128 690q31 0 49.5 -19t19.5 -48q0 -28 -19.5 -47t-50.5 -19q-30 0 -49 19t-19 47q0 29 19.5 48t49.5 19z" />
    <glyph glyph-name="j" unicode="j" horiz-adv-x="270" 
d="M-30 -213l-12 96q63 5 92 35q18 19 25 55t7 114v400h123v-435q0 -144 -64 -208q-60 -57 -171 -57zM145 690q30 0 48.5 -19t19.5 -48q0 -28 -19 -47t-51 -19q-31 0 -49.5 19t-18.5 47q0 29 19.5 48t50.5 19z" />
    <glyph glyph-name="k" unicode="k" horiz-adv-x="509" 
d="M189 710v-437h2q19 30 38 57l119 157h148l-181 -199l206 -288h-151l-140 215l-41 -49v-166h-123v710h123z" />
    <glyph glyph-name="l" unicode="l" horiz-adv-x="257" 
d="M66 0v710h123v-710h-123z" />
    <glyph glyph-name="m" unicode="m" horiz-adv-x="848" 
d="M66 0v342q0 61 -4 145h105l6 -72h3q50 83 150 83q47 0 83 -24.5t52 -65.5h2q25 39 59 61q43 29 100 29q68 0 115 -51.5t47 -159.5v-287h-120v269q0 129 -87 129q-30 0 -53 -18.5t-33 -46.5q-6 -17 -6 -41v-292h-120v282q0 53 -21.5 84.5t-62.5 31.5q-32 0 -55.5 -20.5
t-33.5 -48.5q-6 -19 -6 -41v-288h-120z" />
    <glyph glyph-name="n" unicode="n" horiz-adv-x="572" 
d="M66 0v342q0 61 -4 145h107l6 -73h3q19 34 59.5 59t96.5 25q72 0 122.5 -51t50.5 -158v-289h-123v275q0 56 -22.5 89.5t-70.5 33.5q-35 0 -60 -21t-36 -51q-6 -15 -6 -39v-287h-123z" />
    <glyph glyph-name="o" unicode="o" horiz-adv-x="564" 
d="M287 498q108 0 175 -69.5t67 -180.5q0 -126 -74 -192.5t-176 -66.5q-106 0 -175 68t-69 183q0 118 70 188t182 70zM284 409q-61 0 -91.5 -49t-30.5 -117q0 -72 33 -118.5t88 -46.5q53 0 86 46.5t33 120.5q0 65 -30 114.5t-88 49.5z" />
    <glyph glyph-name="p" unicode="p" horiz-adv-x="585" 
d="M66 -198v523q0 70 -4 162h108l6 -75h2q56 86 167 86q86 0 145.5 -68.5t59.5 -179.5q0 -124 -65.5 -192.5t-156.5 -68.5q-45 0 -81.5 17.5t-55.5 47.5h-2v-252h-123zM189 279v-75q0 -18 3 -34q10 -38 40 -62t69 -24q58 0 91 44t33 117q0 67 -32 111.5t-89 44.5
q-39 0 -70 -25.5t-41 -65.5q-4 -20 -4 -31z" />
    <glyph glyph-name="q" unicode="q" horiz-adv-x="581" 
d="M392 -198v265h-2q-48 -78 -151 -78q-85 0 -144.5 68t-59.5 179q0 125 66 193.5t152 68.5q99 0 142 -75l2 -1l3 65h119q-4 -88 -4 -141v-544h-123zM392 205v81q0 16 -3 30q-9 36 -37 60.5t-68 24.5q-59 0 -91.5 -44t-32.5 -115q0 -69 32 -112.5t89 -43.5q37 0 65.5 22
t39.5 59q6 16 6 38z" />
    <glyph glyph-name="r" unicode="r" horiz-adv-x="356" 
d="M66 0v330q0 100 -4 157h106l5 -92h3q17 49 54.5 76t79.5 27q14 0 29 -3v-115q-17 3 -37 3q-43 0 -72.5 -25t-37.5 -68q-3 -16 -3 -37v-253h-123z" />
    <glyph glyph-name="s" unicode="s" horiz-adv-x="417" 
d="M36 24l25 90q57 -36 124 -36q78 0 78 55q0 24 -17 39t-63 32q-134 45 -134 142q0 66 50.5 109t133.5 43q77 0 130 -29l-25 -86q-47 28 -103 28q-32 0 -50 -14.5t-18 -37.5q0 -22 18 -36t67 -32q67 -23 98 -58.5t32 -89.5q0 -69 -52 -111t-146 -42q-87 0 -148 34z" />
    <glyph glyph-name="t" unicode="t" horiz-adv-x="351" 
d="M86 578l121 34v-125h117v-92h-117v-215q0 -46 14.5 -68t48.5 -22q30 0 48 5l2 -93q-33 -13 -89 -13q-69 0 -106 40q-39 40 -39 137v229h-69v92h69v91z" />
    <glyph glyph-name="u" unicode="u" horiz-adv-x="569" 
d="M502 487v-341q0 -66 4 -146h-107l-6 73h-3q-52 -84 -157 -84q-74 0 -121.5 50.5t-47.5 161.5v286h123v-265q0 -133 91 -133q35 0 59.5 19.5t34.5 46.5q7 14 7 38v294h123z" />
    <glyph glyph-name="v" unicode="v" horiz-adv-x="508" 
d="M11 487h133l79 -247q18 -55 33 -122h3q10 43 33 122l78 247h129l-186 -487h-121z" />
    <glyph glyph-name="w" unicode="w" horiz-adv-x="749" 
d="M14 487h126l50 -221q20 -85 32 -158h2q5 26 39 157l64 222h100l61 -216q24 -93 39 -163h2q7 54 32 163l54 216h121l-153 -487h-114l-58 198q-22 74 -37 156h-2q-14 -78 -37 -156l-62 -198h-115z" />
    <glyph glyph-name="x" unicode="x" horiz-adv-x="494" 
d="M11 487h137l58 -92l44 -75h2q20 39 43 77l54 90h134l-163 -234l166 -253h-140l-59 97q-19 31 -44 79h-2q-6 -12 -13.5 -25.5l-16.5 -29l-14 -24.5l-56 -97h-136l169 248z" />
    <glyph glyph-name="y" unicode="y" horiz-adv-x="500" 
d="M8 487h136l87 -261q16 -49 28 -94h3q19 73 26 95l76 260h131l-122 -332q-50 -135 -88 -205t-81 -108q-62 -53 -129 -62l-28 103q36 8 71 34q42 26 68 77q7 13 7 22q0 10 -6 24z" />
    <glyph glyph-name="z" unicode="z" horiz-adv-x="450" 
d="M20 0v71l183 234l71 82v2h-236v98h386v-75l-178 -229q-48 -58 -72 -83v-2h256v-98h-410z" />
    <glyph glyph-name="braceleft" unicode="{" horiz-adv-x="301" 
d="M29 255v65q46 1 62 20.5t16 50.5q0 27 -6 81q-7 47 -7 81q0 67 39.5 100t109.5 33h28v-71h-18q-69 -1 -69 -78q0 -18 6 -64q6 -44 6 -71q1 -51 -19 -77.5t-60 -35.5v-2q40 -9 60 -35.5t19 -77.5q0 -29 -6 -73t-6 -63q0 -78 70 -79h17v-71h-29q-148 0 -148 137q0 33 7 80
q6 54 6 79q0 70 -78 71z" />
    <glyph glyph-name="bar" unicode="|" horiz-adv-x="263" 
d="M87 750h89v-1000h-89v1000z" />
    <glyph glyph-name="braceright" unicode="}" horiz-adv-x="301" 
d="M271 320v-65q-78 -1 -78 -71q0 -32 7 -79q6 -54 6 -80q0 -137 -148 -137h-29v71h17q70 1 70 79q0 19 -6 63t-6 73q-1 51 19 77.5t60 35.5v2q-40 9 -60 35.5t-19 77.5q0 27 6 71q6 46 6 64q0 77 -69 78h-18v71h28q70 0 109.5 -33t39.5 -100q0 -27 -6 -81q-7 -47 -7 -81
q0 -31 15.5 -50.5t62.5 -20.5z" />
    <glyph glyph-name="asciitilde" unicode="~" horiz-adv-x="596" 
d="M125 201h-79q-1 85 34.5 127.5t95.5 42.5q32 0 60.5 -10t80.5 -36q77 -41 108 -41q44 0 47 83h79q4 -90 -31.5 -131t-93.5 -41q-51 0 -142 46q-79 43 -106 43q-49 0 -53 -83z" />
    <glyph glyph-name="uni00A0" unicode="&#xa0;" horiz-adv-x="207" 
 />
    <glyph glyph-name="exclamdown" unicode="&#xa1;" horiz-adv-x="251" 
d="M191 -193h-130l19 463h93zM127 491q33 0 53.5 -22t20.5 -56t-21 -56t-55 -22q-33 0 -54 22t-21 56t21.5 56t55.5 22z" />
    <glyph glyph-name="cent" unicode="&#xa2;" horiz-adv-x="536" 
d="M356 -13h-82v100q-90 11 -147 73q-56 64 -56 167q0 95 54.5 163.5t148.5 84.5v98h82v-94q54 -1 101 -22l-22 -92q-40 21 -96 21q-65 0 -104 -43.5t-39 -110.5q0 -72 40.5 -112.5t101.5 -40.5q58 0 106 21l17 -89q-44 -22 -105 -26v-98z" />
    <glyph glyph-name="sterling" unicode="&#xa3;" horiz-adv-x="536" 
d="M491 0h-438v67q47 22 79.5 65.5t32.5 94.5q0 34 -4 53h-99v85h85q-9 61 -9 93q0 92 58.5 147.5t152.5 55.5q71 0 113 -24l-22 -93q-36 19 -86 19q-53 0 -77 -30t-24 -79q0 -45 11 -89h140v-85h-129q2 -57 -7 -89q-14 -49 -58 -88v-2h281v-101z" />
    <glyph glyph-name="currency" unicode="&#xa4;" horiz-adv-x="536" 
d="M269 543q69 0 115 -38l74 80l57 -58l-83 -75q33 -50 33 -117q0 -71 -35 -122l80 -77l-56 -57l-71 83q-47 -41 -117 -41q-72 0 -114 39l-70 -81l-56 57l79 74q-37 50 -37 121q0 68 37 121l-82 75l57 58l73 -81q45 39 116 39zM266 459q-45 0 -74 -36t-29 -91
q0 -60 32 -93.5t71 -33.5q42 0 73 33t31 96q0 53 -28.5 89t-75.5 36z" />
    <glyph glyph-name="yen" unicode="&#xa5;" horiz-adv-x="536" 
d="M321 0h-116v167h-155v61h155v68h-155v61h124l-165 293h132l85 -181q20 -45 41 -101h2q36 90 42 103l88 179h129l-174 -293h124v-61h-157v-68h157v-61h-157v-167z" />
    <glyph glyph-name="brokenbar" unicode="&#xa6;" horiz-adv-x="263" 
d="M87 174h89v-350h-89v350zM87 674h89v-350h-89v350z" />
    <glyph glyph-name="section" unicode="&#xa7;" horiz-adv-x="542" 
d="M148 346q0 -51 95 -85q97 -34 117 -45q33 23 33 63q0 53 -78 82q-110 40 -127 49q-40 -25 -40 -64zM443 653l-23 -77q-54 30 -126 30q-44 0 -70 -16.5t-26 -43.5q0 -28 27 -45t88 -36q88 -28 133 -64.5t45 -103.5q0 -73 -69 -121q42 -35 42 -91q0 -54 -33.5 -90.5
t-78.5 -50.5t-96 -14q-109 0 -174 43l27 76q65 -41 143 -41q45 0 72.5 17t27.5 48q0 29 -25 48t-88 40q-92 30 -140 66t-48 100q0 33 20 65.5t59 54.5q-16 12 -27.5 37t-11.5 51q0 69 57.5 109t145.5 40q87 0 149 -31z" />
    <glyph glyph-name="dieresis" unicode="&#xa8;" 
d="M50 563q-26 0 -43.5 18t-17.5 43q0 26 18 44t45 18q25 0 42 -17.5t17 -44.5q0 -25 -17.5 -43t-43.5 -18zM250 563h-2q-25 0 -42.5 18t-17.5 43q0 26 18 44t44 18t43 -17.5t17 -44.5q0 -25 -17 -43t-43 -18z" />
    <glyph glyph-name="copyright" unicode="&#xa9;" horiz-adv-x="677" 
d="M341 648q126 0 214.5 -90t88.5 -218q0 -129 -88.5 -219.5t-215.5 -90.5q-128 0 -217.5 90.5t-89.5 219.5q0 128 89.5 218t218.5 90zM338 598q-103 0 -174.5 -75.5t-71.5 -184.5q0 -108 72 -183t175 -75q103 -1 174.5 74.5t71.5 184.5q0 108 -72 183.5t-175 75.5zM474 493
l-13 -48q-37 23 -97 23q-62 0 -96.5 -35.5t-34.5 -95.5q0 -58 35.5 -95t96.5 -37q62 0 100 25l14 -45q-47 -32 -124 -32q-85 0 -134.5 51t-49.5 130q0 83 57 134.5t136 51.5q35 0 67 -8.5t43 -18.5z" />
    <glyph glyph-name="ordfeminine" unicode="&#xaa;" horiz-adv-x="363" 
d="M324 266h-78l-6 37h-2q-40 -42 -100 -42q-48 0 -76.5 27.5t-28.5 69.5q0 56 53 86.5t146 28.5v8q0 9 -4 18.5t-20 20t-43 10.5q-53 0 -90 -26l-18 55q51 32 124 32t105.5 -39t32.5 -101v-107q0 -43 5 -78zM234 377v44q-115 2 -115 -57q0 -20 14.5 -32t35.5 -12
q40 0 58 33q7 13 7 24z" />
    <glyph glyph-name="guillemotleft" unicode="&#xab;" horiz-adv-x="444" 
d="M240 440l-125 -188l126 -187h-91l-123 187l123 188h90zM421 440l-126 -188l126 -187h-90l-123 187l123 188h90z" />
    <glyph glyph-name="logicalnot" unicode="&#xac;" horiz-adv-x="596" 
d="M40 412h516v-299h-82v221h-434v78z" />
    <glyph glyph-name="uni00AD" unicode="&#xad;" horiz-adv-x="291" 
d="M30 309h255v-85h-255v85z" />
    <glyph glyph-name="registered" unicode="&#xae;" horiz-adv-x="441" 
d="M197 493v-61h-44v161q26 6 67 6q42 0 60 -13q17 -10 17 -34q0 -28 -35 -38v-2q24 -8 31 -41q7 -30 11 -39h-48q-5 6 -12 37q-4 24 -30 24h-17zM198 567v-43h16q34 0 34 22t-31 22q-5 0 -11 -0.5t-8 -0.5zM222 684q72 0 122 -49t50 -119q0 -71 -50 -120.5t-123 -49.5
q-72 0 -123 49.5t-51 120.5q0 70 51 119t124 49zM219 645q-52 0 -88 -37.5t-36 -92.5q0 -54 36 -92t90 -38q53 -1 89 37t36 93t-36 92.5t-91 37.5z" />
    <glyph glyph-name="macron" unicode="&#xaf;" 
d="M31 655h239v-71h-239v71z" />
    <glyph glyph-name="degree" unicode="&#xb0;" horiz-adv-x="339" 
d="M172 686q63 0 102.5 -41t39.5 -98q0 -61 -43 -101.5t-101 -40.5q-62 0 -102.5 40t-40.5 98q0 61 42 102t103 41zM169 627q-33 0 -53 -25t-20 -59q0 -33 21.5 -56t52.5 -23q33 0 54 23.5t21 58.5q0 32 -20 56.5t-56 24.5z" />
    <glyph glyph-name="plusminus" unicode="&#xb1;" horiz-adv-x="596" 
d="M257 575h83v-182h217v-78h-217v-187h-83v187h-217v78h217v182zM40 78h517v-78h-517v78z" />
    <glyph glyph-name="twosuperior" unicode="&#xb2;" horiz-adv-x="333" 
d="M13 443v47l62 57q68 61 94.5 93t26.5 64q0 26 -17 42t-49 16q-44 0 -85 -29l-27 62q55 42 136 42q69 0 106 -33.5t37 -83.5q0 -26 -9 -49.5t-28.5 -47.5t-37 -40l-48.5 -43l-27 -23v-2h157v-72h-291z" />
    <glyph glyph-name="threesuperior" unicode="&#xb3;" horiz-adv-x="328" 
d="M46 744l-20 62q50 31 129 31q65 0 99.5 -27.5t34.5 -68.5q0 -31 -21.5 -54.5t-57.5 -34.5v-2q42 -5 68.5 -30.5t26.5 -63.5q0 -51 -46 -84.5t-124 -33.5q-81 0 -126 28l21 65q43 -26 95 -26q36 0 57.5 16.5t21.5 38.5q0 29 -28 44t-67 15h-29v58h27q32 0 58 12.5t26 38.5
q0 18 -14.5 30t-42.5 12q-48 0 -88 -26z" />
    <glyph glyph-name="acute" unicode="&#xb4;" 
d="M174 698h120l-122 -148h-85z" />
    <glyph glyph-name="mu" unicode="&#xb5;" horiz-adv-x="570" 
d="M397 71h-4q-15 -32 -49 -55.5t-80 -23.5q-58 0 -86 40v-50q0 -132 11 -180h-109q-14 38 -14 178v507h123v-280q0 -55 22.5 -87t67.5 -32q33 0 59 20t37 46q6 16 6 39v294h123v-340q0 -35 9.5 -49t33.5 -16l-8 -86q-15 -7 -43 -7q-83 0 -99 82z" />
    <glyph glyph-name="paragraph" unicode="&#xb6;" horiz-adv-x="529" 
d="M298 -48h-81v312h-7q-26 0 -55.5 12t-57 34t-45.5 59.5t-19 83.5q-1 43 12 80t43 71t89 53.5t142 19.5q90 0 131 -10v-715h-81v646h-71v-646z" />
    <glyph glyph-name="periodcentered" unicode="&#xb7;" horiz-adv-x="236" 
d="M117 182q-33 0 -54 22.5t-21 56.5t21.5 56.5t54.5 22.5q34 0 55 -22t21 -57q0 -34 -21 -56.5t-56 -22.5z" />
    <glyph glyph-name="cedilla" unicode="&#xb8;" 
d="M128 3h69l-29 -50q29 -4 50 -23t21 -48q0 -43 -32 -63.5t-82 -20.5q-45 0 -75 19l18 49q28 -15 54 -15q39 0 39 28q0 33 -78 39z" />
    <glyph glyph-name="onesuperior" unicode="&#xb9;" horiz-adv-x="275" 
d="M209 443h-96v310h-1l-76 -35l-14 69l103 46h84v-390z" />
    <glyph glyph-name="ordmasculine" unicode="&#xba;" horiz-adv-x="372" 
d="M188 591q74 0 118.5 -45.5t44.5 -116.5q-1 -81 -49.5 -124.5t-116.5 -43.5q-70 0 -117 44.5t-47 117.5q0 75 47.5 121.5t119.5 46.5zM184 528q-36 0 -55 -31.5t-19 -71.5q0 -43 21.5 -72t54.5 -29q34 0 54.5 28.5t20.5 74.5q0 39 -20 70t-57 31z" />
    <glyph glyph-name="guillemotright" unicode="&#xbb;" horiz-adv-x="444" 
d="M149 252l-126 188h89l124 -188l-124 -187h-89zM327 252l-126 188h90l124 -188l-124 -187h-89z" />
    <glyph glyph-name="onequarter" unicode="&#xbc;" horiz-adv-x="799" 
d="M226 266h-96v310h-1l-76 -35l-14 69l103 46h84v-390zM228 -11h-71l374 672h71zM707 0h-89v96h-198v52l181 246h106v-235h56v-63h-56v-96zM618 159v93q0 27 4 69h-3q-21 -40 -35 -60l-74 -101l2 -1h106z" />
    <glyph glyph-name="onehalf" unicode="&#xbd;" horiz-adv-x="799" 
d="M213 266h-96v310h-1l-76 -35l-14 69l103 46h84v-390zM207 -11h-71l373 672h70zM464 0v48l63 56q48 44 68 64.5t36 45.5t16 48q0 26 -17 42t-49 16q-44 0 -85 -29l-26 62q55 42 135 42q69 0 106 -33.5t37 -83.5q0 -26 -9 -49.5t-28.5 -47.5t-37 -40l-48.5 -43l-27 -24v-2
h157v-72h-291z" />
    <glyph glyph-name="threequarters" unicode="&#xbe;" horiz-adv-x="799" 
d="M66 569l-20 60q49 32 128 32q66 0 100.5 -27.5t34.5 -68.5q0 -31 -21.5 -55t-58.5 -35v-2q42 -5 68.5 -30.5t26.5 -63.5q0 -51 -46 -84.5t-124 -33.5q-80 0 -126 28l21 65q43 -26 95 -26q36 0 57.5 16.5t21.5 38.5q0 29 -27.5 44t-67.5 16h-29v58h28q32 0 58 12.5
t26 38.5q0 18 -14.5 30t-43.5 12q-45 0 -87 -25zM263 -11h-71l373 672h71zM717 0h-89v96h-198v52l181 246h106v-235h56v-63h-56v-96zM628 159v93q0 27 4 69h-3q-20 -38 -34 -60l-75 -101l2 -1h106z" />
    <glyph glyph-name="questiondown" unicode="&#xbf;" horiz-adv-x="428" 
d="M244 491q33 0 54 -22t21 -56t-21 -56t-55 -22t-55 22t-21 56t21.5 56t55.5 22zM187 274h108l2 -26q6 -84 -61 -164q-63 -75 -63 -120q0 -32 21 -51t62 -20q57 0 100 30l29 -88q-65 -41 -156 -41q-88 0 -134.5 43.5t-46.5 108.5q0 34 14.5 67.5t28.5 52t43 51.5
q56 64 53 136v21z" />
    <glyph glyph-name="Agrave" unicode="&#xc0;" horiz-adv-x="636" 
d="M419 191h-213l-58 -191h-127l216 674h157l219 -674h-133zM226 284h173l-53 166q-9 28 -34 126h-2l-14 -55l-18 -71zM156 830h136l88 -119h-99z" />
    <glyph glyph-name="Aacute" unicode="&#xc1;" horiz-adv-x="636" 
d="M419 191h-213l-58 -191h-127l216 674h157l219 -674h-133zM226 284h173l-53 166q-9 28 -34 126h-2l-14 -55l-18 -71zM342 830h136l-125 -120h-99z" />
    <glyph glyph-name="Acircumflex" unicode="&#xc2;" horiz-adv-x="636" 
d="M419 191h-213l-58 -191h-127l216 674h157l219 -674h-133zM226 284h173l-53 166q-9 28 -34 126h-2l-14 -55l-18 -71zM273 829h93l103 -119h-92l-56 65h-2l-56 -65h-91z" />
    <glyph glyph-name="Atilde" unicode="&#xc3;" horiz-adv-x="636" 
d="M420 191h-214l-58 -191h-127l216 674h157l219 -674h-132zM226 284h174l-54 166q-9 28 -34 126h-2l-14 -55l-18 -71zM248 715h-60q-1 55 18.5 85.5t54.5 30.5q27 0 62 -20q32 -19 46 -19q13 0 19 8.5t8 32.5h59q3 -112 -74 -112q-30 0 -63 19q-36 19 -45 19q-22 0 -25 -44
z" />
    <glyph glyph-name="Adieresis" unicode="&#xc4;" horiz-adv-x="636" 
d="M419 191h-213l-58 -191h-127l216 674h157l219 -674h-133zM226 284h173l-53 166q-9 28 -34 126h-2l-14 -55l-18 -71zM222 715q-25 0 -42 18t-17 42q0 26 17.5 43.5t42.5 17.5t41.5 -17.5t16.5 -43.5q0 -25 -16.5 -42.5t-42.5 -17.5zM419 715q-25 0 -41.5 17.5t-16.5 42.5
q0 26 17 43.5t43 17.5q25 0 41.5 -17.5t16.5 -43.5q0 -25 -17 -42.5t-43 -17.5z" />
    <glyph glyph-name="Aring" unicode="&#xc5;" horiz-adv-x="636" 
d="M419 191h-213l-58 -191h-127l216 674h157l219 -674h-133zM226 284h173l-53 166q-9 28 -34 126h-2l-14 -55l-18 -71zM319 889q49 0 77.5 -27t28.5 -68q0 -40 -29.5 -66.5t-77.5 -26.5q-49 0 -79 27t-30 66q0 41 29.5 68t80.5 27zM315 845q-20 0 -32 -15t-12 -36
q0 -19 12.5 -33.5t32.5 -14.5q21 0 34 14t13 35t-13 35.5t-35 14.5z" />
    <glyph glyph-name="AE" unicode="&#xc6;" horiz-adv-x="832" 
d="M128 0h-127l296 674h472v-101h-280l21 -176h253v-100h-238l25 -196h252v-101h-358l-26 208h-201zM255 307h149l-21 177q-9 69 -12 103h-4q-16 -47 -38 -102z" />
    <glyph glyph-name="Ccedilla" unicode="&#xc7;" horiz-adv-x="592" 
d="M534 116l20 -96q-57 -29 -166 -30l-21 -37q30 -7 50.5 -27t20.5 -51q0 -45 -32.5 -66.5t-79.5 -21.5q-48 0 -79 18l18 55q22 -14 55 -14q39 0 39 28q0 31 -78 39l40 81q-134 17 -210 105.5t-76 229.5q0 163 101.5 259.5t259.5 96.5q105 0 163 -30l-27 -98q-58 26 -131 26
q-106 0 -171 -65t-65 -183q0 -113 62 -178t172 -65q78 0 135 24z" />
    <glyph glyph-name="Egrave" unicode="&#xc8;" horiz-adv-x="515" 
d="M448 399v-100h-254v-198h284v-101h-407v674h392v-101h-269v-174h254zM114 830h136l88 -119h-99z" />
    <glyph glyph-name="Eacute" unicode="&#xc9;" horiz-adv-x="515" 
d="M448 399v-100h-254v-198h284v-101h-407v674h392v-101h-269v-174h254zM295 830h136l-125 -120h-99z" />
    <glyph glyph-name="Ecircumflex" unicode="&#xca;" horiz-adv-x="515" 
d="M448 399v-100h-254v-198h284v-101h-407v674h392v-101h-269v-174h254zM222 829h93l103 -119h-92l-56 65h-2l-56 -65h-91z" />
    <glyph glyph-name="Edieresis" unicode="&#xcb;" horiz-adv-x="515" 
d="M448 399v-100h-254v-198h284v-101h-407v674h392v-101h-269v-174h254zM165 716q-25 0 -42 18t-17 42q0 26 17.5 43.5t42.5 17.5t41.5 -17.5t16.5 -43.5q0 -25 -16.5 -42.5t-42.5 -17.5zM363 716q-25 0 -42 18t-17 42q0 26 17.5 43.5t42.5 17.5t41.5 -17.5t16.5 -43.5
q0 -25 -16.5 -42.5t-42.5 -17.5z" />
    <glyph glyph-name="Igrave" unicode="&#xcc;" horiz-adv-x="264" 
d="M71 674h123v-674h-123v674zM-26 830h136l88 -119h-99z" />
    <glyph glyph-name="Iacute" unicode="&#xcd;" horiz-adv-x="264" 
d="M71 674h123v-674h-123v674zM156 830h136l-125 -120h-99z" />
    <glyph glyph-name="Icircumflex" unicode="&#xce;" horiz-adv-x="264" 
d="M71 674h123v-674h-123v674zM85 829h93l103 -119h-92l-56 65h-2l-56 -65h-91z" />
    <glyph glyph-name="Idieresis" unicode="&#xcf;" horiz-adv-x="264" 
d="M71 674h123v-674h-123v674zM33 716q-25 0 -42 18t-17 42q0 26 17.5 43.5t42.5 17.5t41.5 -17.5t16.5 -43.5q0 -25 -16.5 -42.5t-42.5 -17.5zM230 716q-25 0 -41.5 17.5t-16.5 42.5q0 26 17 43.5t43 17.5q25 0 41.5 -17.5t16.5 -43.5q0 -25 -17 -42.5t-43 -17.5z" />
    <glyph glyph-name="Eth" unicode="&#xd0;" horiz-adv-x="689" 
d="M1 294v97h76v277q96 14 196 14q183 0 275 -77q106 -85 106 -252q0 -173 -105 -270q-103 -92 -306 -92q-92 0 -166 9v294h-76zM355 391v-97h-155v-203q17 -3 69 -3q122 0 188.5 66.5t66.5 195.5q1 115 -61 175.5t-179 60.5q-52 0 -84 -7v-188h155z" />
    <glyph glyph-name="Ntilde" unicode="&#xd1;" horiz-adv-x="676" 
d="M184 0h-114v674h141l174 -289q69 -117 115 -226h2q-11 110 -11 280v235h114v-674h-128l-176 297q-76 131 -120 232l-4 -1q7 -122 7 -287v-241zM268 715h-60q-1 55 18.5 85.5t54.5 30.5q26 0 62 -20q32 -19 46 -19q13 0 19 8.5t8 32.5h59q3 -112 -74 -112q-29 0 -64 19
q-34 19 -44 19q-22 0 -25 -44z" />
    <glyph glyph-name="Ograve" unicode="&#xd2;" horiz-adv-x="704" 
d="M357 686q144 0 228 -96.5t84 -245.5q0 -166 -90 -260.5t-232 -94.5q-141 0 -226 96.5t-85 246.5q0 156 89.5 255t231.5 99zM353 587q-88 0 -137.5 -71.5t-49.5 -180.5q0 -107 50.5 -177t136.5 -70q87 0 136.5 71.5t49.5 180.5q0 102 -49 174.5t-137 72.5zM193 832h136
l88 -119h-99z" />
    <glyph glyph-name="Oacute" unicode="&#xd3;" horiz-adv-x="704" 
d="M357 686q144 0 228 -96.5t84 -245.5q0 -166 -90 -260.5t-232 -94.5q-141 0 -226 96.5t-85 246.5q0 156 89.5 255t231.5 99zM353 587q-88 0 -137.5 -71.5t-49.5 -180.5q0 -107 50.5 -177t136.5 -70q87 0 136.5 71.5t49.5 180.5q0 102 -49 174.5t-137 72.5zM378 832h136
l-125 -120h-99z" />
    <glyph glyph-name="Ocircumflex" unicode="&#xd4;" horiz-adv-x="704" 
d="M357 686q144 0 228 -96.5t84 -245.5q0 -166 -90 -260.5t-232 -94.5q-141 0 -226 96.5t-85 246.5q0 156 89.5 255t231.5 99zM353 587q-88 0 -137.5 -71.5t-49.5 -180.5q0 -107 50.5 -177t136.5 -70q87 0 136.5 71.5t49.5 180.5q0 102 -49 174.5t-137 72.5zM305 830h93
l103 -119h-92l-56 65h-2l-56 -65h-91z" />
    <glyph glyph-name="Otilde" unicode="&#xd5;" horiz-adv-x="704" 
d="M357 686q144 0 228 -96.5t84 -245.5q0 -166 -90 -260.5t-232 -94.5q-141 0 -226 96.5t-85 246.5q0 156 89.5 255t231.5 99zM353 587q-88 0 -137.5 -71.5t-49.5 -180.5q0 -107 50.5 -177t136.5 -70q87 0 136.5 71.5t49.5 180.5q0 102 -49 174.5t-137 72.5zM279 716h-60
q-1 54 18.5 84.5t54.5 30.5q26 0 62 -19q32 -19 46 -19q13 0 19 8.5t8 32.5h59q3 -112 -74 -112q-29 0 -64 19q-32 18 -44 18q-22 0 -25 -43z" />
    <glyph glyph-name="Odieresis" unicode="&#xd6;" horiz-adv-x="704" 
d="M357 686q144 0 228 -96.5t84 -245.5q0 -166 -90 -260.5t-232 -94.5q-141 0 -226 96.5t-85 246.5q0 156 89.5 255t231.5 99zM353 587q-88 0 -137.5 -71.5t-49.5 -180.5q0 -107 50.5 -177t136.5 -70q87 0 136.5 71.5t49.5 180.5q0 102 -49 174.5t-137 72.5zM253 716
q-25 0 -42 18t-17 42q0 26 17.5 43.5t42.5 17.5t41.5 -17.5t16.5 -43.5q0 -25 -16.5 -42.5t-42.5 -17.5zM450 716q-25 0 -41.5 17.5t-16.5 42.5q0 26 17 43.5t43 17.5q25 0 41.5 -17.5t16.5 -43.5q0 -25 -17 -42.5t-43 -17.5z" />
    <glyph glyph-name="multiply" unicode="&#xd7;" horiz-adv-x="596" 
d="M40 470l55 56l203 -207l202 207l56 -56l-202 -207l202 -206l-56 -57l-202 206l-202 -206l-56 57l202 206z" />
    <glyph glyph-name="Oslash" unicode="&#xd8;" horiz-adv-x="704" 
d="M136 -56l-68 54l59 86q-91 97 -91 252q0 153 89.5 251.5t229.5 98.5q92 0 157 -45l57 81l71 -48l-58 -85q87 -95 87 -247q0 -165 -89.5 -259t-226.5 -94q-87 0 -156 43zM198 189l256 365q-45 35 -100 35q-91 0 -142.5 -71.5t-51.5 -179.5q0 -79 36 -149h2zM509 482
l-254 -361q40 -35 98 -35q89 0 140.5 71.5t51.5 182.5q0 77 -33 142h-3z" />
    <glyph glyph-name="Ugrave" unicode="&#xd9;" horiz-adv-x="666" 
d="M70 674h123v-393q0 -96 37 -144.5t101 -48.5q142 0 142 193v393h123v-385q0 -151 -71.5 -225.5t-197.5 -74.5q-122 0 -189.5 72.5t-67.5 226.5v386zM178 830h136l88 -119h-99z" />
    <glyph glyph-name="Uacute" unicode="&#xda;" horiz-adv-x="666" 
d="M70 674h123v-393q0 -96 37 -144.5t101 -48.5q142 0 142 193v393h123v-385q0 -151 -71.5 -225.5t-197.5 -74.5q-122 0 -189.5 72.5t-67.5 226.5v386zM356 830h136l-125 -120h-99z" />
    <glyph glyph-name="Ucircumflex" unicode="&#xdb;" horiz-adv-x="666" 
d="M70 674h123v-393q0 -96 37 -144.5t101 -48.5q142 0 142 193v393h123v-385q0 -151 -71.5 -225.5t-197.5 -74.5q-122 0 -189.5 72.5t-67.5 226.5v386zM294 829h93l103 -119h-92l-56 65h-2l-56 -65h-91z" />
    <glyph glyph-name="Udieresis" unicode="&#xdc;" horiz-adv-x="666" 
d="M70 674h123v-393q0 -96 37 -144.5t101 -48.5q142 0 142 193v393h123v-385q0 -151 -71.5 -225.5t-197.5 -74.5q-122 0 -189.5 72.5t-67.5 226.5v386zM238 716q-25 0 -42 18t-17 42q0 26 17.5 43.5t42.5 17.5t41.5 -17.5t16.5 -43.5q0 -25 -16.5 -42.5t-42.5 -17.5z
M435 716q-25 0 -41.5 17.5t-16.5 42.5q0 26 17 43.5t43 17.5q25 0 41.5 -17.5t16.5 -43.5q0 -25 -17 -42.5t-43 -17.5z" />
    <glyph glyph-name="Yacute" unicode="&#xdd;" horiz-adv-x="575" 
d="M347 0h-123v281l-213 393h141l80 -173q36 -78 59 -134h2q19 50 58 134l81 173h139l-224 -390v-284zM319 827h136l-125 -120h-99z" />
    <glyph glyph-name="Thorn" unicode="&#xde;" horiz-adv-x="558" 
d="M71 0v674h121v-126q33 6 89 6q119 0 181 -55q61 -52 61 -139q0 -111 -71.5 -166.5t-187.5 -55.5q-44 0 -72 5v-143h-121zM192 453v-213q27 -6 68 -6q69 0 105 31t36 85t-35 81.5t-98 27.5q-48 0 -76 -6z" />
    <glyph glyph-name="germandbls" unicode="&#xdf;" horiz-adv-x="576" 
d="M189 0h-123v440q0 154 74 223q63 58 166 58q85 0 141.5 -48t56.5 -130q0 -50 -23 -82q-64 -29 -64 -74q0 -32 41 -76q26 -27 39 -42t27 -47t14 -66q0 -75 -51 -121t-140 -46q-63 0 -107 18l18 92q34 -16 76 -16q38 0 59.5 18.5t21.5 47.5q0 38 -44 84q-25 25 -37.5 39.5
t-26 42.5t-13.5 56q0 80 84 123q8 18 8 39q0 42 -24.5 67.5t-65.5 25.5q-107 0 -107 -177v-449z" />
    <glyph glyph-name="agrave" unicode="&#xe0;" horiz-adv-x="508" 
d="M444 292v-175q0 -77 8 -117h-111l-9 54h-3q-50 -65 -144 -65q-70 0 -111.5 43t-41.5 102q0 90 76 137.5t213 46.5v8q0 33 -21 59t-78 26q-74 0 -131 -36l-24 80q70 43 176 43q108 0 154.5 -57.5t46.5 -148.5zM324 171v67q-170 2 -170 -91q0 -34 19.5 -52t50.5 -18
q36 0 61.5 19.5t35.5 47.5q3 9 3 27zM98 698h120l87 -148h-85z" />
    <glyph glyph-name="aacute" unicode="&#xe1;" horiz-adv-x="508" 
d="M444 292v-175q0 -77 8 -117h-111l-9 54h-3q-50 -65 -144 -65q-70 0 -111.5 43t-41.5 102q0 90 76 137.5t213 46.5v8q0 33 -21 59t-78 26q-74 0 -131 -36l-24 80q70 43 176 43q108 0 154.5 -57.5t46.5 -148.5zM324 171v67q-170 2 -170 -91q0 -34 19.5 -52t50.5 -18
q36 0 61.5 19.5t35.5 47.5q3 9 3 27zM279 698h120l-122 -148h-85z" />
    <glyph glyph-name="acircumflex" unicode="&#xe2;" horiz-adv-x="508" 
d="M444 292v-175q0 -77 8 -117h-111l-9 54h-3q-50 -65 -144 -65q-70 0 -111.5 43t-41.5 102q0 90 76 137.5t213 46.5v8q0 33 -21 59t-78 26q-74 0 -131 -36l-24 80q70 43 176 43q108 0 154.5 -57.5t46.5 -148.5zM324 171v67q-170 2 -170 -91q0 -34 19.5 -52t50.5 -18
q36 0 61.5 19.5t35.5 47.5q3 9 3 27zM208 698h83l98 -148h-85l-53 90h-2l-54 -90h-84z" />
    <glyph glyph-name="atilde" unicode="&#xe3;" horiz-adv-x="508" 
d="M444 292v-175q0 -77 8 -117h-111l-9 54h-3q-50 -65 -144 -65q-70 0 -111.5 43t-41.5 102q0 90 76 137.5t213 46.5v8q0 33 -21 59t-78 26q-74 0 -131 -36l-24 80q70 43 176 43q108 0 154.5 -57.5t46.5 -148.5zM324 171v67q-170 2 -170 -91q0 -34 19.5 -52t50.5 -18
q36 0 61.5 19.5t35.5 47.5q3 9 3 27zM175 562h-61q-2 56 18.5 87.5t57.5 31.5q23 0 63 -21q32 -18 43 -18q23 0 26 43h60q3 -116 -76 -116q-27 0 -65 21q-29 17 -41 17q-22 0 -25 -45z" />
    <glyph glyph-name="adieresis" unicode="&#xe4;" horiz-adv-x="508" 
d="M444 292v-175q0 -77 8 -117h-111l-9 54h-3q-50 -65 -144 -65q-70 0 -111.5 43t-41.5 102q0 90 76 137.5t213 46.5v8q0 33 -21 59t-78 26q-74 0 -131 -36l-24 80q70 43 176 43q108 0 154.5 -57.5t46.5 -148.5zM324 171v67q-170 2 -170 -91q0 -34 19.5 -52t50.5 -18
q36 0 61.5 19.5t35.5 47.5q3 9 3 27zM154 563q-26 0 -43.5 18t-17.5 43q0 26 18 44t45 18q25 0 42 -17.5t17 -44.5q0 -25 -17.5 -43t-43.5 -18zM354 563h-2q-25 0 -42.5 18t-17.5 43q0 26 18 44t44 18t43 -17.5t17 -44.5q0 -25 -17 -43t-43 -18z" />
    <glyph glyph-name="aring" unicode="&#xe5;" horiz-adv-x="508" 
d="M444 292v-175q0 -77 8 -117h-111l-9 54h-3q-50 -65 -144 -65q-70 0 -111.5 43t-41.5 102q0 90 76 137.5t213 46.5v8q0 33 -21 59t-78 26q-74 0 -131 -36l-24 80q70 43 176 43q108 0 154.5 -57.5t46.5 -148.5zM324 171v67q-170 2 -170 -91q0 -34 19.5 -52t50.5 -18
q35 0 61 19.5t36 47.5q3 9 3 27zM254 538q-49 0 -79 27t-30 67q0 43 29.5 70.5t80.5 27.5q49 0 78 -27t29 -70q0 -41 -30 -68t-78 -27zM253 582q22 0 35.5 15t13.5 37t-13.5 37t-35.5 15q-21 0 -34 -15.5t-13 -37.5q0 -20 13 -35.5t34 -15.5z" />
    <glyph glyph-name="ae" unicode="&#xe6;" horiz-adv-x="790" 
d="M754 216h-316q0 -63 39 -99t103 -36q70 0 134 27l19 -84q-69 -35 -170 -35q-63 0 -113 25t-72 71h-3q-57 -96 -182 -96q-75 0 -118 42.5t-43 103.5q0 86 77 132.5t214 45.5v17q0 9 -4 20.5t-14 26t-32 24.5t-53 10q-70 0 -128 -37l-25 79q76 45 163 45q119 0 159 -89h3
q57 89 167 89q52 0 92.5 -22t62.5 -57.5t32.5 -75t10.5 -79.5q0 -15 -3 -48zM326 175v60q-173 2 -173 -91q0 -31 20.5 -49t51.5 -18q36 0 60.5 18.5t35.5 46.5q5 12 5 33zM437 301h205q1 40 -22 77t-75 37q-50 0 -78 -36.5t-30 -77.5z" />
    <glyph glyph-name="ccedilla" unicode="&#xe7;" horiz-adv-x="449" 
d="M407 106l17 -91q-47 -24 -120 -25l-21 -37q31 -7 51.5 -26.5t20.5 -50.5q0 -46 -32.5 -67.5t-80.5 -21.5q-47 0 -77 18l17 55q23 -14 55 -14q39 0 39 28q0 32 -78 39l40 81q-93 13 -148 78.5t-55 166.5q0 113 73 186t198 73q66 0 119 -22l-22 -93q-38 19 -94 19
q-68 0 -108.5 -45t-39.5 -113q0 -73 42 -115t107 -42q51 0 97 19z" />
    <glyph glyph-name="egrave" unicode="&#xe8;" horiz-adv-x="516" 
d="M479 209h-326q2 -63 44 -94.5t106 -31.5q71 0 135 22l18 -84q-72 -31 -170 -31q-117 0 -184 66.5t-67 179.5q0 108 63.5 185t174.5 77q56 0 99 -21.5t66 -57.5t34 -75.5t11 -82.5q0 -30 -4 -52zM153 295h214q1 44 -22.5 81.5t-78.5 37.5q-52 0 -80 -37t-33 -82zM127 698
h120l87 -148h-85z" />
    <glyph glyph-name="eacute" unicode="&#xe9;" horiz-adv-x="516" 
d="M479 209h-326q2 -63 44 -94.5t106 -31.5q71 0 135 22l18 -84q-72 -31 -170 -31q-117 0 -184 66.5t-67 179.5q0 108 63.5 185t174.5 77q56 0 99 -21.5t66 -57.5t34 -75.5t11 -82.5q0 -30 -4 -52zM153 295h214q1 44 -22.5 81.5t-78.5 37.5q-52 0 -80 -37t-33 -82zM302 698
h120l-122 -148h-85z" />
    <glyph glyph-name="ecircumflex" unicode="&#xea;" horiz-adv-x="516" 
d="M479 209h-326q2 -63 44 -94.5t106 -31.5q71 0 135 22l18 -84q-72 -31 -170 -31q-117 0 -184 66.5t-67 179.5q0 108 63.5 185t174.5 77q56 0 99 -21.5t66 -57.5t34 -75.5t11 -82.5q0 -30 -4 -52zM153 295h214q1 44 -22.5 81.5t-78.5 37.5q-52 0 -80 -37t-33 -82zM227 698
h83l98 -148h-85l-53 90h-2l-54 -90h-84z" />
    <glyph glyph-name="edieresis" unicode="&#xeb;" horiz-adv-x="516" 
d="M479 209h-326q2 -63 44 -94.5t106 -31.5q71 0 135 22l18 -84q-72 -31 -170 -31q-117 0 -184 66.5t-67 179.5q0 108 63.5 185t174.5 77q56 0 99 -21.5t66 -57.5t34 -75.5t11 -82.5q0 -30 -4 -52zM153 295h214q1 44 -22.5 81.5t-78.5 37.5q-52 0 -80 -37t-33 -82zM175 563
q-26 0 -43.5 18t-17.5 43q0 26 18 44t45 18q25 0 42 -17.5t17 -44.5q0 -25 -17.5 -43t-43.5 -18zM375 563h-2q-25 0 -42.5 18t-17.5 43q0 26 18 44t44 18t43 -17.5t17 -44.5q0 -25 -17 -43t-43 -18z" />
    <glyph glyph-name="igrave" unicode="&#xec;" horiz-adv-x="256" 
d="M189 0h-123v487h123v-487zM-29 698h120l87 -148h-85z" />
    <glyph glyph-name="iacute" unicode="&#xed;" horiz-adv-x="256" 
d="M189 0h-123v487h123v-487zM157 698h121l-122 -148h-85z" />
    <glyph glyph-name="icircumflex" unicode="&#xee;" horiz-adv-x="256" 
d="M189 0h-123v487h123v-487zM86 698h83l98 -148h-85l-54 90h-2l-53 -90h-84z" />
    <glyph glyph-name="idieresis" unicode="&#xef;" horiz-adv-x="256" 
d="M189 0h-123v487h123v-487zM28 563q-26 0 -43.5 18t-17.5 43q0 26 18 44t45 18q25 0 42 -17.5t17 -44.5q0 -25 -17.5 -43t-43.5 -18zM229 563h-2q-25 0 -42.5 18t-17.5 43q0 26 18 44t44 18t43 -17.5t17 -44.5q0 -25 -17 -43t-43 -18z" />
    <glyph glyph-name="eth" unicode="&#xf0;" horiz-adv-x="560" 
d="M279 78q55 0 86 45.5t31 118.5q0 83 -28 119q-34 39 -87 39q-60 0 -89.5 -50t-29.5 -113q0 -68 32 -113.5t85 -45.5zM111 491l-23 52l110 51q-37 25 -99 53l54 72q73 -29 150 -80l133 60l26 -52l-106 -48q81 -65 125 -154q42 -82 42 -190q0 -67 -21 -119.5t-56 -83.5
t-78 -47t-90 -16q-106 0 -174.5 67.5t-68.5 179.5q0 108 66.5 174t161.5 68q54 0 90 -30l2 3q-41 61 -101 104z" />
    <glyph glyph-name="ntilde" unicode="&#xf1;" horiz-adv-x="572" 
d="M66 0v342q0 61 -4 145h107l6 -73h3q19 34 59.5 59t96.5 25q72 0 122.5 -51t50.5 -158v-289h-123v275q0 56 -22.5 89.5t-70.5 33.5q-35 0 -60 -21t-36 -51q-6 -15 -6 -39v-287h-123zM214 562h-61q-2 56 18.5 87.5t57.5 31.5q23 0 63 -21q32 -18 42 -18q13 0 19.5 9.5
t7.5 33.5h60q3 -116 -76 -116q-27 0 -65 21q-29 17 -41 17q-22 0 -25 -45z" />
    <glyph glyph-name="ograve" unicode="&#xf2;" horiz-adv-x="564" 
d="M287 498q108 0 175 -69.5t67 -180.5q0 -126 -74 -192.5t-176 -66.5q-106 0 -175 68t-69 183q0 118 70 188t182 70zM284 409q-61 0 -91.5 -49t-30.5 -117q0 -72 33 -118.5t88 -46.5q53 0 86 46.5t33 120.5q0 65 -30 114.5t-88 49.5zM138 698h120l87 -148h-85z" />
    <glyph glyph-name="oacute" unicode="&#xf3;" horiz-adv-x="564" 
d="M287 498q108 0 175 -69.5t67 -180.5q0 -126 -74 -192.5t-176 -66.5q-106 0 -175 68t-69 183q0 118 70 188t182 70zM284 409q-61 0 -91.5 -49t-30.5 -117q0 -72 33 -118.5t88 -46.5q53 0 86 46.5t33 120.5q0 65 -30 114.5t-88 49.5zM308 698h120l-122 -148h-85z" />
    <glyph glyph-name="ocircumflex" unicode="&#xf4;" horiz-adv-x="564" 
d="M287 498q108 0 175 -69.5t67 -180.5q0 -126 -74 -192.5t-176 -66.5q-106 0 -175 68t-69 183q0 118 70 188t182 70zM284 409q-61 0 -91.5 -49t-30.5 -117q0 -72 33 -118.5t88 -46.5q53 0 86 46.5t33 120.5q0 65 -30 114.5t-88 49.5zM240 698h83l98 -148h-85l-53 90h-2
l-54 -90h-84z" />
    <glyph glyph-name="otilde" unicode="&#xf5;" horiz-adv-x="564" 
d="M287 498q108 0 175 -69.5t67 -180.5q0 -126 -74 -192.5t-176 -66.5q-106 0 -175 68t-69 183q0 118 70 188t182 70zM284 409q-61 0 -91.5 -49t-30.5 -117q0 -72 33 -118.5t88 -46.5q53 0 86 46.5t33 120.5q0 65 -30 114.5t-88 49.5zM209 562h-61q-2 56 18.5 87.5
t57.5 31.5q23 0 63 -21q34 -18 43 -18q13 0 19 9t7 34h60q3 -116 -76 -116q-27 0 -65 21q-29 17 -41 17q-22 0 -25 -45z" />
    <glyph glyph-name="odieresis" unicode="&#xf6;" horiz-adv-x="564" 
d="M287 498q108 0 175 -69.5t67 -180.5q0 -126 -74 -192.5t-176 -66.5q-106 0 -175 68t-69 183q0 118 70 188t182 70zM284 409q-61 0 -91.5 -49t-30.5 -117q0 -72 33 -118.5t88 -46.5q53 0 86 46.5t33 120.5q0 65 -30 114.5t-88 49.5zM182 563q-26 0 -43.5 18t-17.5 43
q0 26 18 44t45 18q25 0 42 -17.5t17 -44.5q0 -25 -17.5 -43t-43.5 -18zM382 563h-2q-25 0 -42.5 18t-17.5 43q0 26 18 44t44 18t43 -17.5t17 -44.5q0 -25 -17 -43t-43 -18z" />
    <glyph glyph-name="divide" unicode="&#xf7;" horiz-adv-x="596" 
d="M297 376q-28 0 -45.5 18.5t-17.5 47.5t18 47.5t46 18.5q29 0 46 -18t18 -48q0 -29 -17.5 -47.5t-47.5 -18.5zM556 228h-516v78h516v-78zM297 26q-28 0 -45.5 18.5t-17.5 47.5t18 47.5t46 18.5q29 0 46 -18t18 -48q0 -29 -17.5 -47.5t-47.5 -18.5z" />
    <glyph glyph-name="oslash" unicode="&#xf8;" horiz-adv-x="564" 
d="M284 498q66 0 120 -30l44 65l47 -33l-44 -64q78 -70 78 -190q0 -124 -73 -190.5t-173 -66.5q-69 0 -120 29l-46 -66l-45 36l43 62q-80 69 -80 192q0 116 69.5 186t179.5 70zM182 145l168 241q-28 23 -69 23q-64 0 -95.5 -50t-31.5 -116q0 -58 25 -98h3zM384 339
l-168 -238q24 -23 65 -23q59 0 94 46t35 119q0 55 -24 95z" />
    <glyph glyph-name="ugrave" unicode="&#xf9;" horiz-adv-x="569" 
d="M502 487v-341q0 -66 4 -146h-107l-6 73h-3q-52 -84 -157 -84q-74 0 -121.5 50.5t-47.5 161.5v286h123v-265q0 -133 91 -133q35 0 59.5 19.5t34.5 46.5q7 14 7 38v294h123zM136 698h120l87 -148h-85z" />
    <glyph glyph-name="uacute" unicode="&#xfa;" horiz-adv-x="569" 
d="M502 487v-341q0 -66 4 -146h-107l-6 73h-3q-52 -84 -157 -84q-74 0 -121.5 50.5t-47.5 161.5v286h123v-265q0 -133 91 -133q35 0 59.5 19.5t34.5 46.5q7 14 7 38v294h123zM318 698h120l-122 -148h-85z" />
    <glyph glyph-name="ucircumflex" unicode="&#xfb;" horiz-adv-x="569" 
d="M502 487v-341q0 -66 4 -146h-107l-6 73h-3q-52 -84 -157 -84q-74 0 -121.5 50.5t-47.5 161.5v286h123v-265q0 -133 91 -133q35 0 59.5 19.5t34.5 46.5q7 14 7 38v294h123zM242 698h84l98 -148h-85l-54 90h-2l-53 -90h-84z" />
    <glyph glyph-name="udieresis" unicode="&#xfc;" horiz-adv-x="569" 
d="M502 487v-341q0 -66 4 -146h-107l-6 73h-3q-52 -84 -157 -84q-74 0 -121.5 50.5t-47.5 161.5v286h123v-265q0 -133 91 -133q35 0 59.5 19.5t34.5 46.5q7 14 7 38v294h123zM187 563q-26 0 -43.5 18t-17.5 43q0 26 18 44t45 18q25 0 42 -17.5t17 -44.5q0 -25 -17.5 -43
t-43.5 -18zM388 563h-2q-25 0 -42.5 18t-17.5 43q0 26 18 44t44 18t43 -17.5t17 -44.5q0 -25 -17 -43t-43 -18z" />
    <glyph glyph-name="yacute" unicode="&#xfd;" horiz-adv-x="500" 
d="M8 487h136l87 -261q16 -49 28 -94h3q19 73 26 95l76 260h131l-122 -332q-50 -135 -88 -205t-81 -108q-62 -53 -129 -62l-28 103q36 8 71 34q42 26 68 77q7 13 7 22q0 10 -6 24zM292 698h120l-122 -148h-85z" />
    <glyph glyph-name="thorn" unicode="&#xfe;" horiz-adv-x="585" 
d="M66 674h123v-254h2q51 78 154 78q86 2 145.5 -66.5t59.5 -182.5q0 -126 -66.5 -193t-153.5 -67q-92 0 -139 65h-2v-252h-123v872zM189 282v-86q0 -24 12 -46q13 -30 40 -48t61 -18q56 0 89.5 44t33.5 119q0 66 -32 110t-87 44q-36 0 -65 -20t-42 -54q-10 -24 -10 -45z
" />
    <glyph glyph-name="ydieresis" unicode="&#xff;" horiz-adv-x="500" 
d="M8 487h136l87 -261q16 -49 28 -94h3q19 73 26 95l76 260h131l-122 -332q-50 -135 -88 -205t-81 -108q-62 -53 -129 -62l-28 103q36 8 71 34q42 26 68 77q7 13 7 22q0 10 -6 24zM161 563q-26 0 -43.5 18t-17.5 43q0 26 18 44t45 18q25 0 42 -17.5t17 -44.5
q0 -25 -17.5 -43t-43.5 -18zM362 563h-2q-25 0 -42.5 18t-17.5 43q0 26 18 44t44 18t43 -17.5t17 -44.5q0 -25 -17 -43t-43 -18z" />
    <glyph glyph-name="Amacron" unicode="&#x100;" horiz-adv-x="636" 
d="M419 191h-213l-58 -191h-127l216 674h157l219 -674h-133zM226 284h173l-53 166q-9 28 -34 126h-2l-14 -55l-18 -71zM190 803h250v-69h-250v69z" />
    <glyph glyph-name="amacron" unicode="&#x101;" horiz-adv-x="508" 
d="M444 292v-175q0 -77 8 -117h-111l-9 54h-3q-50 -65 -144 -65q-70 0 -111.5 43t-41.5 102q0 90 76 137.5t213 46.5v8q0 33 -21 59t-78 26q-74 0 -131 -36l-24 80q70 43 176 43q108 0 154.5 -57.5t46.5 -148.5zM324 171v67q-170 2 -170 -91q0 -34 19.5 -52t50.5 -18
q36 0 61.5 19.5t35.5 47.5q3 9 3 27zM135 655h239v-71h-239v71z" />
    <glyph glyph-name="Abreve" unicode="&#x102;" horiz-adv-x="636" 
d="M419 191h-213l-58 -191h-127l216 674h157l219 -674h-133zM226 284h173l-53 166q-9 28 -34 126h-2l-14 -55l-18 -71zM184 826h68q9 -47 65 -47q58 0 67 47h66q-2 -53 -35 -85t-99 -32t-98 31.5t-34 85.5z" />
    <glyph glyph-name="abreve" unicode="&#x103;" horiz-adv-x="508" 
d="M444 292v-175q0 -77 8 -117h-111l-9 54h-3q-50 -65 -144 -65q-70 0 -111.5 43t-41.5 102q0 90 76 137.5t213 46.5v8q0 33 -21 59t-78 26q-74 0 -131 -36l-24 80q70 43 176 43q108 0 154.5 -57.5t46.5 -148.5zM324 171v67q-170 2 -170 -91q0 -34 19.5 -52t50.5 -18
q36 0 61.5 19.5t35.5 47.5q3 9 3 27zM122 688h67q4 -30 20.5 -47.5t43.5 -17.5q31 0 47.5 19t18.5 46h67q-1 -61 -36 -98t-96 -37q-65 0 -98 38t-34 97z" />
    <glyph glyph-name="Aogonek" unicode="&#x104;" horiz-adv-x="636" 
d="M394 674l219 -674l-62 -1q-37 -49 -37 -80q0 -24 15 -39t38 -15q22 0 44 8l18 -58q-35 -28 -92 -28q-48 0 -76 25t-28 72q0 55 47 119l-60 188h-214l-58 -191h-127l216 674h157zM226 284h173l-53 166q-9 28 -34 126h-2q-1 -3 -13 -52.5t-19 -73.5z" />
    <glyph glyph-name="aogonek" unicode="&#x105;" horiz-adv-x="508" 
d="M444 292v-175q0 -76 7 -117h-41q-29 -46 -29 -82q0 -25 13 -38t35 -13q23 0 45 10l18 -60q-40 -30 -96 -30q-43 0 -69.5 25t-26.5 69q0 50 40 121l-8 52h-3q-50 -65 -144 -65q-70 0 -111.5 43t-41.5 102q0 90 76 137.5t213 46.5v8q0 33 -21 59t-78 26q-74 0 -131 -36
l-24 80q70 43 176 43q108 0 154.5 -57.5t46.5 -148.5zM324 171v67q-170 2 -170 -91q0 -34 19.5 -52t50.5 -18q36 0 61.5 19.5t35.5 47.5q3 9 3 27z" />
    <glyph glyph-name="Cacute" unicode="&#x106;" horiz-adv-x="588" 
d="M534 116l20 -97q-62 -30 -175 -30q-159 0 -251.5 92.5t-92.5 247.5q0 163 101.5 259.5t259.5 96.5q105 0 163 -30l-26 -98q-59 26 -132 26q-106 0 -171 -65t-65 -183q0 -113 62 -178t173 -65q77 0 134 24zM387 831h136l-125 -120h-99z" />
    <glyph glyph-name="cacute" unicode="&#x107;" horiz-adv-x="449" 
d="M407 106l17 -91q-54 -25 -138 -25q-114 0 -182.5 68t-68.5 181t73 186t198 73q68 0 119 -22l-22 -93q-38 19 -93 19q-69 0 -109.5 -45t-39.5 -113q0 -73 42 -115t107 -42q51 0 97 19zM296 698h120l-122 -148h-85z" />
    <glyph glyph-name="Ccircumflex" unicode="&#x108;" horiz-adv-x="588" 
d="M534 116l20 -97q-62 -30 -175 -30q-159 0 -251.5 92.5t-92.5 247.5q0 163 101.5 259.5t259.5 96.5q105 0 163 -30l-26 -98q-59 26 -132 26q-106 0 -171 -65t-65 -183q0 -113 62 -178t173 -65q77 0 134 24zM307 833h93l103 -119h-92l-56 65h-2l-56 -65h-91z" />
    <glyph glyph-name="ccircumflex" unicode="&#x109;" horiz-adv-x="449" 
d="M407 106l17 -91q-54 -25 -138 -25q-114 0 -182.5 68t-68.5 181t73 186t198 73q68 0 119 -22l-22 -93q-38 19 -93 19q-69 0 -109.5 -45t-39.5 -113q0 -73 42 -115t107 -42q51 0 97 19zM221 698h83l98 -148h-85l-54 90h-2l-53 -90h-84z" />
    <glyph glyph-name="Cdotaccent" unicode="&#x10a;" horiz-adv-x="588" 
d="M534 116l20 -97q-62 -30 -175 -30q-159 0 -251.5 92.5t-92.5 247.5q0 163 101.5 259.5t259.5 96.5q105 0 163 -30l-26 -98q-59 26 -132 26q-106 0 -171 -65t-65 -183q0 -113 62 -178t173 -65q77 0 134 24zM354 715q-25 0 -42.5 18t-17.5 42q0 26 18 43.5t44 17.5
q25 0 41.5 -17.5t16.5 -43.5q0 -24 -17 -42t-43 -18z" />
    <glyph glyph-name="cdotaccent" unicode="&#x10b;" horiz-adv-x="449" 
d="M407 106l17 -91q-54 -25 -138 -25q-114 0 -182.5 68t-68.5 181t73 186t198 73q68 0 119 -22l-22 -93q-38 19 -93 19q-69 0 -109.5 -45t-39.5 -113q0 -73 42 -115t107 -42q51 0 97 19zM271 562q-25 0 -43 18t-18 44t18 44t45 18q25 0 42 -18t17 -44t-17 -44t-44 -18z" />
    <glyph glyph-name="Ccaron" unicode="&#x10c;" horiz-adv-x="588" 
d="M534 116l20 -97q-62 -30 -175 -30q-159 0 -251.5 92.5t-92.5 247.5q0 163 101.5 259.5t259.5 96.5q105 0 163 -30l-26 -98q-59 26 -132 26q-106 0 -171 -65t-65 -183q0 -113 62 -178t173 -65q77 0 134 24zM404 711h-93l-103 119h92l57 -66h2l55 66h91z" />
    <glyph glyph-name="ccaron" unicode="&#x10d;" horiz-adv-x="449" 
d="M407 106l17 -91q-54 -25 -138 -25q-114 0 -182.5 68t-68.5 181t73 186t198 73q68 0 119 -22l-22 -93q-38 19 -93 19q-69 0 -109.5 -45t-39.5 -113q0 -73 42 -115t107 -42q51 0 97 19zM308 550h-85l-98 148h85l55 -91h2l54 91h84z" />
    <glyph glyph-name="Dcaron" unicode="&#x10e;" horiz-adv-x="683" 
d="M71 2v663q96 14 196 14q181 0 274 -78q106 -85 106 -248q0 -173 -105 -268q-101 -92 -305 -92q-92 0 -166 9zM194 576v-483q17 -3 68 -3q121 -1 188 65.5t67 193.5q1 111 -61.5 172.5t-177.5 61.5q-52 0 -84 -7zM363 711h-93l-103 119h92l57 -66h2l55 66h91z" />
    <glyph glyph-name="dcaron" unicode="&#x10f;" horiz-adv-x="591" 
d="M392 710h123v-573q0 -71 4 -137h-109l-6 77h-2q-22 -41 -64 -64.5t-94 -23.5q-89 0 -149 69t-60 180q-1 118 62.5 189t155.5 71q48 0 84 -17.5t53 -45.5h2v275zM392 211v73q0 18 -3 33q-9 37 -37.5 61.5t-68.5 24.5q-58 0 -90.5 -45t-32.5 -115q0 -69 32.5 -112t89.5 -43
q38 0 67.5 24t38.5 63q4 15 4 36zM609 507l-52 36q31 45 31 95q0 38 -25 67l81 15q34 -24 34 -74q0 -83 -69 -139z" />
    <glyph glyph-name="Dcroat" unicode="&#x110;" horiz-adv-x="689" 
d="M1 294v97h76v277q96 14 196 14q183 0 275 -77q106 -85 106 -252q0 -173 -105 -270q-103 -92 -306 -92q-92 0 -166 9v294h-76zM355 391v-97h-155v-203q17 -3 69 -3q122 0 188.5 66.5t66.5 195.5q1 115 -61 175.5t-179 60.5q-52 0 -84 -7v-188h155z" />
    <glyph glyph-name="dcroat" unicode="&#x111;" horiz-adv-x="581" 
d="M594 545h-79v-408q0 -71 4 -137h-109l-6 77h-2q-22 -41 -64 -64.5t-94 -23.5q-89 0 -149 69t-60 180q-1 118 62.5 189t155.5 71q48 0 84 -17.5t53 -45.5h2v110h-189v71h189v94h123v-94h79v-71zM392 211v73q0 18 -3 33q-9 37 -37.5 61.5t-68.5 24.5q-58 0 -90.5 -45
t-32.5 -115q0 -69 32.5 -112t89.5 -43q38 0 67.5 24t38.5 63q4 15 4 36z" />
    <glyph glyph-name="Emacron" unicode="&#x112;" horiz-adv-x="515" 
d="M448 399v-100h-254v-198h284v-101h-407v674h392v-101h-269v-174h254zM141 803h250v-69h-250v69z" />
    <glyph glyph-name="emacron" unicode="&#x113;" horiz-adv-x="516" 
d="M479 209h-326q2 -63 44 -94.5t106 -31.5q71 0 135 22l18 -84q-72 -31 -170 -31q-117 0 -184 66.5t-67 179.5q0 108 63.5 185t174.5 77q56 0 99 -21.5t66 -57.5t34 -75.5t11 -82.5q0 -30 -4 -52zM153 295h214q1 44 -22.5 81.5t-78.5 37.5q-52 0 -80 -37t-33 -82zM142 655
h239v-71h-239v71z" />
    <glyph glyph-name="Ebreve" unicode="&#x114;" horiz-adv-x="515" 
d="M448 399v-100h-254v-198h284v-101h-407v674h392v-101h-269v-174h254zM133 831h68q9 -47 65 -47q58 0 67 47h66q-2 -53 -35 -85t-99 -32t-98 31.5t-34 85.5z" />
    <glyph glyph-name="ebreve" unicode="&#x115;" horiz-adv-x="516" 
d="M479 209h-326q2 -63 44 -94.5t106 -31.5q71 0 135 22l18 -84q-72 -31 -170 -31q-117 0 -184 66.5t-67 179.5q0 108 63.5 185t174.5 77q56 0 99 -21.5t66 -57.5t34 -75.5t11 -82.5q0 -30 -4 -52zM153 295h214q1 44 -22.5 81.5t-78.5 37.5q-52 0 -80 -37t-33 -82zM129 688
h67q4 -30 20.5 -47.5t44.5 -17.5q31 0 47.5 19t18.5 46h67q-1 -61 -36 -98t-97 -37q-65 0 -98 38t-34 97z" />
    <glyph glyph-name="Edotaccent" unicode="&#x116;" horiz-adv-x="515" 
d="M448 399v-100h-254v-198h284v-101h-407v674h392v-101h-269v-174h254zM260 717q-25 0 -42.5 18t-17.5 42q0 26 18 43.5t44 17.5q25 0 41.5 -17.5t16.5 -43.5q0 -24 -17 -42t-43 -18z" />
    <glyph glyph-name="edotaccent" unicode="&#x117;" horiz-adv-x="516" 
d="M479 209h-326q2 -63 44 -94.5t106 -31.5q71 0 135 22l18 -84q-72 -31 -170 -31q-117 0 -184 66.5t-67 179.5q0 108 63.5 185t174.5 77q56 0 99 -21.5t66 -57.5t34 -75.5t11 -82.5q0 -30 -4 -52zM153 295h214q1 44 -22.5 81.5t-78.5 37.5q-52 0 -80 -37t-33 -82zM262 562
q-25 0 -43 18t-18 44t18 44t45 18q25 0 42 -18t17 -44t-17 -44t-44 -18z" />
    <glyph glyph-name="Eogonek" unicode="&#x118;" horiz-adv-x="515" 
d="M466 -126l18 -60q-39 -27 -96 -27q-45 0 -71.5 23t-26.5 64q0 38 22.5 71.5t52.5 54.5h-294v674h392v-101h-269v-174h254v-100h-254v-198h284v-101h-22q-30 -20 -52 -47t-22 -51q0 -17 11.5 -26.5t29.5 -9.5q24 0 43 8z" />
    <glyph glyph-name="eogonek" unicode="&#x119;" horiz-adv-x="516" 
d="M405 -124l19 -59q-39 -30 -96 -30q-44 0 -70 22t-26 61q0 64 70 120v1q-7 -1 -20 -1q-115 1 -181 67.5t-66 178.5q0 108 63.5 185t174.5 77q57 0 99.5 -21.5t65.5 -57.5t34 -75.5t11 -82.5q0 -32 -4 -52h-326q2 -63 44.5 -94.5t106.5 -31.5q71 0 134 22l18 -84
q-17 -8 -44 -16q-32 -15 -61 -45.5t-29 -56.5q0 -18 10.5 -27.5t26.5 -9.5q26 0 46 10zM153 295h214q1 44 -22.5 81.5t-78.5 37.5q-52 0 -79.5 -36.5t-33.5 -82.5z" />
    <glyph glyph-name="Ecaron" unicode="&#x11a;" horiz-adv-x="515" 
d="M448 399v-100h-254v-198h284v-101h-407v674h392v-101h-269v-174h254zM312 710h-93l-103 119h92l57 -66h2l55 66h91z" />
    <glyph glyph-name="ecaron" unicode="&#x11b;" horiz-adv-x="516" 
d="M479 209h-326q2 -63 44 -94.5t106 -31.5q71 0 135 22l18 -84q-72 -31 -170 -31q-117 0 -184 66.5t-67 179.5q0 108 63.5 185t174.5 77q56 0 99 -21.5t66 -57.5t34 -75.5t11 -82.5q0 -30 -4 -52zM153 295h214q1 44 -22.5 81.5t-78.5 37.5q-52 0 -80 -37t-33 -82zM304 550
h-85l-98 148h85l54 -91h2l55 91h84z" />
    <glyph glyph-name="Gcircumflex" unicode="&#x11c;" horiz-adv-x="666" 
d="M611 372v-341q-102 -38 -216 -38q-171 0 -265 90q-94 89 -94 248q1 160 104 255t271 95q113 0 179 -32l-27 -99q-63 29 -153 29q-111 0 -178 -63.5t-67 -178.5q0 -113 64 -178.5t170 -65.5q63 0 93 13v169h-119v97h238zM321 832h92l103 -119h-92l-56 65h-2l-56 -65h-91z
" />
    <glyph glyph-name="gcircumflex" unicode="&#x11d;" horiz-adv-x="573" 
d="M507 347v-276q0 -156 -72 -221q-66 -59 -188 -59q-104 0 -170 39l27 93q64 -37 142 -37q64 0 102 36t38 111v42h-2q-47 -72 -142 -72q-91 0 -149 67t-58 171q0 116 65 186.5t156 70.5q97 0 141 -76h2l5 65h107q-4 -66 -4 -140zM384 213v79q0 20 -4 33q-10 35 -36 57
t-64 22q-53 0 -86.5 -43t-33.5 -116q0 -65 31.5 -107.5t87.5 -42.5q35 0 62 20.5t38 54.5q5 15 5 43zM245 700h83l98 -148h-85l-53 90h-2l-54 -90h-84z" />
    <glyph glyph-name="Gbreve" unicode="&#x11e;" horiz-adv-x="666" 
d="M611 372v-341q-102 -38 -216 -38q-171 0 -265 90q-94 89 -94 248q1 160 104 255t271 95q113 0 179 -32l-27 -99q-63 29 -153 29q-111 0 -178 -63.5t-67 -178.5q0 -113 64 -178.5t170 -65.5q63 0 93 13v169h-119v97h238zM234 834h68q9 -47 65 -47q58 0 67 47h66
q-2 -53 -35 -85t-99 -32t-98 31.5t-34 85.5z" />
    <glyph glyph-name="gbreve" unicode="&#x11f;" horiz-adv-x="573" 
d="M507 347v-276q0 -156 -72 -221q-66 -59 -188 -59q-104 0 -170 39l27 93q64 -37 142 -37q64 0 102 36t38 111v42h-2q-47 -72 -142 -72q-91 0 -149 67t-58 171q0 116 65 186.5t156 70.5q97 0 141 -76h2l5 65h107q-4 -66 -4 -140zM384 213v79q0 20 -4 33q-10 35 -36 57
t-64 22q-53 0 -86.5 -43t-33.5 -116q0 -65 31.5 -107.5t87.5 -42.5q35 0 62 20.5t38 54.5q5 15 5 43zM151 688h67q4 -30 20.5 -47.5t43.5 -17.5q31 0 47.5 19t18.5 46h67q-1 -61 -36 -98t-96 -37q-65 0 -98 38t-34 97z" />
    <glyph glyph-name="Gdotaccent" unicode="&#x120;" horiz-adv-x="666" 
d="M611 372v-341q-102 -38 -216 -38q-171 0 -265 90q-94 89 -94 248q1 160 104 255t271 95q113 0 179 -32l-27 -99q-63 29 -153 29q-111 0 -178 -63.5t-67 -178.5q0 -113 64 -178.5t170 -65.5q63 0 93 13v169h-119v97h238zM370 715h-2q-25 0 -42.5 18t-17.5 42q0 26 18 43.5
t44 17.5q25 0 41.5 -17.5t16.5 -43.5q0 -24 -17 -42t-41 -18z" />
    <glyph glyph-name="gdotaccent" unicode="&#x121;" horiz-adv-x="573" 
d="M507 347v-276q0 -156 -72 -221q-66 -59 -188 -59q-104 0 -170 39l27 93q64 -37 142 -37q64 0 102 36t38 111v42h-2q-47 -72 -142 -72q-91 0 -149 67t-58 171q0 116 65 186.5t156 70.5q97 0 141 -76h2l5 65h107q-4 -66 -4 -140zM384 213v79q0 20 -4 33q-10 35 -36 57
t-64 22q-53 0 -86.5 -43t-33.5 -116q0 -65 31.5 -107.5t87.5 -42.5q35 0 62 20.5t38 54.5q5 15 5 43zM286 565h-2q-25 0 -43 18t-18 44t18 44t45 18q25 0 42 -18t17 -44t-17 -44t-42 -18z" />
    <glyph glyph-name="Gcommaaccent" unicode="&#x122;" horiz-adv-x="666" 
d="M611 372v-341q-102 -38 -216 -38q-171 0 -265 90q-94 89 -94 248q1 160 104 255t271 95q113 0 179 -32l-27 -99q-63 29 -153 29q-111 0 -178 -63.5t-67 -178.5q0 -113 64 -178.5t170 -65.5q63 0 93 13v169h-119v97h238zM292 -233l-20 54q30 5 50 21.5t20 41.5
q0 29 -31 60l87 16q39 -27 39 -77q0 -55 -41.5 -84.5t-103.5 -31.5z" />
    <glyph glyph-name="gcommaaccent" unicode="&#x123;" horiz-adv-x="573" 
d="M507 347v-276q0 -156 -72 -221q-66 -59 -188 -59q-104 0 -170 39l27 93q64 -37 142 -37q64 0 102 36t38 111v42h-2q-47 -72 -142 -72q-91 0 -149 67t-58 171q0 116 65 186.5t156 70.5q97 0 141 -76h2l5 65h107q-4 -66 -4 -140zM384 213v79q0 20 -4 33q-10 35 -36 57
t-64 22q-53 0 -86.5 -43t-33.5 -116q0 -65 31.5 -107.5t87.5 -42.5q35 0 62 20.5t38 54.5q5 15 5 43zM354 717l20 -46q-76 -11 -76 -62q0 -30 33 -57l-84 -15q-39 27 -39 72q0 52 41.5 79t104.5 29z" />
    <glyph glyph-name="Hcircumflex" unicode="&#x124;" horiz-adv-x="672" 
d="M71 674h123v-270h285v270h123v-674h-123v297h-285v-297h-123v674zM289 829h93l103 -119h-92l-56 65h-2l-56 -65h-91z" />
    <glyph glyph-name="hcircumflex" unicode="&#x125;" horiz-adv-x="572" 
d="M66 0v710h123v-289h2q23 35 61 55q39 22 85 22q71 0 120.5 -51.5t49.5 -159.5v-287h-123v274q0 56 -23 90t-71 34q-34 0 -59.5 -19.5t-36.5 -49.5q-5 -14 -5 -37v-292h-123zM85 851h93l103 -119h-92l-56 65h-2l-56 -65h-91z" />
    <glyph glyph-name="Hbar" unicode="&#x126;" horiz-adv-x="681" 
d="M667 475h-61v-475h-123v276h-285v-276h-123v475h-61v75h61v124h123v-124h285v124h123v-124h61v-75zM483 383v92h-285v-92h285z" />
    <glyph glyph-name="hbar" unicode="&#x127;" horiz-adv-x="572" 
d="M507 0h-123v274q0 56 -23 90t-71 34q-34 0 -59.5 -19.5t-36.5 -49.5q-5 -14 -5 -37v-292h-123v545h-78v71h78v94h123v-94h188v-71h-188v-124h2q23 35 61 55q42 22 85 22q71 0 120.5 -51.5t49.5 -159.5v-287z" />
    <glyph glyph-name="Itilde" unicode="&#x128;" horiz-adv-x="264" 
d="M71 674h123v-674h-123v674zM59 715h-60q-1 55 18.5 85.5t54.5 30.5q27 0 62 -20q32 -19 46 -19q13 0 19 8.5t8 32.5h59q3 -112 -74 -112q-30 0 -63 19q-36 19 -45 19q-22 0 -25 -44z" />
    <glyph glyph-name="itilde" unicode="&#x129;" horiz-adv-x="256" 
d="M189 0h-123v487h123v-487zM56 562h-61q-2 56 18.5 87.5t57.5 31.5q23 0 63 -21q32 -18 43 -18q23 0 26 43h60q3 -116 -76 -116q-26 0 -66 21q-28 17 -40 17q-22 0 -25 -45z" />
    <glyph glyph-name="Imacron" unicode="&#x12a;" horiz-adv-x="264" 
d="M71 674h123v-674h-123v674zM8 803h250v-69h-250v69z" />
    <glyph glyph-name="imacron" unicode="&#x12b;" horiz-adv-x="256" 
d="M189 0h-123v487h123v-487zM9 655h239v-71h-239v71z" />
    <glyph glyph-name="Ibreve" unicode="&#x12c;" horiz-adv-x="264" 
d="M71 674h123v-674h-123v674zM-1 831h68q9 -47 65 -47q58 0 67 47h66q-2 -53 -35 -85t-99 -32t-98 31.5t-34 85.5z" />
    <glyph glyph-name="ibreve" unicode="&#x12d;" horiz-adv-x="256" 
d="M189 0h-123v487h123v-487zM-2 688h67q4 -30 20.5 -47.5t43.5 -17.5q31 0 47.5 19t18.5 46h67q-1 -61 -36 -98t-96 -37q-65 0 -98 38t-34 97z" />
    <glyph glyph-name="Iogonek" unicode="&#x12e;" horiz-adv-x="264" 
d="M194 674v-674h-52q-30 -48 -30 -82q0 -25 14.5 -39.5t38.5 -14.5t44 8l18 -59q-37 -28 -93 -28q-48 0 -75.5 25t-27.5 72t40 118v674h123z" />
    <glyph glyph-name="iogonek" unicode="&#x12f;" horiz-adv-x="256" 
d="M127 559q-31 0 -50.5 20t-19.5 49t20 48.5t51 19.5q32 0 51.5 -19.5t19.5 -48.5t-19.5 -49t-52.5 -20zM189 487v-487h-51q-30 -48 -30 -82q0 -24 15 -39t38 -15q24 0 44 8l18 -59q-37 -28 -93 -28q-48 0 -75.5 25t-27.5 73q0 42 39 117v487h123z" />
    <glyph glyph-name="Idotaccent" unicode="&#x130;" horiz-adv-x="264" 
d="M71 674h123v-674h-123v674zM132 717q-25 0 -42.5 18t-17.5 42q0 26 18 43.5t44 17.5q25 0 41.5 -17.5t16.5 -43.5q0 -24 -17 -42t-43 -18z" />
    <glyph glyph-name="dotlessi" unicode="&#x131;" horiz-adv-x="256" 
d="M189 0h-123v487h123v-487z" />
    <glyph glyph-name="IJ" unicode="&#x132;" horiz-adv-x="657" 
d="M71 674h123v-674h-123v674zM469 241v433h123v-437q0 -133 -58 -190.5t-165 -57.5q-61 0 -103 16l15 99q33 -12 76 -12q56 0 84 33t28 116z" />
    <glyph glyph-name="ij" unicode="&#x133;" horiz-adv-x="526" 
d="M189 0h-123v487h123v-487zM128 690q31 0 49.5 -19t19.5 -48q0 -28 -19.5 -47t-50.5 -19q-30 0 -49 19t-19 47q0 29 19.5 48t49.5 19zM226 -213l-12 96q65 5 92 35q18 19 25 55t7 114v400h123v-435q0 -144 -64 -208q-60 -57 -171 -57zM400 690q30 0 48.5 -19t19.5 -48
q0 -28 -19 -47t-51 -19q-31 0 -49.5 19t-18.5 47q0 29 19.5 48t50.5 19z" />
    <glyph glyph-name="Jcircumflex" unicode="&#x134;" horiz-adv-x="392" 
d="M205 241v433h123v-437q0 -133 -58 -190.5t-165 -57.5q-61 0 -104 16l15 99q34 -12 76 -12q56 0 84.5 33t28.5 116zM217 829h93l103 -119h-92l-56 65h-2l-56 -65h-91z" />
    <glyph glyph-name="jcircumflex" unicode="&#x135;" horiz-adv-x="270" 
d="M-30 -213l-12 96q63 5 92 35q18 19 25 55t7 114v400h123v-435q0 -144 -64 -208q-60 -57 -171 -57zM95 694h83l98 -148h-85l-54 90h-2l-53 -90h-84z" />
    <glyph glyph-name="Kcommaaccent" unicode="&#x136;" horiz-adv-x="582" 
d="M71 0v674h122v-310h3q14 22 49 73l177 237h151l-232 -287l247 -387h-144l-190 309l-61 -72v-237h-122zM229 -232l-20 54q30 5 50 21.5t20 41.5q0 29 -31 60l87 16q39 -27 39 -77q0 -55 -41.5 -84.5t-103.5 -31.5z" />
    <glyph glyph-name="kcommaaccent" unicode="&#x137;" horiz-adv-x="509" 
d="M189 710v-437h2q19 30 38 57l119 157h148l-181 -199l206 -288h-151l-140 215l-41 -49v-166h-123v710h123zM191 -233l-20 54q30 5 50 21t20 42q0 29 -31 60l87 16q39 -27 39 -77q0 -55 -41.5 -84.5t-103.5 -31.5z" />
    <glyph glyph-name="kgreenlandic" unicode="&#x138;" horiz-adv-x="509" 
d="M189 487v-214h2q19 30 38 57l119 157h148l-181 -199l206 -288h-151l-140 215l-41 -49v-166h-123v487h123z" />
    <glyph glyph-name="Lacute" unicode="&#x139;" horiz-adv-x="493" 
d="M71 0v674h123v-571h277v-103h-400zM171 830h136l-125 -120h-99z" />
    <glyph glyph-name="lacute" unicode="&#x13a;" horiz-adv-x="257" 
d="M66 0v710h123v-710h-123zM149 860h136l-125 -120h-99z" />
    <glyph glyph-name="Lcommaaccent" unicode="&#x13b;" horiz-adv-x="493" 
d="M71 0v674h123v-571h277v-103h-400zM188 -233l-20 54q30 5 50 21.5t20 41.5q0 29 -31 60l87 16q39 -27 39 -77q0 -55 -41.5 -84.5t-103.5 -31.5z" />
    <glyph glyph-name="lcommaaccent" unicode="&#x13c;" horiz-adv-x="257" 
d="M66 0v710h123v-710h-123zM56 -233l-20 54q30 5 50 21t20 42q0 29 -31 60l87 16q39 -27 39 -77q0 -55 -41.5 -84.5t-103.5 -31.5z" />
    <glyph glyph-name="Lcaron" unicode="&#x13d;" horiz-adv-x="493" 
d="M71 0v674h123v-571h277v-103h-400zM278 493l-20 54q70 14 70 63q0 29 -31 60l87 16q39 -27 39 -77q0 -55 -41.5 -84.5t-103.5 -31.5z" />
    <glyph glyph-name="lcaron" unicode="&#x13e;" horiz-adv-x="266" 
d="M66 0v710h123v-710h-123zM284 507l-56 36q31 50 31 95q0 38 -25 67l81 15q14 -10 24 -31t10 -46q0 -13 -1.5 -25t-5 -22.5l-6.5 -19t-9 -17.5l-9.5 -14.5t-10 -13t-9 -10l-8.5 -8.5z" />
    <glyph glyph-name="Ldot" unicode="&#x13f;" horiz-adv-x="493" 
d="M71 0v674h123v-571h277v-103h-400zM363 315q-25 0 -42.5 18t-17.5 42q0 26 18 43.5t44 17.5q25 0 41.5 -17.5t16.5 -43.5q0 -24 -17 -42t-43 -18z" />
    <glyph glyph-name="ldot" unicode="&#x140;" horiz-adv-x="317" 
d="M66 0v710h123v-710h-123zM286 335q-24 0 -40 18t-16 42q0 26 16.5 43t41.5 17q23 0 38.5 -17.5t15.5 -42.5t-16 -42.5t-40 -17.5z" />
    <glyph glyph-name="Lslash" unicode="&#x141;" horiz-adv-x="499" 
d="M476 0h-400v251l-79 -56v88l79 56v335h123v-253l129 91v-89l-129 -91v-229h277v-103z" />
    <glyph glyph-name="lslash" unicode="&#x142;" horiz-adv-x="267" 
d="M195 0h-123v256l-66 -55v91l66 55v363h123v-271l71 59v-92l-71 -58v-348z" />
    <glyph glyph-name="Nacute" unicode="&#x143;" horiz-adv-x="676" 
d="M184 0h-114v674h141l174 -289q69 -117 115 -226h2q-11 110 -11 280v235h114v-674h-128l-176 297q-76 131 -120 232l-4 -1q7 -122 7 -287v-241zM360 830h136l-125 -120h-99z" />
    <glyph glyph-name="nacute" unicode="&#x144;" horiz-adv-x="572" 
d="M66 0v342q0 61 -4 145h107l6 -73h3q19 34 59.5 59t96.5 25q72 0 122.5 -51t50.5 -158v-289h-123v275q0 56 -22.5 89.5t-70.5 33.5q-35 0 -60 -21t-36 -51q-6 -15 -6 -39v-287h-123zM310 698h121l-122 -148h-85z" />
    <glyph glyph-name="Ncommaaccent" unicode="&#x145;" horiz-adv-x="676" 
d="M184 0h-114v674h141l174 -289q69 -117 115 -226h2q-11 110 -11 280v235h114v-674h-128l-176 297q-76 131 -120 232l-4 -1q7 -122 7 -287v-241zM273 -231l-20 54q30 5 50 21.5t20 41.5q0 30 -32 60l88 16q39 -27 39 -77q0 -55 -41.5 -84.5t-103.5 -31.5z" />
    <glyph glyph-name="ncommaaccent" unicode="&#x146;" horiz-adv-x="572" 
d="M66 0v342q0 61 -4 145h107l6 -73h3q19 34 59.5 59t96.5 25q72 0 122.5 -51t50.5 -158v-289h-123v275q0 56 -22.5 89.5t-70.5 33.5q-35 0 -60 -21t-36 -51q-6 -15 -6 -39v-287h-123zM222 -232l-20 54q30 5 50.5 21t20.5 42q0 28 -32 60l88 16q39 -27 39 -77
q0 -55 -41.5 -84.5t-104.5 -31.5z" />
    <glyph glyph-name="Ncaron" unicode="&#x147;" horiz-adv-x="676" 
d="M184 0h-114v674h141l174 -289q69 -117 115 -226h2q-11 110 -11 280v235h114v-674h-128l-176 297q-76 131 -120 232l-4 -1q7 -122 7 -287v-241zM387 707h-92l-103 119h92l57 -66h2l55 66h91z" />
    <glyph glyph-name="ncaron" unicode="&#x148;" horiz-adv-x="572" 
d="M66 0v342q0 61 -4 145h107l6 -73h3q19 34 59.5 59t96.5 25q72 0 122.5 -51t50.5 -158v-289h-123v275q0 56 -22.5 89.5t-70.5 33.5q-35 0 -60 -21t-36 -51q-6 -15 -6 -39v-287h-123zM328 550h-84l-98 148h85l54 -91h2l55 91h84z" />
    <glyph glyph-name="napostrophe" unicode="&#x149;" horiz-adv-x="572" 
d="M66 0v342q0 61 -4 145h107l6 -73h3q19 34 59.5 59t96.5 25q72 0 122.5 -51t50.5 -158v-289h-123v275q0 56 -22.5 89.5t-70.5 33.5q-35 0 -60 -21t-36 -51q-6 -15 -6 -39v-287h-123zM66 530l-53 35q33 47 33 85q0 34 -25 57l83 21q33 -22 33 -74q0 -72 -71 -124z" />
    <glyph glyph-name="Eng" unicode="&#x14a;" horiz-adv-x="676" 
d="M184 0h-114v674h141l174 -289q69 -117 115 -226l2 1q-11 109 -11 279v235h114v-630q0 -225 -212 -252l-27 94q55 12 83.5 36.5t35.5 66.5l-184 308q-76 131 -120 232l-4 -1q7 -122 7 -287v-241z" />
    <glyph glyph-name="eng" unicode="&#x14b;" horiz-adv-x="572" 
d="M66 0v342q0 61 -4 145h107l6 -73h3q19 34 59.5 59t96.5 25q72 0 122.5 -51t50.5 -158v-230q0 -220 -199 -247l-24 97q52 10 76 41.5t24 91.5v233q0 56 -22.5 89.5t-70.5 33.5q-35 0 -60 -21t-36 -51q-6 -15 -6 -39v-287h-123z" />
    <glyph glyph-name="Omacron" unicode="&#x14c;" horiz-adv-x="704" 
d="M357 686q144 0 228 -96.5t84 -245.5q0 -166 -90 -260.5t-232 -94.5q-141 0 -226 96.5t-85 246.5q0 156 89.5 255t231.5 99zM353 587q-88 0 -137.5 -71.5t-49.5 -180.5q0 -107 50.5 -177t136.5 -70q87 0 136.5 71.5t49.5 180.5q0 102 -49 174.5t-137 72.5zM228 806h250
v-69h-250v69z" />
    <glyph glyph-name="omacron" unicode="&#x14d;" horiz-adv-x="564" 
d="M287 498q108 0 175 -69.5t67 -180.5q0 -126 -74 -192.5t-176 -66.5q-106 0 -175 68t-69 183q0 118 70 188t182 70zM284 409q-61 0 -91.5 -49t-30.5 -117q0 -72 33 -118.5t88 -46.5q53 0 86 46.5t33 120.5q0 65 -30 114.5t-88 49.5zM163 655h239v-71h-239v71z" />
    <glyph glyph-name="Obreve" unicode="&#x14e;" horiz-adv-x="704" 
d="M357 686q144 0 228 -96.5t84 -245.5q0 -166 -90 -260.5t-232 -94.5q-141 0 -226 96.5t-85 246.5q0 156 89.5 255t231.5 99zM353 587q-88 0 -137.5 -71.5t-49.5 -180.5q0 -107 50.5 -177t136.5 -70q87 0 136.5 71.5t49.5 180.5q0 102 -49 174.5t-137 72.5zM219 837h68
q9 -47 65 -47q58 0 67 47h66q-2 -53 -35 -85t-99 -32t-98 31.5t-34 85.5z" />
    <glyph glyph-name="obreve" unicode="&#x14f;" horiz-adv-x="564" 
d="M287 498q108 0 175 -69.5t67 -180.5q0 -126 -74 -192.5t-176 -66.5q-106 0 -175 68t-69 183q0 118 70 188t182 70zM284 409q-61 0 -91.5 -49t-30.5 -117q0 -72 33 -118.5t88 -46.5q53 0 86 46.5t33 120.5q0 65 -30 114.5t-88 49.5zM149 688h67q4 -30 20.5 -47.5
t44.5 -17.5q31 0 47.5 19t18.5 46h67q-1 -61 -36 -98t-97 -37q-65 0 -98 38t-34 97z" />
    <glyph glyph-name="Ohungarumlaut" unicode="&#x150;" horiz-adv-x="704" 
d="M357 686q144 0 228 -96.5t84 -245.5q0 -166 -90 -260.5t-232 -94.5q-141 0 -226 96.5t-85 246.5q0 156 89.5 255t231.5 99zM353 587q-88 0 -137.5 -71.5t-49.5 -180.5q0 -107 50.5 -177t136.5 -70q87 0 136.5 71.5t49.5 180.5q0 102 -49 174.5t-137 72.5zM299 833h120
l-106 -114h-86zM464 833h121l-106 -114h-86z" />
    <glyph glyph-name="ohungarumlaut" unicode="&#x151;" horiz-adv-x="564" 
d="M287 498q108 0 175 -69.5t67 -180.5q0 -126 -74 -192.5t-176 -66.5q-106 0 -175 68t-69 183q0 118 70 188t182 70zM284 409q-61 0 -91.5 -49t-30.5 -117q0 -72 33 -118.5t88 -46.5q53 0 86 46.5t33 120.5q0 65 -30 114.5t-88 49.5zM217 697h105l-103 -143h-72zM378 697
h104l-103 -143h-72z" />
    <glyph glyph-name="OE" unicode="&#x152;" horiz-adv-x="917" 
d="M879 102v-102h-364q-4 0 -64 -5q-48 -6 -82 -6q-159 0 -246 97.5t-87 245.5q0 163 92.5 258.5t243.5 95.5q47 0 89 -7q63 -5 64 -5h339v-101h-269v-174h254v-100h-254v-197h284zM472 100v473q-34 14 -91 14q-96 0 -155.5 -67.5t-59.5 -182.5q0 -112 59.5 -180.5
t164.5 -68.5q52 0 82 12z" />
    <glyph glyph-name="oe" unicode="&#x153;" horiz-adv-x="866" 
d="M830 211h-318q1 -60 42 -94.5t104 -34.5q64 0 133 26l18 -84q-63 -35 -168 -35q-128 0 -185 99h-3q-28 -49 -77.5 -74t-107.5 -25q-100 0 -166.5 69t-66.5 183q0 116 68 186.5t173 70.5q58 0 105.5 -26t71.5 -74h2q57 100 174 100q55 0 96.5 -22t64 -58t33 -75.5
t10.5 -81.5q0 -23 -3 -50zM280 409q-61 0 -89.5 -50.5t-28.5 -116.5q0 -70 32.5 -117t85.5 -47q54 0 85.5 45t31.5 120q0 69 -29.5 117.5t-87.5 48.5zM510 296h208q1 44 -21.5 81t-78.5 37q-50 0 -77 -37t-31 -81z" />
    <glyph glyph-name="Racute" unicode="&#x154;" horiz-adv-x="569" 
d="M71 0v664q78 15 186 15q143 0 208 -54q58 -49 58 -136q0 -62 -35.5 -106t-87.5 -62v-3q68 -25 94 -130q45 -172 53 -188h-126q-19 38 -45 159q-15 65 -41.5 90.5t-79.5 27.5h-62v-277h-122zM193 580v-213h73q62 0 98 30t36 81q0 53 -34.5 80.5t-96.5 27.5q-52 0 -76 -6z
M298 832h136l-125 -120h-99z" />
    <glyph glyph-name="racute" unicode="&#x155;" horiz-adv-x="356" 
d="M66 0v330q0 100 -4 157h106l5 -92h3q17 49 54.5 76t79.5 27q14 0 29 -3v-115q-17 3 -37 3q-43 0 -72.5 -25t-37.5 -68q-3 -16 -3 -37v-253h-123zM213 698h121l-122 -148h-85z" />
    <glyph glyph-name="Rcommaaccent" unicode="&#x156;" horiz-adv-x="569" 
d="M71 0v664q78 15 186 15q143 0 208 -54q58 -49 58 -136q0 -62 -35.5 -106t-87.5 -62v-3q68 -25 94 -130q45 -172 53 -188h-126q-19 38 -45 159q-15 65 -41.5 90.5t-79.5 27.5h-62v-277h-122zM193 580v-213h73q62 0 98 30t36 81q0 53 -34.5 80.5t-96.5 27.5q-52 0 -76 -6z
M220 -228l-20 54q30 5 50 21.5t20 41.5q0 29 -31 60l87 16q39 -27 39 -77q0 -55 -41.5 -84.5t-103.5 -31.5z" />
    <glyph glyph-name="rcommaaccent" unicode="&#x157;" horiz-adv-x="356" 
d="M66 0v330q0 100 -4 157h106l5 -92h3q17 49 54.5 76t79.5 27q14 0 29 -3v-115q-17 3 -37 3q-43 0 -72.5 -25t-37.5 -68q-3 -16 -3 -37v-253h-123zM63 -233l-20 54q30 5 50 21t20 42q0 29 -31 60l87 16q39 -27 39 -77q0 -55 -41.5 -84.5t-103.5 -31.5z" />
    <glyph glyph-name="Rcaron" unicode="&#x158;" horiz-adv-x="569" 
d="M71 0v664q78 15 186 15q143 0 208 -54q58 -49 58 -136q0 -62 -35.5 -106t-87.5 -62v-3q68 -25 94 -130q45 -172 53 -188h-126q-19 38 -45 159q-15 65 -41.5 90.5t-79.5 27.5h-62v-277h-122zM193 580v-213h73q62 0 98 30t36 81q0 53 -34.5 80.5t-96.5 27.5q-52 0 -76 -6z
M325 711h-93l-103 119h92l57 -66h2l55 66h91z" />
    <glyph glyph-name="rcaron" unicode="&#x159;" horiz-adv-x="356" 
d="M66 0v330q0 100 -4 157h106l5 -92h3q17 49 54.5 76t79.5 27q14 0 29 -3v-115q-17 3 -37 3q-43 0 -72.5 -25t-37.5 -68q-3 -16 -3 -37v-253h-123zM234 550h-84l-98 148h85l53 -91h2l56 91h84z" />
    <glyph glyph-name="Sacute" unicode="&#x15a;" horiz-adv-x="519" 
d="M41 32l28 102q73 -43 163 -43q58 0 90 25t32 67q0 38 -27.5 63t-91.5 49q-183 65 -183 196q0 85 65.5 139.5t173.5 54.5q95 0 161 -34l-29 -99q-62 32 -135 32q-55 0 -83 -24t-28 -57q0 -37 28.5 -60t100.5 -51q89 -34 131 -81t42 -119q0 -87 -65.5 -145t-189.5 -58
q-52 0 -103 12.5t-80 30.5zM296 832h135l-125 -120h-99z" />
    <glyph glyph-name="sacute" unicode="&#x15b;" horiz-adv-x="417" 
d="M36 24l25 90q57 -36 124 -36q78 0 78 55q0 24 -17 39t-63 32q-134 45 -134 142q0 66 50.5 109t133.5 43q77 0 130 -29l-25 -86q-47 28 -103 28q-32 0 -50 -14.5t-18 -37.5q0 -22 18 -36t67 -32q67 -23 98 -58.5t32 -89.5q0 -69 -52 -111t-146 -42q-87 0 -148 34zM244 698
h120l-122 -148h-85z" />
    <glyph glyph-name="Scircumflex" unicode="&#x15c;" horiz-adv-x="519" 
d="M41 32l28 102q73 -43 163 -43q58 0 90 25t32 67q0 38 -27.5 63t-91.5 49q-183 65 -183 196q0 85 65.5 139.5t173.5 54.5q95 0 161 -34l-29 -99q-62 32 -135 32q-55 0 -83 -24t-28 -57q0 -37 28.5 -60t100.5 -51q89 -34 131 -81t42 -119q0 -87 -65.5 -145t-189.5 -58
q-52 0 -103 12.5t-80 30.5zM215 831h92l103 -119h-92l-56 65h-2l-56 -65h-91z" />
    <glyph glyph-name="scircumflex" unicode="&#x15d;" horiz-adv-x="417" 
d="M36 24l25 90q57 -36 124 -36q78 0 78 55q0 24 -17 39t-63 32q-134 45 -134 142q0 66 50.5 109t133.5 43q77 0 130 -29l-25 -86q-47 28 -103 28q-32 0 -50 -14.5t-18 -37.5q0 -22 18 -36t67 -32q67 -23 98 -58.5t32 -89.5q0 -69 -52 -111t-146 -42q-87 0 -148 34zM169 698
h83l98 -148h-85l-53 90h-2l-54 -90h-84z" />
    <glyph glyph-name="Scedilla" unicode="&#x15e;" horiz-adv-x="519" 
d="M41 32l28 102q73 -43 163 -43q58 0 90 25t32 67q0 38 -27.5 63t-91.5 49q-183 65 -183 196q0 85 65.5 139.5t173.5 54.5q95 0 161 -34l-29 -99q-62 32 -135 32q-55 0 -83 -24t-28 -57q0 -37 28.5 -60t100.5 -51q89 -34 131 -81t42 -119q0 -73 -47 -126.5t-137 -70.5
l-25 -42q30 -4 50.5 -23.5t20.5 -47.5q0 -43 -32 -63.5t-81 -20.5q-45 0 -76 19l18 49q28 -15 55 -15q38 0 38 28q0 33 -78 39l38 71h-4q-45 0 -96 12t-82 31z" />
    <glyph glyph-name="scedilla" unicode="&#x15f;" horiz-adv-x="417" 
d="M35 24l26 89q59 -35 124 -35q78 0 78 55q0 24 -17 39t-63 32q-134 45 -134 142q0 66 50.5 109t133.5 43q77 0 130 -29l-25 -86q-47 28 -103 28q-32 0 -50 -14.5t-18 -37.5q0 -22 18 -36t67 -32q130 -45 130 -148q0 -57 -36 -96t-104 -52l-24 -42q29 -4 50 -23t21 -48
q0 -43 -32 -63.5t-82 -20.5q-45 0 -75 19l18 49q28 -15 54 -15q39 0 39 28q0 33 -78 39l38 72h-2q-70 0 -134 34z" />
    <glyph glyph-name="Scaron" unicode="&#x160;" horiz-adv-x="519" 
d="M41 32l28 102q73 -43 163 -43q58 0 90 25t32 67q0 38 -27.5 63t-91.5 49q-183 65 -183 196q0 85 65.5 139.5t173.5 54.5q95 0 161 -34l-29 -99q-62 32 -135 32q-55 0 -83 -24t-28 -57q0 -37 28.5 -60t100.5 -51q89 -34 131 -81t42 -119q0 -87 -65.5 -145t-189.5 -58
q-52 0 -103 12.5t-80 30.5zM317 711h-93l-103 119h92l57 -66h2l55 66h91z" />
    <glyph glyph-name="scaron" unicode="&#x161;" horiz-adv-x="417" 
d="M36 24l25 90q57 -36 124 -36q78 0 78 55q0 24 -17 39t-63 32q-134 45 -134 142q0 66 50.5 109t133.5 43q77 0 130 -29l-25 -86q-47 28 -103 28q-32 0 -50 -14.5t-18 -37.5q0 -22 18 -36t67 -32q67 -23 98 -58.5t32 -89.5q0 -69 -52 -111t-146 -42q-87 0 -148 34zM255 550
h-85l-98 148h85l55 -91h2l54 91h84z" />
    <glyph glyph-name="Tcommaaccent" unicode="&#x162;" horiz-adv-x="525" 
d="M200 0v571h-192v103h509v-103h-194v-571h-123zM187 -233l-20 54q30 5 50 21.5t20 41.5q0 29 -31 60l87 16q39 -27 39 -77q0 -55 -41.5 -84.5t-103.5 -31.5z" />
    <glyph glyph-name="tcommaaccent" unicode="&#x163;" horiz-adv-x="351" 
d="M86 578l121 34v-125h117v-92h-117v-215q0 -46 14.5 -68t48.5 -22q30 0 48 5l2 -93q-33 -13 -89 -13q-69 0 -106 40q-39 40 -39 137v229h-69v92h69v91zM124 -236l-20 54q30 5 50 21t20 42q0 29 -31 60l87 16q39 -27 39 -77q0 -55 -41.5 -84.5t-103.5 -31.5z" />
    <glyph glyph-name="Tcaron" unicode="&#x164;" horiz-adv-x="525" 
d="M200 0v571h-192v103h509v-103h-194v-571h-123zM309 710h-93l-103 119h92l57 -66h2l55 66h91z" />
    <glyph glyph-name="tcaron" unicode="&#x165;" horiz-adv-x="357" 
d="M86 578l121 34v-125h117v-92h-117v-215q0 -46 14.5 -68t48.5 -22q30 0 48 5l2 -93q-33 -13 -89 -13q-69 0 -106 40q-39 40 -39 137v229h-69v92h69v91zM305 539l-32 46q35 25 35 71q0 30 -24 56l83 15q13 -9 23 -28.5t10 -40.5q0 -48 -30.5 -78.5t-64.5 -40.5z" />
    <glyph glyph-name="Tbar" unicode="&#x166;" horiz-adv-x="525" 
d="M517 571h-194v-192h119v-76h-119v-303h-123v303h-120v76h120v192h-192v103h509v-103z" />
    <glyph glyph-name="tbar" unicode="&#x167;" horiz-adv-x="351" 
d="M324 395h-117v-90h90v-68h-90v-65q0 -82 63 -82q30 0 48 5l2 -93q-33 -13 -89 -13q-69 0 -106 40q-39 40 -39 137v71h-64v68h64v90h-69v92h69v91l121 34v-125h117v-92z" />
    <glyph glyph-name="Utilde" unicode="&#x168;" horiz-adv-x="666" 
d="M70 674h123v-393q0 -96 37 -144.5t101 -48.5q142 0 142 193v393h123v-385q0 -151 -71.5 -225.5t-197.5 -74.5q-122 0 -189.5 72.5t-67.5 226.5v386zM260 715h-60q-1 55 18.5 85.5t54.5 30.5q26 0 61 -20q32 -19 46 -19q13 0 19 8.5t8 32.5h59q3 -112 -74 -112
q-28 0 -63 19q-34 19 -44 19q-22 0 -25 -44z" />
    <glyph glyph-name="utilde" unicode="&#x169;" horiz-adv-x="569" 
d="M502 487v-341q0 -66 4 -146h-107l-6 73h-3q-52 -84 -157 -84q-74 0 -121.5 50.5t-47.5 161.5v286h123v-265q0 -133 91 -133q35 0 59.5 19.5t34.5 46.5q7 14 7 38v294h123zM212 562h-61q-2 56 18.5 87.5t57.5 31.5q23 0 63 -21q32 -18 42 -18q13 0 19.5 9.5t7.5 33.5h60
q3 -116 -76 -116q-27 0 -65 21q-29 17 -41 17q-22 0 -25 -45z" />
    <glyph glyph-name="Umacron" unicode="&#x16a;" horiz-adv-x="666" 
d="M70 674h123v-393q0 -96 37 -144.5t101 -48.5q142 0 142 193v393h123v-385q0 -151 -71.5 -225.5t-197.5 -74.5q-122 0 -189.5 72.5t-67.5 226.5v386zM208 803h250v-69h-250v69z" />
    <glyph glyph-name="umacron" unicode="&#x16b;" horiz-adv-x="569" 
d="M502 487v-341q0 -66 4 -146h-107l-6 73h-3q-52 -84 -157 -84q-74 0 -121.5 50.5t-47.5 161.5v286h123v-265q0 -133 91 -133q35 0 59.5 19.5t34.5 46.5q7 14 7 38v294h123zM165 655h239v-71h-239v71z" />
    <glyph glyph-name="Ubreve" unicode="&#x16c;" horiz-adv-x="666" 
d="M70 674h123v-393q0 -96 37 -144.5t101 -48.5q142 0 142 193v393h123v-385q0 -151 -71.5 -225.5t-197.5 -74.5q-122 0 -189.5 72.5t-67.5 226.5v386zM200 832h68q9 -47 65 -47q58 0 67 47h66q-2 -53 -35 -85t-99 -32t-98 31.5t-34 85.5z" />
    <glyph glyph-name="ubreve" unicode="&#x16d;" horiz-adv-x="569" 
d="M502 487v-341q0 -66 4 -146h-107l-6 73h-3q-52 -84 -157 -84q-74 0 -121.5 50.5t-47.5 161.5v286h123v-265q0 -133 91 -133q35 0 59.5 19.5t34.5 46.5q7 14 7 38v294h123zM152 688h67q4 -30 20.5 -47.5t44.5 -17.5q31 0 47.5 19t18.5 46h67q-1 -61 -36 -98t-97 -37
q-65 0 -98 38t-34 97z" />
    <glyph glyph-name="Uring" unicode="&#x16e;" horiz-adv-x="666" 
d="M70 674h123v-393q0 -96 37 -144.5t101 -48.5q142 0 142 193v393h123v-385q0 -151 -71.5 -225.5t-197.5 -74.5q-122 0 -189.5 72.5t-67.5 226.5v386zM335 880q49 0 77.5 -27t28.5 -68q0 -40 -29.5 -67t-77.5 -27q-49 0 -79 27t-30 66q0 41 29.5 68.5t80.5 27.5zM331 836
q-20 0 -32 -15.5t-12 -36.5q0 -19 12.5 -33.5t32.5 -14.5q21 0 34 14t13 36q0 20 -13 35t-35 15z" />
    <glyph glyph-name="uring" unicode="&#x16f;" horiz-adv-x="569" 
d="M502 487v-341q0 -66 4 -146h-107l-6 73h-3q-52 -84 -157 -84q-74 0 -121.5 50.5t-47.5 161.5v286h123v-265q0 -133 91 -133q35 0 59.5 19.5t34.5 46.5q7 14 7 38v294h123zM285 538q-49 0 -79 27t-30 67q0 43 29.5 70.5t80.5 27.5q49 0 77.5 -27t28.5 -70q0 -41 -30 -68
t-77 -27zM284 582q22 0 35 15t13 37t-13.5 37t-35.5 15q-21 0 -33.5 -16t-12.5 -37q0 -20 13 -35.5t34 -15.5z" />
    <glyph glyph-name="Uhungarumlaut" unicode="&#x170;" horiz-adv-x="666" 
d="M70 674h123v-393q0 -96 37 -144.5t101 -48.5q142 0 142 193v393h123v-385q0 -151 -71.5 -225.5t-197.5 -74.5q-122 0 -189.5 72.5t-67.5 226.5v386zM269 831h120l-106 -114h-86zM434 831h121l-106 -114h-86z" />
    <glyph glyph-name="uhungarumlaut" unicode="&#x171;" horiz-adv-x="569" 
d="M502 487v-341q0 -66 4 -146h-107l-6 73h-3q-52 -84 -157 -84q-74 0 -121.5 50.5t-47.5 161.5v286h123v-265q0 -133 91 -133q35 0 59.5 19.5t34.5 46.5q7 14 7 38v294h123zM231 697h105l-103 -143h-72zM392 697h104l-103 -143h-72z" />
    <glyph glyph-name="Uogonek" unicode="&#x172;" horiz-adv-x="666" 
d="M436 -124l18 -58q-40 -29 -97 -29q-46 0 -71.5 22.5t-25.5 61.5q0 55 57 117h-6q-114 4 -177.5 76.5t-63.5 221.5v386h123v-393q0 -96 37 -144.5t102 -48.5q68 0 104.5 48t36.5 145v393h123v-385q0 -125 -50 -197.5t-139 -91.5q-57 -53 -57 -93q0 -19 12 -29.5t30 -10.5
q23 0 44 9z" />
    <glyph glyph-name="uogonek" unicode="&#x173;" horiz-adv-x="569" 
d="M502 487v-341q0 -68 4 -146l-36 2q-30 -48 -30 -82q0 -24 15 -39t38 -15q24 0 44 8l18 -59q-37 -28 -93 -28q-48 0 -75.5 25t-27.5 73q0 46 40 117l-6 71h-3q-52 -84 -157 -84q-74 0 -121.5 50.5t-47.5 161.5v286h123v-265q0 -133 91 -133q35 0 59.5 19.5t34.5 46.5
q7 14 7 38v294h123z" />
    <glyph glyph-name="Wcircumflex" unicode="&#x174;" horiz-adv-x="869" 
d="M313 0h-133l-165 674h131l64 -306q26 -126 44 -235h2q8 55 49 236l73 305h129l67 -310q31 -155 41 -228h2q14 87 46 234l70 304h125l-182 -674h-131l-70 317q-26 119 -38 214h-2q-17 -108 -44 -214zM391 829h93l103 -119h-92l-56 65h-2l-56 -65h-91z" />
    <glyph glyph-name="wcircumflex" unicode="&#x175;" horiz-adv-x="749" 
d="M14 487h126l50 -221q20 -85 32 -158h2q5 26 39 157l64 222h100l61 -216q24 -93 39 -163h2q7 54 32 163l54 216h121l-153 -487h-114l-58 198q-22 74 -37 156h-2q-14 -78 -37 -156l-62 -198h-115zM332 698h83l98 -148h-85l-53 90h-2l-54 -90h-84z" />
    <glyph glyph-name="Ycircumflex" unicode="&#x176;" horiz-adv-x="575" 
d="M347 0h-123v281l-213 393h141l80 -173q36 -78 59 -134h2q19 50 58 134l81 173h139l-224 -390v-284zM240 829h93l103 -119h-92l-56 65h-2l-56 -65h-91z" />
    <glyph glyph-name="ycircumflex" unicode="&#x177;" horiz-adv-x="500" 
d="M8 487h136l87 -261q16 -49 28 -94h3q19 73 26 95l76 260h131l-122 -332q-50 -135 -88 -205t-81 -108q-62 -53 -129 -62l-28 103q36 8 71 34q42 26 68 77q7 13 7 22q0 10 -6 24zM212 698h83l98 -148h-85l-53 90h-2l-54 -90h-84z" />
    <glyph glyph-name="Ydieresis" unicode="&#x178;" horiz-adv-x="575" 
d="M347 0h-123v281l-213 393h141l80 -173q36 -78 59 -134h2q19 50 58 134l81 173h139l-224 -390v-284zM197 712q-25 0 -42 18t-17 42q0 26 17.5 43.5t42.5 17.5t41.5 -17.5t16.5 -43.5q0 -25 -16.5 -42.5t-42.5 -17.5zM394 712q-25 0 -41.5 17.5t-16.5 42.5q0 26 17 43.5
t43 17.5q25 0 41.5 -17.5t16.5 -43.5q0 -25 -17 -42.5t-43 -17.5z" />
    <glyph glyph-name="Zacute" unicode="&#x179;" horiz-adv-x="566" 
d="M26 0v68l344 501v3h-314v102h474v-72l-340 -497v-3h345v-102h-509zM310 830h136l-125 -120h-99z" />
    <glyph glyph-name="zacute" unicode="&#x17a;" horiz-adv-x="450" 
d="M20 0v71l183 234l71 82v2h-236v98h386v-75l-178 -229q-48 -58 -72 -83v-2h256v-98h-410zM259 698h121l-122 -148h-85z" />
    <glyph glyph-name="Zdotaccent" unicode="&#x17b;" horiz-adv-x="566" 
d="M26 0v68l344 501v3h-314v102h474v-72l-340 -497v-3h345v-102h-509zM286 716q-25 0 -42.5 18t-17.5 42q0 26 18 43.5t44 17.5q25 0 41.5 -17.5t16.5 -43.5q0 -24 -17 -42t-43 -18z" />
    <glyph glyph-name="zdotaccent" unicode="&#x17c;" horiz-adv-x="450" 
d="M20 0v71l183 234l71 82v2h-236v98h386v-75l-178 -229q-48 -58 -72 -83v-2h256v-98h-410zM227 562q-25 0 -43 18t-18 44t18 44t45 18q25 0 42 -18t17 -44t-17 -44t-44 -18z" />
    <glyph glyph-name="Zcaron" unicode="&#x17d;" horiz-adv-x="566" 
d="M26 0v68l344 501v3h-314v102h474v-72l-340 -497v-3h345v-102h-509zM337 710h-92l-103 119h92l57 -66h2l55 66h91z" />
    <glyph glyph-name="zcaron" unicode="&#x17e;" horiz-adv-x="450" 
d="M20 0v71l183 234l71 82v2h-236v98h386v-75l-178 -229q-48 -58 -72 -83v-2h256v-98h-410zM276 550h-84l-98 148h85l54 -91h2l55 91h84z" />
    <glyph glyph-name="florin" unicode="&#x192;" horiz-adv-x="536" 
d="M113 320v87h94l5 39q4 36 14.5 68.5t32 68t62.5 57t96 21.5q50 -2 76 -16l-20 -87q-25 9 -50 9q-79 0 -91 -112l-6 -48h110v-87h-121l-23 -190q-13 -105 -54 -161.5t-133 -56.5q-56 1 -85 16l19 87q23 -10 51 -10q41 1 59.5 33.5t28.5 115.5l19 166h-84z" />
    <glyph glyph-name="Ohorn" unicode="&#x1a0;" horiz-adv-x="704" 
d="M352 88q87 0 137 71.5t50 180.5q0 102 -49 174.5t-137 72.5t-137.5 -72.5t-49.5 -178.5q0 -105 50 -176.5t136 -71.5zM597 743l90 16q21 -46 21 -93q0 -46 -26.5 -74t-78.5 -27q66 -89 66 -221q0 -166 -90 -260.5t-233 -94.5q-140 0 -225 96.5t-85 246.5q0 156 89 255
t231 99q62 0 115 -19q10 -3 32.5 -13t40.5 -16t31 -6q41 0 41 42q0 31 -19 69z" />
    <glyph glyph-name="ohorn" unicode="&#x1a1;" horiz-adv-x="573" 
d="M283 409q-60 0 -90.5 -49t-30.5 -117q0 -72 33 -118.5t88 -46.5q53 0 86 46.5t33 120.5q0 66 -30 115t-89 49zM474 561l89 15q20 -42 20 -85t-25 -69t-70 -27q41 -60 41 -147q0 -126 -74 -192.5t-176 -66.5q-106 0 -175 68t-69 183q0 118 70 188t182 70q42 0 86 -13
q8 -3 25 -10.5t31.5 -12t26.5 -4.5q37 0 37 38q0 30 -19 65z" />
    <glyph glyph-name="Uhorn" unicode="&#x1af;" horiz-adv-x="705" 
d="M603 775l89 15q20 -44 20 -85q0 -42 -25.5 -68t-74.5 -30l-16 -1v-317q0 -151 -71.5 -225.5t-197.5 -74.5q-122 0 -189.5 72.5t-67.5 226.5v386h123v-393q0 -96 37 -144.5t101 -48.5q142 0 142 193v393h99q28 0 38.5 9.5t10.5 29.5q0 32 -18 62z" />
    <glyph glyph-name="uhorn" unicode="&#x1b0;" horiz-adv-x="569" 
d="M491 589l89 15q20 -38 20 -82q0 -41 -25 -66t-64 -28l-9 -1v-281q0 -66 4 -146h-107l-6 74h-3q-52 -85 -157 -85q-74 0 -121.5 50.5t-47.5 161.5v286h123v-265q0 -132 91 -133q35 0 59.5 19.5t34.5 46.5q7 14 7 38v294h82q50 0 50 40q0 29 -20 62z" />
    <glyph glyph-name="Aringacute" unicode="&#x1fa;" horiz-adv-x="636" 
d="M321 692q-45 0 -72.5 24t-27.5 60t27 60.5t74 24.5t73 -24t26 -61t-27 -60.5t-73 -23.5zM320 737q21 0 33 10.5t12 28.5t-12.5 30t-33.5 12q-19 0 -30.5 -12.5t-11.5 -29.5q0 -16 12 -27.5t31 -11.5zM365 969h143l-146 -90h-105zM420 191h-214l-58 -191h-127l216 674h157
l219 -674h-132zM226 284h174l-54 166q-9 28 -34 126h-2l-14 -55l-18 -71z" />
    <glyph glyph-name="aringacute" unicode="&#x1fb;" horiz-adv-x="508" 
d="M305 849h121l-145 -111h-86zM444 292v-175q0 -75 7 -117h-111l-8 54h-3q-51 -65 -144 -65q-70 0 -111.5 43t-41.5 102q0 90 76 137.5t213 46.5v8q0 33 -21 59t-79 26q-73 0 -130 -36l-25 80q72 43 177 43q108 0 154.5 -57.5t46.5 -148.5zM324 171v67q-170 2 -170 -91
q0 -34 19.5 -52t50.5 -18q35 0 61 19.5t36 47.5q3 9 3 27zM254 523q-49 0 -79 27t-30 67q0 42 29.5 69.5t80.5 27.5q49 0 77.5 -27t28.5 -70q0 -41 -29.5 -67.5t-77.5 -26.5zM253 567q22 0 35.5 14.5t13.5 36.5t-13.5 37t-36.5 15q-22 0 -34 -15.5t-12 -37.5q0 -20 13 -35
t34 -15z" />
    <glyph glyph-name="AEacute" unicode="&#x1fc;" horiz-adv-x="832" 
d="M128 0h-127l296 674h472v-101h-280l21 -176h253v-100h-238l25 -196h252v-101h-358l-26 208h-201zM255 307h149l-21 177q-9 69 -12 103h-4q-16 -47 -38 -102zM484 830h136l-125 -120h-99z" />
    <glyph glyph-name="aeacute" unicode="&#x1fd;" horiz-adv-x="790" 
d="M754 216h-316q0 -63 39 -99t103 -36q70 0 134 27l19 -84q-69 -35 -170 -35q-63 0 -113 25t-72 71h-3q-57 -96 -182 -96q-75 0 -118 42.5t-43 103.5q0 86 77 132.5t214 45.5v17q0 9 -4 20.5t-14 26t-32 24.5t-53 10q-70 0 -128 -37l-25 79q76 45 163 45q119 0 159 -89h3
q57 89 167 89q52 0 92.5 -22t62.5 -57.5t32.5 -75t10.5 -79.5q0 -15 -3 -48zM326 175v60q-173 2 -173 -91q0 -31 20.5 -49t51.5 -18q36 0 60.5 18.5t35.5 46.5q5 12 5 33zM437 301h205q1 40 -22 77t-75 37q-50 0 -78 -36.5t-30 -77.5zM421 698h120l-122 -148h-85z" />
    <glyph glyph-name="Oslashacute" unicode="&#x1fe;" horiz-adv-x="704" 
d="M136 -56l-68 54l59 86q-91 97 -91 252q0 153 89.5 251.5t229.5 98.5q92 0 157 -45l57 81l71 -48l-58 -85q87 -95 87 -247q0 -165 -89.5 -259t-226.5 -94q-87 0 -156 43zM198 189l256 365q-45 35 -100 35q-91 0 -142.5 -71.5t-51.5 -179.5q0 -79 36 -149h2zM509 482
l-254 -361q40 -35 98 -35q89 0 140.5 71.5t51.5 182.5q0 77 -33 142h-3zM379 836h136l-125 -120h-99z" />
    <glyph glyph-name="oslashacute" unicode="&#x1ff;" horiz-adv-x="564" 
d="M284 498q66 0 120 -30l44 65l47 -33l-44 -64q78 -70 78 -190q0 -124 -73 -190.5t-173 -66.5q-69 0 -120 29l-46 -66l-45 36l43 62q-80 69 -80 192q0 116 69.5 186t179.5 70zM182 145l168 241q-28 23 -69 23q-64 0 -95.5 -50t-31.5 -116q0 -58 25 -98h3zM384 339
l-168 -238q24 -23 65 -23q59 0 94 46t35 119q0 55 -24 95zM308 698h121l-122 -148h-85z" />
    <glyph glyph-name="Scommaaccent" unicode="&#x218;" horiz-adv-x="519" 
d="M41 32l28 102q73 -43 163 -43q58 0 90 25t32 67q0 38 -27.5 63t-91.5 49q-183 65 -183 196q0 85 65.5 139.5t173.5 54.5q95 0 161 -34l-29 -99q-62 32 -135 32q-55 0 -83 -24t-28 -57q0 -37 28.5 -60t100.5 -51q89 -34 131 -81t42 -119q0 -87 -65.5 -145t-189.5 -58
q-52 0 -103 12.5t-80 30.5zM193 -233l-20 54q30 5 50 21.5t20 41.5q0 29 -31 60l87 16q39 -27 39 -77q0 -55 -41.5 -84.5t-103.5 -31.5z" />
    <glyph glyph-name="scommaaccent" unicode="&#x219;" horiz-adv-x="417" 
d="M36 24l25 90q57 -36 124 -36q78 0 78 55q0 24 -17 39t-63 32q-134 45 -134 142q0 66 50.5 109t133.5 43q77 0 130 -29l-25 -86q-47 28 -103 28q-32 0 -50 -14.5t-18 -37.5q0 -22 18 -36t67 -32q67 -23 98 -58.5t32 -89.5q0 -69 -52 -111t-146 -42q-87 0 -148 34z
M141 -233l-20 54q30 5 50 21t20 42q0 29 -31 60l87 16q39 -27 39 -77q0 -55 -41.5 -84.5t-103.5 -31.5z" />
    <glyph glyph-name="uni021A" unicode="&#x21a;" horiz-adv-x="525" 
d="M200 0v571h-192v103h509v-103h-194v-571h-123zM187 -233l-20 54q30 5 50 21.5t20 41.5q0 29 -31 60l87 16q39 -27 39 -77q0 -55 -41.5 -84.5t-103.5 -31.5z" />
    <glyph glyph-name="uni021B" unicode="&#x21b;" horiz-adv-x="351" 
d="M86 578l121 34v-125h117v-92h-117v-215q0 -46 14.5 -68t48.5 -22q30 0 48 5l2 -93q-33 -13 -89 -13q-69 0 -106 40q-39 40 -39 137v229h-69v92h69v91zM124 -236l-20 54q30 5 50 21t20 42q0 29 -31 60l87 16q39 -27 39 -77q0 -55 -41.5 -84.5t-103.5 -31.5z" />
    <glyph glyph-name="uni021C" unicode="&#x21c;" horiz-adv-x="512" 
d="M70 -121l-15 95q67 8 131 34t110 72t46 99q0 47 -34 79.5t-96 32.5q-47 0 -98 -17l-15 84q82 17 138.5 58t55.5 94q0 35 -27.5 57t-71.5 23q-68 0 -135 -36l-25 82q83 50 186 50q87 0 141.5 -42t54.5 -111q0 -53 -33.5 -95.5t-87.5 -67.5v-2q77 -9 127.5 -57t49.5 -125
q0 -122 -114 -208t-288 -99z" />
    <glyph glyph-name="uni021D" unicode="&#x21d;" horiz-adv-x="453" 
d="M48 -209l-13 94q27 1 63 8t85 23t82 51t33 82q0 39 -27.5 66t-86.5 27q-33 0 -87 -16l-16 85q176 40 176 122q0 33 -24.5 51.5t-68.5 18.5q-52 0 -121 -36l-24 80q77 51 177 51q83 0 132 -38t49 -103q0 -92 -104 -136v-2q70 -9 111 -51t41 -106q0 -112 -106 -187.5
t-271 -83.5z" />
    <glyph glyph-name="uni0232" unicode="&#x232;" horiz-adv-x="575" 
d="M347 0h-123v281l-213 393h141l80 -173q36 -78 59 -134h2q19 50 58 134l81 173h139l-224 -390v-284zM163 803h250v-69h-250v69z" />
    <glyph glyph-name="uni0233" unicode="&#x233;" horiz-adv-x="500" 
d="M8 487h136l87 -261q16 -49 28 -94h3q19 73 26 95l76 260h131l-122 -332q-50 -135 -88 -205t-81 -108q-62 -53 -129 -62l-28 103q36 8 71 34q42 26 68 77q7 13 7 22q0 10 -6 24zM131 655h239v-71h-239v71z" />
    <glyph glyph-name="circumflex" unicode="&#x2c6;" 
d="M108 698h83l98 -148h-85l-53 90h-2l-54 -90h-84z" />
    <glyph glyph-name="caron" unicode="&#x2c7;" 
d="M193 550h-85l-98 148h85l54 -91h2l55 91h84z" />
    <glyph glyph-name="uni02C9" unicode="&#x2c9;" 
d="M31 655h239v-71h-239v71z" />
    <glyph glyph-name="breve" unicode="&#x2d8;" 
d="M18 688h67q4 -30 20.5 -47.5t43.5 -17.5q31 0 47.5 19t18.5 46h67q-1 -61 -36 -98t-96 -37q-65 0 -98 38t-34 97z" />
    <glyph glyph-name="dotaccent" unicode="&#x2d9;" 
d="M129 562q-25 0 -43 18t-18 44t18 44t45 18q25 0 42 -18t17 -44t-17 -44t-44 -18z" />
    <glyph glyph-name="ring" unicode="&#x2da;" 
d="M142 538q-49 0 -79 27t-30 67q0 43 29.5 70.5t80.5 27.5q49 0 78 -27t29 -70q0 -41 -30 -68t-78 -27zM141 582q22 0 35.5 15t13.5 37t-13.5 37t-35.5 15q-21 0 -34 -15.5t-13 -37.5q0 -20 13 -35.5t34 -15.5z" />
    <glyph glyph-name="ogonek" unicode="&#x2db;" 
d="M100 3h70q-37 -55 -37 -85q0 -23 14 -37.5t38 -14.5q25 0 45 9l18 -60q-35 -28 -92 -28q-48 0 -76 25t-28 73q0 59 48 118z" />
    <glyph glyph-name="tilde" unicode="&#x2dc;" 
d="M77 562h-61q-2 56 18.5 87.5t57.5 31.5q22 0 64 -21q32 -18 42 -18q13 0 19.5 9.5t7.5 33.5h60q3 -116 -76 -116q-26 0 -66 21q-29 17 -41 17q-22 0 -25 -45z" />
    <glyph glyph-name="hungarumlaut" unicode="&#x2dd;" 
d="M88 697h105l-103 -143h-72zM249 697h104l-103 -143h-72z" />
    <glyph glyph-name="uni037E" unicode="&#x37e;" horiz-adv-x="250" 
d="M109 -113l-83 -8q39 149 49 260l128 5q-34 -136 -94 -257zM133 302q-35 0 -57 23.5t-22 59.5t22.5 59.5t57.5 23.5q36 0 58 -23t22 -60q0 -36 -22.5 -59.5t-58.5 -23.5z" />
    <glyph glyph-name="tonos" unicode="&#x384;" horiz-adv-x="302" 
d="M132 698h114l-82 -148h-81z" />
    <glyph glyph-name="dieresistonos" unicode="&#x385;" horiz-adv-x="395" 
d="M168 721h95l-52 -167h-65zM60 568q-23 0 -39 16.5t-16 39.5q0 24 16.5 40t40.5 16q23 0 38 -16t15 -40q0 -23 -15.5 -39.5t-39.5 -16.5zM331 568q-23 0 -38.5 16.5t-15.5 39.5q0 24 16 40t39 16q24 0 39.5 -16t15.5 -40q0 -23 -16 -39.5t-40 -16.5z" />
    <glyph glyph-name="Alphatonos" unicode="&#x386;" horiz-adv-x="642" 
d="M426 191h-215l-57 -191h-127l216 674h157l219 -674h-133zM232 284h173l-53 166q-9 28 -34 126h-2l-14 -55l-18 -71zM43 674h103l-36 -165h-71z" />
    <glyph glyph-name="anoteleia" unicode="&#x387;" horiz-adv-x="250" 
d="M124 231q-36 0 -59 24.5t-23 61.5t23.5 61.5t59.5 24.5q37 0 59.5 -24t23.5 -62q0 -37 -23 -61.5t-61 -24.5z" />
    <glyph glyph-name="Epsilontonos" unicode="&#x388;" horiz-adv-x="606" 
d="M539 399v-100h-254v-198h284v-101h-408v674h393v-101h-269v-174h254zM5 674h102l-36 -165h-71z" />
    <glyph glyph-name="Etatonos" unicode="&#x389;" horiz-adv-x="763" 
d="M161 674h123v-270h285v270h123v-674h-123v297h-285v-297h-123v674zM4 674h103l-36 -165h-71z" />
    <glyph glyph-name="Iotatonos" unicode="&#x38a;" horiz-adv-x="355" 
d="M161 674h124v-674h-124v674zM5 674h102l-36 -165h-71z" />
    <glyph glyph-name="Omicrontonos" unicode="&#x38c;" horiz-adv-x="763" 
d="M405 -11q-141 0 -226 96.5t-85 246.5q0 156 89.5 255t231.5 99q144 0 228.5 -96.5t84.5 -245.5q0 -166 -90 -260.5t-233 -94.5zM411 88q87 0 137 71t50 181q0 102 -49 174.5t-137 72.5t-138 -72.5t-50 -178.5q0 -105 50.5 -176.5t136.5 -71.5zM4 674h103l-36 -165h-71z
" />
    <glyph glyph-name="Upsilontonos" unicode="&#x38e;" horiz-adv-x="746" 
d="M145 579l20 101q43 -2 94 -25.5t88 -64.5q79 -89 94 -231h6q19 131 105 226q36 40 83 66t84 29l20 -103q-69 -22 -132.5 -98t-90.5 -183q-18 -70 -18 -138v-158h-123v159q0 68 -12 134q-25 120 -82 195t-136 91zM4 674h103l-36 -165h-71z" />
    <glyph glyph-name="Omegatonos" unicode="&#x38f;" horiz-adv-x="782" 
d="M610 98v-3h140v-95h-277v74q137 98 137 277q0 95 -51 165.5t-138 70.5q-88 0 -141 -69.5t-53 -167.5q0 -90 39.5 -165t98.5 -111v-74h-279v95h139v3q-53 43 -89.5 111.5t-36.5 154.5q0 138 91.5 230t233.5 92q143 0 228 -91t85 -221q0 -170 -127 -276zM4 674h103
l-36 -165h-71z" />
    <glyph glyph-name="iotadieresistonos" unicode="&#x390;" horiz-adv-x="260" 
d="M190 487v-351q0 -30 10.5 -42t35.5 -11l-6 -86q-18 -8 -53 -8q-54 0 -82 29.5t-28 105.5v363h123zM109 708h95l-53 -165h-63zM2 557q-23 0 -39 16t-16 39t16.5 39t39.5 16t38 -15.5t15 -39.5q0 -23 -15.5 -39t-38.5 -16zM272 557q-23 0 -38.5 16t-15.5 39t16 39t39 16
t38.5 -15.5t15.5 -39.5q0 -23 -15.5 -39t-39.5 -16z" />
    <glyph glyph-name="Alpha" unicode="&#x391;" horiz-adv-x="636" 
d="M419 191h-213l-58 -191h-127l216 674h157l219 -674h-133zM226 284h173l-53 166q-9 28 -34 126h-2l-14 -55l-18 -71z" />
    <glyph glyph-name="Beta" unicode="&#x392;" horiz-adv-x="576" 
d="M71 2v662q73 15 180 15q130 0 192 -43q70 -42 70 -127q0 -48 -29 -86.5t-83 -58.5v-3q58 -15 97 -58t39 -108q0 -84 -64 -140q-73 -62 -251 -62q-79 0 -151 9zM193 583v-185h63q63 0 98 26.5t35 70.5q0 93 -126 93q-48 0 -70 -5zM193 309v-220q16 -3 65 -3q66 0 108 27
t42 85q0 56 -42.5 83.5t-111.5 27.5h-61z" />
    <glyph glyph-name="Gamma" unicode="&#x393;" horiz-adv-x="468" 
d="M71 674h387v-103h-264v-571h-123v674z" />
    <glyph glyph-name="uni0394" unicode="&#x394;" horiz-adv-x="636" 
d="M20 0v64l225 610h146l221 -609v-65h-592zM153 101h319l-114 322q-33 102 -45 148h-3q-16 -60 -41 -137z" />
    <glyph glyph-name="Epsilon" unicode="&#x395;" horiz-adv-x="515" 
d="M448 399v-100h-254v-198h284v-101h-407v674h392v-101h-269v-174h254z" />
    <glyph glyph-name="Zeta" unicode="&#x396;" horiz-adv-x="566" 
d="M26 0v68l344 501v3h-314v102h474v-72l-340 -497v-3h345v-102h-509z" />
    <glyph glyph-name="Eta" unicode="&#x397;" horiz-adv-x="672" 
d="M71 674h123v-270h285v270h123v-674h-123v297h-285v-297h-123v674z" />
    <glyph glyph-name="Theta" unicode="&#x398;" horiz-adv-x="706" 
d="M347 -11q-141 0 -226.5 96t-85.5 247q0 156 89.5 255t232.5 99q144 0 229 -96.5t85 -245.5q0 -166 -90.5 -260.5t-233.5 -94.5zM353 87q87 0 137.5 71.5t50.5 180.5q0 103 -49.5 176t-137.5 73q-89 0 -139 -73t-50 -180q0 -105 51 -176.5t137 -71.5zM234 395h237v-100
h-237v100z" />
    <glyph glyph-name="Iota" unicode="&#x399;" horiz-adv-x="264" 
d="M71 674h123v-674h-123v674z" />
    <glyph glyph-name="Kappa" unicode="&#x39a;" horiz-adv-x="582" 
d="M71 0v674h122v-310h3q14 22 49 73l177 237h151l-232 -287l247 -387h-144l-190 309l-61 -72v-237h-122z" />
    <glyph glyph-name="Lambda" unicode="&#x39b;" horiz-adv-x="630" 
d="M614 0h-134l-134 431q-16 58 -34 137h-3q-27 -123 -31 -137l-128 -431h-129l216 674h156z" />
    <glyph glyph-name="Mu" unicode="&#x39c;" horiz-adv-x="827" 
d="M653 0l-13 275q-9 195 -8 283h-3q-35 -131 -80 -258l-99 -292h-94l-90 288q-41 135 -68 262h-2q-6 -178 -12 -287l-15 -271h-115l45 674h162l88 -271q35 -116 62 -234h3q31 125 67 235l93 270h160l39 -674h-120z" />
    <glyph glyph-name="Nu" unicode="&#x39d;" horiz-adv-x="676" 
d="M184 0h-114v674h141l174 -289q69 -117 115 -226h2q-11 110 -11 280v235h114v-674h-128l-176 297q-76 131 -120 232l-4 -1q7 -122 7 -287v-241z" />
    <glyph glyph-name="Xi" unicode="&#x39e;" horiz-adv-x="559" 
d="M56 674h454v-100h-454v100zM88 397h390v-100h-390v100zM43 101h480v-101h-480v101z" />
    <glyph glyph-name="Omicron" unicode="&#x39f;" horiz-adv-x="704" 
d="M347 -11q-141 0 -226 96.5t-85 246.5q0 156 89.5 255t231.5 99q144 0 228 -96.5t84 -245.5q0 -166 -90 -260.5t-232 -94.5zM353 88q87 0 136.5 71.5t49.5 180.5q0 102 -49 174.5t-137 72.5t-137.5 -72.5t-49.5 -178.5q0 -105 50.5 -176.5t136.5 -71.5z" />
    <glyph glyph-name="Pi" unicode="&#x3a0;" horiz-adv-x="652" 
d="M581 674v-674h-123v570h-264v-570h-123v674h510z" />
    <glyph glyph-name="Rho" unicode="&#x3a1;" horiz-adv-x="559" 
d="M71 0v665q79 14 188 14q132 0 198 -55q66 -54 66 -149q0 -97 -57 -152q-74 -73 -213 -73q-39 0 -60 5v-255h-122zM193 578v-226q19 -6 60 -6q69 0 108.5 33t39.5 91q0 55 -36 84.5t-101 29.5q-45 0 -71 -6z" />
    <glyph glyph-name="Sigma" unicode="&#x3a3;" horiz-adv-x="566" 
d="M186 105v-4h349v-101h-507v71l215 263l-203 259v81h467v-101h-310v-4l180 -230z" />
    <glyph glyph-name="Tau" unicode="&#x3a4;" horiz-adv-x="525" 
d="M200 0v571h-192v103h509v-103h-194v-571h-123z" />
    <glyph glyph-name="Upsilon" unicode="&#x3a5;" horiz-adv-x="609" 
d="M9 579l20 101q43 -2 94 -25.5t88 -64.5q79 -89 94 -231h6q19 131 105 226q36 40 83 66t84 29l20 -103q-69 -22 -132.5 -98t-90.5 -183q-18 -70 -18 -138v-158h-123v159q0 68 -12 134q-25 120 -82 195t-136 91z" />
    <glyph glyph-name="Phi" unicode="&#x3a6;" horiz-adv-x="755" 
d="M434 27v-54h-116v54q-55 6 -104 27t-90.5 57.5t-65.5 94t-24 128.5q0 73 26 132.5t69 97t91.5 59.5t99.5 27v51h116v-51q117 -12 200.5 -92.5t83.5 -218.5q0 -71 -24 -128.5t-64.5 -95t-91 -60t-106.5 -28.5zM319 114v450q-62 -9 -111 -68.5t-49 -160.5q0 -93 47.5 -152
t112.5 -69zM435 564v-450q65 8 112.5 65.5t47.5 156.5q0 102 -47.5 161t-112.5 67z" />
    <glyph glyph-name="Chi" unicode="&#x3a7;" horiz-adv-x="594" 
d="M574 0h-143l-72 134l-68 127h-2q-19 -45 -61 -127l-67 -134h-141l200 341l-193 333h142l73 -139q30 -58 55 -113h3q25 58 53 113l72 139h141l-197 -329z" />
    <glyph glyph-name="Psi" unicode="&#x3a8;" horiz-adv-x="717" 
d="M674 674v-195q0 -136 -71 -207t-187 -78v-194h-114v194q-112 6 -185 68t-73 187v225h119v-205q0 -93 36.5 -134.5t102.5 -45.5v385h114v-386q139 9 139 207v179h119z" />
    <glyph glyph-name="uni03A9" unicode="&#x3a9;" horiz-adv-x="727" 
d="M555 98v-3h140v-95h-277v74q60 43 98.5 115t38.5 163q0 95 -51 165t-138 70q-88 0 -141 -69.5t-53 -166.5q0 -86 40 -163.5t98 -113.5v-74h-278v95h138v3q-53 43 -89.5 112t-36.5 154q0 139 91.5 230.5t233.5 91.5q143 0 228 -90.5t85 -221.5q0 -166 -127 -276z" />
    <glyph glyph-name="Iotadieresis" unicode="&#x3aa;" horiz-adv-x="264" 
d="M34 713q-25 0 -42 18t-17 42q0 26 17.5 43t43.5 17q24 0 40.5 -17.5t16.5 -42.5t-16.5 -42.5t-42.5 -17.5zM229 713q-25 0 -41.5 17.5t-16.5 42.5q0 26 17 43t43 17q25 0 41.5 -17t16.5 -43q0 -25 -17 -42.5t-43 -17.5zM71 674h123v-674h-123v674z" />
    <glyph glyph-name="Upsilondieresis" unicode="&#x3ab;" horiz-adv-x="609" 
d="M210 697q-25 0 -42 18t-17 42q0 26 17.5 43t43.5 17q24 0 40.5 -17.5t16.5 -42.5t-16.5 -42.5t-42.5 -17.5zM405 697q-25 0 -41.5 17.5t-16.5 42.5q0 26 17 43t43 17q25 0 41.5 -17t16.5 -43q0 -25 -17 -42.5t-43 -17.5zM10 579l19 101q43 -2 94 -25.5t88 -64.5
q79 -89 94 -231h6q19 131 105 226q36 40 83 66t84 29l20 -103q-69 -22 -132.5 -98t-90.5 -183q-18 -70 -18 -138v-158h-123v159q0 68 -12 134q-25 120 -82 195t-135 91z" />
    <glyph glyph-name="alphatonos" unicode="&#x3ac;" horiz-adv-x="569" 
d="M286 694h114l-82 -148h-81zM409 487h103q-13 -141 -13 -331q0 -76 46 -74l-7 -87q-16 -6 -43 -6q-82 0 -95 95h-3q-53 -95 -161 -95q-87 0 -144 67.5t-57 177.5q0 116 66 190t154 74q99 0 140 -85h4q1 13 10 74zM160 238q0 -63 30 -107t79 -44q38 0 68 31t40 74
q4 25 4 57t-3 47q-8 46 -36 76.5t-67 30.5q-51 0 -83 -47t-32 -118z" />
    <glyph glyph-name="epsilontonos" unicode="&#x3ad;" horiz-adv-x="455" 
d="M251 694h113l-82 -148h-81zM149 257v5q-88 23 -90 102q0 54 53.5 94t150.5 40q96 0 156 -37l-23 -79q-48 29 -117 29q-44 0 -70 -16t-26 -42q0 -56 122 -56h53v-82h-53q-137 -2 -137 -64q0 -34 32.5 -52t79.5 -18q75 0 137 33l18 -81q-68 -44 -185 -44q-88 0 -151 36.5
t-63 112.5q0 44 32 77t81 42z" />
    <glyph glyph-name="etatonos" unicode="&#x3ae;" horiz-adv-x="572" 
d="M294 694h114l-82 -148h-81zM175 414h3q19 34 59.5 59t96.5 25q72 0 122.5 -51t50.5 -158v-311q0 -137 10 -176h-117q-16 33 -16 175v298q0 56 -22.5 89.5t-70.5 33.5q-35 0 -60 -21t-36 -51q-6 -15 -6 -39v-287h-123v342q0 100 -15 145h109q15 -28 15 -73z" />
    <glyph glyph-name="iotatonos" unicode="&#x3af;" horiz-adv-x="260" 
d="M131 694h115l-82 -148h-82zM189 487v-351q0 -30 10.5 -42t35.5 -11l-6 -86q-18 -8 -53 -8q-54 0 -82 29.5t-28 105.5v363h123z" />
    <glyph glyph-name="upsilondieresistonos" unicode="&#x3b0;" horiz-adv-x="543" 
d="M349 487h115q37 -72 37 -188q0 -60 -12 -112t-37.5 -98t-73.5 -73t-114 -27q-91 0 -148 52t-57 152v131q0 126 -11 163h119q15 -18 15 -93v-190q0 -56 26.5 -85.5t65.5 -29.5q53 0 79.5 54.5t26.5 146.5q0 59 -10 115t-21 82zM240 707h95l-52 -165h-64zM133 556
q-23 0 -39 16t-16 39t16.5 39t39.5 16t38 -15.5t15 -39.5q0 -23 -15.5 -39t-38.5 -16zM404 556q-23 0 -38.5 16t-15.5 39t16 39t39 16t38.5 -15.5t15.5 -39.5q0 -23 -15.5 -39t-39.5 -16z" />
    <glyph glyph-name="alpha" unicode="&#x3b1;" horiz-adv-x="568" 
d="M409 487h103q-13 -141 -13 -331q0 -76 46 -74l-7 -87q-16 -6 -43 -6q-82 0 -95 95h-3q-53 -95 -161 -95q-87 0 -144 67.5t-57 177.5q0 116 66 190t154 74q99 0 140 -85h4q1 13 10 74zM160 238q0 -63 30 -107t79 -44q38 0 68 31t40 74q4 25 4 57t-3 47q-8 46 -36 76.5
t-67 30.5q-51 0 -83 -47t-32 -118z" />
    <glyph glyph-name="beta" unicode="&#x3b2;" horiz-adv-x="575" 
d="M185 41h-2v-62q0 -128 12 -177h-114q-17 39 -17 171v449q0 170 77 243q61 56 154 56q84 0 136 -50.5t52 -127.5q0 -49 -23.5 -91.5t-60.5 -61.5v-5q59 -13 99.5 -63t40.5 -124q0 -95 -61 -152t-149 -57q-89 0 -144 52zM183 442v-296q45 -64 117 -64q52 0 83.5 34.5
t31.5 84.5q0 59 -36.5 92.5t-93.5 36.5h-24v78q5 0 17 2q44 5 68.5 37t24.5 76q0 46 -23.5 74t-61.5 28q-103 0 -103 -183z" />
    <glyph glyph-name="gamma" unicode="&#x3b3;" horiz-adv-x="492" 
d="M297 -198h-120q6 178 -16 281q-45 206 -170 404h137q33 -49 72 -151t59 -202h4q91 184 91 314q0 29 -1 39h117q2 -9 2 -36q0 -176 -172 -429q-6 -8 -6 -24q0 -3 3 -196z" />
    <glyph glyph-name="delta" unicode="&#x3b4;" horiz-adv-x="562" 
d="M485 672l-33 -78q-19 13 -55.5 25.5t-72.5 12.5q-67 0 -67 -35q0 -14 13.5 -27.5t49.5 -41.5l82 -66q124 -97 124 -223q0 -112 -71 -181t-176 -69q-104 0 -174 66t-70 176q0 85 49 146t124 97v5l-20 17q-58 50 -58 101q0 49 49.5 86.5t135.5 37.5q53 0 99 -14.5t71 -34.5
zM326 377l-49 40q-116 -65 -116 -184q0 -67 36.5 -111t88.5 -44q50 0 83.5 41t33.5 109q0 86 -77 149z" />
    <glyph glyph-name="epsilon" unicode="&#x3b5;" horiz-adv-x="455" 
d="M149 257v5q-88 23 -90 102q0 54 53.5 94t150.5 40q100 0 156 -37l-23 -79q-48 29 -117 29q-44 0 -70 -16t-26 -42q0 -56 122 -56h53v-82h-53q-137 -2 -137 -64q0 -34 32.5 -52t79.5 -18q75 0 137 33l18 -81q-68 -44 -185 -44q-88 0 -151 36.5t-63 112.5q0 44 32 77t81 42
z" />
    <glyph glyph-name="zeta" unicode="&#x3b6;" horiz-adv-x="427" 
d="M352 -148l-78 24q9 18 18.5 52t10.5 52q-67 11 -114 28q-152 54 -152 220q0 101 59 205.5t162 180.5v5h-58q-81 0 -114 13l12 79q32 -4 132 -4h177l18 -82q-110 -53 -186 -160.5t-76 -213.5q0 -64 26 -100.5t76 -56.5q45 -20 144 -34q10 -2 10 -12q0 -46 -20.5 -104.5
t-46.5 -91.5z" />
    <glyph glyph-name="eta" unicode="&#x3b7;" horiz-adv-x="572" 
d="M175 414h3q19 34 59.5 59t96.5 25q72 0 122.5 -51t50.5 -158v-311q0 -137 10 -176h-117q-16 33 -16 175v298q0 56 -22.5 89.5t-70.5 33.5q-35 0 -60 -21t-36 -51q-6 -15 -6 -39v-287h-123v342q0 100 -15 145h109q15 -28 15 -73z" />
    <glyph glyph-name="theta" unicode="&#x3b8;" horiz-adv-x="554" 
d="M276 -11q-114 0 -177.5 95t-63.5 276q0 160 65 260.5t183 100.5t177 -97t59 -264q0 -174 -61 -272.5t-182 -98.5zM156 408h241q0 99 -31 162.5t-89 63.5q-56 0 -88.5 -65t-32.5 -161zM398 319h-241q0 -114 33 -178.5t90 -64.5q59 0 88.5 65.5t29.5 177.5z" />
    <glyph glyph-name="iota" unicode="&#x3b9;" horiz-adv-x="260" 
d="M189 487v-351q0 -30 10.5 -42t35.5 -11l-6 -86q-18 -8 -53 -8q-54 0 -82 29.5t-28 105.5v363h123z" />
    <glyph glyph-name="kappa" unicode="&#x3ba;" horiz-adv-x="523" 
d="M302 265v-4q55 -13 133 -132l83 -129h-142l-64 100q-69 105 -114 107h-8v-207h-123v371q0 91 -13 116h121q15 -17 15 -85v-124h4q31 33 176 209h141v-5z" />
    <glyph glyph-name="lambda" unicode="&#x3bb;" horiz-adv-x="497" 
d="M357 0l-81 246q-20 64 -30 105h-5q-5 -22 -27 -102l-81 -249h-128l173 449q5 15 5 24q0 13 -6 26q-44 121 -113 121q-13 0 -19 -1l11 94q15 5 42 5q73 0 118 -56t87 -168l185 -494h-131z" />
    <glyph glyph-name="uni03BC" unicode="&#x3bc;" horiz-adv-x="570" 
d="M397 71h-4q-15 -32 -49 -55.5t-80 -23.5q-58 0 -86 40v-50q0 -132 11 -180h-109q-14 38 -14 178v507h123v-280q0 -55 22.5 -87t67.5 -32q33 0 59 20t37 46q6 16 6 39v294h123v-340q0 -35 9.5 -49t33.5 -16l-8 -86q-15 -7 -43 -7q-83 0 -99 82z" />
    <glyph glyph-name="nu" unicode="&#x3bd;" horiz-adv-x="492" 
d="M1 487h132l78 -247q8 -25 20 -68.5t15 -55.5h4q102 209 102 329q0 28 -1 42h116q3 -16 3 -37q0 -93 -47 -202.5t-130 -247.5h-119z" />
    <glyph glyph-name="xi" unicode="&#x3be;" horiz-adv-x="454" 
d="M380 435v-85h-27q-91 0 -139.5 -36.5t-48.5 -95.5q0 -51 34.5 -83t107.5 -51q54 -14 130 -24q11 -2 11 -12q0 -43 -21 -103.5t-47 -91.5l-77 24q8 17 17 50.5t10 52.5q-45 7 -79.5 14.5t-77.5 25t-71 40t-47.5 60.5t-19.5 86q0 70 43.5 123t110.5 71v6q-52 18 -79.5 55
t-27.5 87q0 71 58.5 122t162.5 51q78 0 132 -27l-22 -82q-44 21 -94 21q-54 0 -83.5 -28t-29.5 -69q0 -46 36.5 -71.5t97.5 -28.5q12 -1 40 -1z" />
    <glyph glyph-name="omicron" unicode="&#x3bf;" horiz-adv-x="564" 
d="M279 -11q-106 0 -175 68t-69 183q0 118 70 188t182 70q108 0 175 -69.5t67 -180.5q0 -126 -74 -192.5t-176 -66.5zM283 78q53 0 86 46.5t33 120.5q0 65 -30 114.5t-88 49.5q-61 0 -91.5 -49t-30.5 -117q0 -72 33 -118.5t88 -46.5z" />
    <glyph glyph-name="pi" unicode="&#x3c0;" horiz-adv-x="580" 
d="M547 393h-63v-244q0 -93 12 -149h-118q-16 27 -16 139v254h-129q-2 -97 -20 -217.5t-41 -175.5h-117q24 72 41 188.5t18 204.5q-59 0 -92 -8l-14 72q37 30 158 30h393z" />
    <glyph glyph-name="rho" unicode="&#x3c1;" horiz-adv-x="579" 
d="M187 47h-2v-69q0 -130 7 -176h-119q-11 37 -11 174v223q0 158 83 235q69 64 166 64q105 0 169 -69t64 -181q0 -122 -67 -190.5t-158 -68.5q-90 0 -132 58zM185 232v-39q0 -15 3 -32q10 -32 40 -54.5t68 -22.5q57 0 90 45t33 117q0 66 -31 108.5t-85 42.5q-50 0 -84 -42.5
t-34 -122.5z" />
    <glyph glyph-name="uni03C2" unicode="&#x3c2;" horiz-adv-x="439" 
d="M428 475l-26 -88q-41 17 -88 17q-67 0 -110 -47t-43 -117q0 -113 118 -150q51 -15 136 -29q9 -1 9 -14q0 -46 -20.5 -107t-44.5 -89l-79 25q9 16 18 50t11 53q-55 10 -87 19q-84 24 -135.5 81t-51.5 152q0 108 74 187.5t201 79.5q72 0 118 -23z" />
    <glyph glyph-name="sigma" unicode="&#x3c3;" horiz-adv-x="576" 
d="M445 412l-1 -4q36 -28 56 -73t20 -92q0 -124 -71 -189t-170 -65q-106 0 -175 67.5t-69 181.5q0 119 71 189t190 70h93h66h110l-4 -90q-42 0 -116 5zM282 78q50 0 83 47t33 120q0 65 -29 114t-86 49q-60 0 -90.5 -48.5t-30.5 -116.5q0 -72 33 -118.5t87 -46.5z" />
    <glyph glyph-name="tau" unicode="&#x3c4;" horiz-adv-x="435" 
d="M344 86l-5 -87q-18 -10 -60 -10q-70 0 -100 39.5t-30 123.5v241h-46q-58 0 -95 -7l-16 71q41 30 154 30h279l-13 -94h-140v-235q0 -73 52 -73q16 0 20 1z" />
    <glyph glyph-name="upsilon" unicode="&#x3c5;" horiz-adv-x="543" 
d="M349 487h115q37 -72 37 -188q0 -60 -12 -112t-37.5 -98t-73.5 -73t-114 -27q-91 0 -148 52t-57 152v131q0 126 -11 163h119q15 -18 15 -93v-190q0 -56 26.5 -85.5t65.5 -29.5q53 0 79.5 54.5t26.5 146.5q0 59 -10 115t-21 82z" />
    <glyph glyph-name="phi" unicode="&#x3c6;" horiz-adv-x="680" 
d="M208 500l47 -67q-98 -66 -98 -184q0 -68 34 -115t96 -58v259q0 82 42 122.5t104 38.5q84 -2 147.5 -68.5t63.5 -172.5q0 -117 -73 -186t-173 -79v-188h-111v188q-105 8 -178.5 73t-73.5 184q0 95 54.5 162t118.5 91zM397 358v-283q59 9 94.5 56t35.5 121q0 65 -30 111.5
t-66 46.5q-34 0 -34 -52z" />
    <glyph glyph-name="chi" unicode="&#x3c7;" horiz-adv-x="483" 
d="M11 487h132l108 -239h4q15 39 41 96l64 143h118l-170 -330l173 -349l-116 -28l-129 274l-4 -1l-41 -97l-81 -176l-105 29l173 347z" />
    <glyph glyph-name="psi" unicode="&#x3c8;" horiz-adv-x="694" 
d="M299 -198v187q-238 15 -238 260v119q0 86 -8 119h112q14 -17 14 -93v-135q0 -174 120 -183v538h111v-538q58 2 92 61.5t34 150.5q0 66 -11 121.5t-22 77.5h110q40 -67 40 -191t-59 -211.5t-184 -95.5v-187h-111z" />
    <glyph glyph-name="omega" unicode="&#x3c9;" horiz-adv-x="716" 
d="M415 369l-3 -184q0 -40 17.5 -66.5t46.5 -26.5q35 0 59.5 45t24.5 126q0 67 -20 128t-54 97v3h113q33 -30 57 -92.5t24 -139.5q0 -128 -56 -199t-138 -71q-44 0 -78.5 22t-50.5 59h-4q-41 -81 -130 -81q-77 0 -132.5 66.5t-55.5 192.5q0 78 24.5 142.5t58.5 100.5h112v-3
q-33 -40 -54 -102t-21 -132q0 -80 25.5 -121t58.5 -41q28 0 45.5 27t16.5 66l-2 184h116z" />
    <glyph glyph-name="iotadieresis" unicode="&#x3ca;" horiz-adv-x="260" 
d="M34 552q-26 0 -43 18t-17 43t17.5 42.5t43.5 17.5q25 0 41.5 -17t16.5 -43q0 -25 -16.5 -43t-42.5 -18zM229 552q-25 0 -42 18t-17 43t17 42.5t43 17.5q25 0 42 -17t17 -43q0 -25 -17 -43t-43 -18zM190 487v-351q0 -30 10.5 -42t35.5 -11l-6 -86q-18 -8 -53 -8
q-54 0 -82 29.5t-28 105.5v363h123z" />
    <glyph glyph-name="upsilondieresis" unicode="&#x3cb;" horiz-adv-x="543" 
d="M167 552q-26 0 -43 18t-17 43t17.5 42.5t43.5 17.5q25 0 41.5 -17t16.5 -43q0 -25 -16.5 -43t-42.5 -18zM362 552q-25 0 -42 18t-17 43t17.5 42.5t42.5 17.5t42 -17t17 -43q0 -25 -17 -43t-43 -18zM349 487h115q37 -72 37 -188q0 -60 -12 -112t-37.5 -98t-73.5 -73
t-114 -27q-91 0 -148 52t-57 152v131q0 126 -11 163h119q15 -18 15 -93v-190q0 -56 26.5 -85.5t65.5 -29.5q53 0 79.5 54.5t26.5 146.5q0 59 -10 115t-21 82z" />
    <glyph glyph-name="omicrontonos" unicode="&#x3cc;" horiz-adv-x="564" 
d="M285 694h114l-82 -148h-81zM279 -11q-106 0 -175 68t-69 183q0 118 70 188t182 70q108 0 175 -69.5t67 -180.5q0 -126 -74 -192.5t-176 -66.5zM283 78q53 0 86 46.5t33 120.5q0 65 -30 114.5t-88 49.5q-61 0 -91.5 -49t-30.5 -117q0 -72 33 -118.5t88 -46.5z" />
    <glyph glyph-name="upsilontonos" unicode="&#x3cd;" horiz-adv-x="543" 
d="M269 694h115l-83 -148h-82zM349 487h115q37 -72 37 -188q0 -60 -12 -112t-37.5 -98t-73.5 -73t-114 -27q-91 0 -148 52t-57 152v131q0 126 -11 163h119q15 -18 15 -93v-190q0 -56 26.5 -85.5t65.5 -29.5q53 0 79.5 54.5t26.5 146.5q0 59 -10 115t-21 82z" />
    <glyph glyph-name="omegatonos" unicode="&#x3ce;" horiz-adv-x="716" 
d="M360 694h114l-82 -148h-81zM415 369l-3 -184q0 -40 17.5 -66.5t46.5 -26.5q35 0 59.5 45t24.5 126q0 67 -20 128t-54 97v3h113q33 -30 57 -92.5t24 -139.5q0 -128 -56 -199t-138 -71q-44 0 -78.5 22t-50.5 59h-4q-41 -81 -130 -81q-77 0 -132.5 66.5t-55.5 192.5
q0 78 24.5 142.5t58.5 100.5h112v-3q-33 -40 -54 -102t-21 -132q0 -80 25.5 -121t58.5 -41q28 0 45.5 27t16.5 66l-2 184h116z" />
    <glyph glyph-name="uni0401" unicode="&#x401;" horiz-adv-x="515" 
d="M448 399v-100h-254v-198h284v-101h-407v674h392v-101h-269v-174h254zM165 716q-25 0 -42 18t-17 42q0 26 17.5 43.5t42.5 17.5t41.5 -17.5t16.5 -43.5q0 -25 -16.5 -42.5t-42.5 -17.5zM362 716q-25 0 -41.5 17.5t-16.5 42.5q0 26 17 43.5t43 17.5q25 0 41.5 -17.5
t16.5 -43.5q0 -25 -17 -42.5t-43 -17.5z" />
    <glyph glyph-name="uni0402" unicode="&#x402;" horiz-adv-x="696" 
d="M8 674h541v-102h-238v-155h3q58 34 126 34q104 0 163 -82q56 -73 56 -194q0 -87 -31 -154t-89 -104q-57 -52 -131 -63l-20 99q64 17 98 58q44 54 44 155q0 88 -32 134q-35 50 -95 50q-49 0 -92 -30v-320h-123v572h-180v102z" />
    <glyph glyph-name="uni0403" unicode="&#x403;" horiz-adv-x="464" 
d="M71 674h385v-101h-262v-573h-123v674zM278 830h136l-125 -120h-99z" />
    <glyph glyph-name="uni0404" unicode="&#x404;" horiz-adv-x="587" 
d="M557 652l-27 -95q-58 28 -133 28q-97 0 -157 -55t-72 -140h324v-96h-323q5 -89 68 -146.5t164 -57.5q75 0 133 25l19 -93q-64 -33 -172 -33q-157 0 -251 93t-94 253q0 95 39.5 173t122 127.5t194.5 49.5q99 0 165 -33z" />
    <glyph glyph-name="uni0405" unicode="&#x405;" horiz-adv-x="519" 
d="M41 32l28 102q73 -43 163 -43q58 0 90 25t32 67q0 38 -27.5 63t-91.5 49q-183 65 -183 196q0 85 65.5 139.5t173.5 54.5q95 0 161 -34l-29 -99q-62 32 -135 32q-55 0 -83 -24t-28 -57q0 -37 28.5 -60t100.5 -51q89 -34 131 -81t42 -119q0 -87 -65.5 -145t-189.5 -58
q-52 0 -103 12.5t-80 30.5z" />
    <glyph glyph-name="uni0406" unicode="&#x406;" horiz-adv-x="264" 
d="M71 674h123v-674h-123v674z" />
    <glyph glyph-name="uni0407" unicode="&#x407;" horiz-adv-x="264" 
d="M71 674h123v-674h-123v674zM33 716q-25 0 -42 18t-17 42q0 26 17.5 43.5t42.5 17.5t41.5 -17.5t16.5 -43.5q0 -25 -16.5 -42.5t-42.5 -17.5zM230 716q-25 0 -41.5 17.5t-16.5 42.5q0 26 17 43.5t43 17.5q25 0 41.5 -17.5t16.5 -43.5q0 -25 -17 -42.5t-43 -17.5z" />
    <glyph glyph-name="uni0408" unicode="&#x408;" horiz-adv-x="392" 
d="M205 241v433h123v-437q0 -133 -58 -190.5t-165 -57.5q-61 0 -104 16l15 99q34 -12 76 -12q56 0 84.5 33t28.5 116z" />
    <glyph glyph-name="uni0409" unicode="&#x409;" horiz-adv-x="916" 
d="M124 674h413v-246q35 5 81 5q110 0 185.5 -54.5t75.5 -159.5q0 -92 -61 -150q-81 -76 -253 -76q-86 0 -150 10v570h-171v-180q0 -143 -23 -235t-91 -134q-53 -33 -118 -33l-17 99q46 6 75 37q54 54 54 258v289zM537 336v-246q25 -4 60 -4q65 0 109.5 34t44.5 96
q0 63 -43.5 93.5t-109.5 30.5q-23 0 -61 -4z" />
    <glyph glyph-name="uni040A" unicode="&#x40a;" horiz-adv-x="928" 
d="M71 674h123v-259h232v259h122v-252q37 5 88 5q110 0 182.5 -53t72.5 -155q0 -93 -61 -151q-80 -75 -253 -75q-79 0 -151 9v310h-232v-312h-123v674zM548 331v-241q25 -4 61 -4q66 0 110 33t44 96q0 61 -42 90t-108 29q-11 0 -65 -3z" />
    <glyph glyph-name="uni040B" unicode="&#x40b;" horiz-adv-x="705" 
d="M7 674h532v-102h-230v-161h3q68 43 148 43q82 0 128 -49q52 -55 52 -160v-245h-123v230q0 64 -28 95q-26 29 -74 29q-57 0 -106 -36v-318h-123v572h-179v102z" />
    <glyph glyph-name="uni040C" unicode="&#x40c;" horiz-adv-x="577" 
d="M70 674h122v-289h19l207 289h148l-244 -304q68 -13 106 -54t64 -113q59 -169 76 -203h-132q-8 16 -16.5 37t-13.5 36.5l-13.5 42t-12.5 37.5q-23 70 -58 105.5t-102 35.5h-28v-294h-122v674zM314 825h136l-125 -120h-99z" />
    <glyph glyph-name="uni040E" unicode="&#x40e;" horiz-adv-x="558" 
d="M3 674h139l114 -263q18 -44 48 -124h3l39 126l87 261h130l-133 -339q-78 -196 -130 -263q-69 -86 -167 -86q-41 0 -63 9l9 99q15 -4 43 -4q71 0 109 86q7 15 -2 36zM141 825h87q3 -30 14 -46t38 -16q46 0 53 62h86q-9 -117 -142 -117q-127 0 -136 117z" />
    <glyph glyph-name="uni040F" unicode="&#x40f;" horiz-adv-x="656" 
d="M71 674h123v-573h270v573h123v-674h-200l-7 -179h-102l-7 179h-200v674z" />
    <glyph glyph-name="uni0410" unicode="&#x410;" horiz-adv-x="636" 
d="M419 191h-213l-58 -191h-127l216 674h157l219 -674h-133zM226 284h173l-53 166q-9 28 -34 126h-2l-14 -55l-18 -71z" />
    <glyph glyph-name="uni0411" unicode="&#x411;" horiz-adv-x="578" 
d="M71 674h416v-101h-294v-145q37 5 83 5q111 0 182 -51q82 -55 82 -163q0 -94 -61 -150q-83 -76 -257 -76q-79 0 -151 9v672zM193 336v-246q24 -4 65 -4q74 0 118 42q35 37 35 88q0 59 -45 92q-42 32 -112 32q-21 0 -61 -4z" />
    <glyph glyph-name="uni0412" unicode="&#x412;" horiz-adv-x="576" 
d="M71 2v662q73 15 180 15q130 0 192 -43q70 -42 70 -127q0 -48 -29 -86.5t-83 -58.5v-3q58 -15 97 -58t39 -108q0 -84 -64 -140q-73 -62 -251 -62q-79 0 -151 9zM193 583v-185h63q63 0 98 26.5t35 70.5q0 93 -126 93q-48 0 -70 -5zM193 309v-220q16 -3 65 -3q66 0 108 27
t42 85q0 56 -42.5 83.5t-111.5 27.5h-61z" />
    <glyph glyph-name="uni0413" unicode="&#x413;" horiz-adv-x="464" 
d="M71 674h385v-101h-262v-573h-123v674z" />
    <glyph glyph-name="uni0414" unicode="&#x414;" horiz-adv-x="662" 
d="M160 674h412v-576l64 -3l-7 -262h-94l-7 167h-409l-7 -167h-94l-6 262l54 3q47 85 65 149q29 99 29 251v176zM274 573v-106q0 -143 -32 -246q-18 -62 -50 -120h257v472h-175z" />
    <glyph glyph-name="uni0415" unicode="&#x415;" horiz-adv-x="515" 
d="M448 399v-100h-254v-198h284v-101h-407v674h392v-101h-269v-174h254z" />
    <glyph glyph-name="uni0416" unicode="&#x416;" horiz-adv-x="842" 
d="M12 674h143l187 -289h19v289h119v-289h19l187 289h143l-234 -305q69 -8 107.5 -50t64.5 -118q3 -8 27 -85.5t41 -115.5h-125q-10 20 -18.5 45t-19 61t-13.5 47q-22 70 -55 105.5t-98 35.5h-26v-294h-119v294h-27q-65 0 -97 -35t-56 -106q-3 -11 -13.5 -47t-19 -61
t-18.5 -45h-124q13 29 24.5 62t24.5 74.5t20 61.5q26 75 64.5 117.5t106.5 53.5z" />
    <glyph glyph-name="uni0417" unicode="&#x417;" horiz-adv-x="520" 
d="M76 545l-30 88q84 53 195 53q100 0 159 -46.5t59 -122.5q0 -61 -38 -104.5t-99 -57.5v-2q69 -9 114.5 -52.5t46.5 -111.5q0 -52 -23 -92t-62 -63t-83.5 -34t-93.5 -11q-112 0 -191 46l28 95q77 -41 158 -41q65 0 101.5 29t36.5 78q0 40 -26 65.5t-59.5 33.5t-75.5 8h-53
v92h53q59 0 98.5 29t39.5 74q0 41 -29.5 64.5t-81.5 23.5q-68 0 -144 -41z" />
    <glyph glyph-name="uni0418" unicode="&#x418;" horiz-adv-x="675" 
d="M71 674h114v-238q0 -176 -8 -296l3 -1q50 109 122 233l178 302h125v-674h-114v238q0 171 10 280h-3q-42 -101 -119 -233l-171 -285h-137v674z" />
    <glyph glyph-name="uni0419" unicode="&#x419;" horiz-adv-x="675" 
d="M71 674h114v-238q0 -176 -8 -296l3 -1q50 109 122 233l178 302h125v-674h-114v238q0 171 10 280h-3q-42 -101 -119 -233l-171 -285h-137v674zM199 823h87q3 -30 14 -46t38 -16q46 0 53 62h86q-9 -117 -142 -117q-127 0 -136 117z" />
    <glyph glyph-name="uni041A" unicode="&#x41a;" horiz-adv-x="577" 
d="M70 674h122v-289h19l207 289h148l-244 -304q68 -13 106 -54t64 -113q59 -169 76 -203h-132q-8 16 -16.5 37t-13.5 36.5l-13.5 42t-12.5 37.5q-23 70 -58 105.5t-102 35.5h-28v-294h-122v674z" />
    <glyph glyph-name="uni041B" unicode="&#x41b;" horiz-adv-x="622" 
d="M124 674h427v-674h-123v573h-184v-180q0 -142 -23 -235t-90 -135q-56 -32 -120 -32l-16 99q46 6 74 36q55 55 55 258v290z" />
    <glyph glyph-name="uni041C" unicode="&#x41c;" horiz-adv-x="827" 
d="M653 0l-13 275q-9 195 -8 283h-3q-35 -131 -80 -258l-99 -292h-94l-90 288q-41 135 -68 262h-2q-6 -178 -12 -287l-15 -271h-115l45 674h162l88 -271q35 -116 62 -234h3q31 125 67 235l93 270h160l39 -674h-120z" />
    <glyph glyph-name="uni041D" unicode="&#x41d;" horiz-adv-x="672" 
d="M71 674h123v-270h285v270h123v-674h-123v297h-285v-297h-123v674z" />
    <glyph glyph-name="uni041E" unicode="&#x41e;" horiz-adv-x="704" 
d="M357 686q144 0 228 -96.5t84 -245.5q0 -166 -90 -260.5t-232 -94.5q-141 0 -226 96.5t-85 246.5q0 156 89.5 255t231.5 99zM353 587q-88 0 -137.5 -71.5t-49.5 -180.5q0 -107 50.5 -177t136.5 -70q87 0 136.5 71.5t49.5 180.5q0 102 -49 174.5t-137 72.5z" />
    <glyph glyph-name="uni041F" unicode="&#x41f;" horiz-adv-x="660" 
d="M71 674h518v-674h-123v573h-272v-573h-123v674z" />
    <glyph glyph-name="uni0420" unicode="&#x420;" horiz-adv-x="559" 
d="M71 0v665q79 14 188 14q132 0 198 -55q66 -54 66 -149q0 -97 -57 -152q-74 -73 -213 -73q-39 0 -60 5v-255h-122zM193 578v-226q19 -6 60 -6q69 0 108.5 33t39.5 91q0 55 -36 84.5t-101 29.5q-45 0 -71 -6z" />
    <glyph glyph-name="uni0421" unicode="&#x421;" horiz-adv-x="588" 
d="M534 116l20 -97q-62 -30 -175 -30q-159 0 -251.5 92.5t-92.5 247.5q0 163 101.5 259.5t259.5 96.5q105 0 163 -30l-26 -98q-59 26 -132 26q-106 0 -171 -65t-65 -183q0 -113 62 -178t173 -65q77 0 134 24z" />
    <glyph glyph-name="uni0422" unicode="&#x422;" horiz-adv-x="525" 
d="M200 0v571h-192v103h509v-103h-194v-571h-123z" />
    <glyph glyph-name="uni0423" unicode="&#x423;" horiz-adv-x="558" 
d="M3 674h139l114 -263q18 -44 48 -124h3l39 126l87 261h130l-133 -339q-78 -196 -130 -263q-69 -86 -167 -86q-41 0 -63 9l9 99q15 -4 43 -4q71 0 109 86q7 15 -2 36z" />
    <glyph glyph-name="uni0424" unicode="&#x424;" horiz-adv-x="760" 
d="M323 702h116v-60q120 -7 203 -82t83 -221q0 -76 -24 -134t-65.5 -93t-91 -54t-107.5 -23v-62h-116v62q-57 4 -106 22t-90.5 52t-65.5 91.5t-24 133.5q0 78 26 138t69.5 94.5t92 53t100.5 22.5v60zM322 121v436q-29 -3 -56 -15.5t-51.5 -37t-39.5 -68t-15 -99.5
q0 -100 48 -154t114 -62zM438 557v-436q66 6 114 59t48 159q0 108 -47 160t-115 58z" />
    <glyph glyph-name="uni0425" unicode="&#x425;" horiz-adv-x="594" 
d="M574 0h-143l-72 134l-68 127h-2q-19 -45 -61 -127l-67 -134h-141l200 341l-193 333h142l73 -139q30 -58 55 -113h3q25 58 53 113l72 139h141l-197 -329z" />
    <glyph glyph-name="uni0426" unicode="&#x426;" horiz-adv-x="675" 
d="M71 674h123v-573h269v573h123v-576l63 -3l-7 -262h-94l-7 167h-470v674z" />
    <glyph glyph-name="uni0427" unicode="&#x427;" horiz-adv-x="622" 
d="M65 674h123v-207q0 -128 126 -128q59 0 114 31v304h123v-681h-123v285h-3q-71 -38 -155 -38q-89 0 -147 49.5t-58 157.5v227z" />
    <glyph glyph-name="uni0428" unicode="&#x428;" horiz-adv-x="884" 
d="M71 674h121v-573h190v573h121v-573h190v573h121v-674h-743v674z" />
    <glyph glyph-name="uni0429" unicode="&#x429;" horiz-adv-x="903" 
d="M71 674h121v-573h189v573h121v-573h190v573h121v-576l64 -3l-7 -262h-94l-7 167h-698v674z" />
    <glyph glyph-name="uni042A" unicode="&#x42a;" horiz-adv-x="672" 
d="M5 674h294v-242q32 5 81 5q107 0 181 -56t74 -160q0 -88 -53 -146q-81 -82 -255 -82q-78 0 -150 9v571h-172v101zM299 337v-247q23 -4 61 -4q64 0 105 34t41 96q0 63 -41.5 94t-103.5 31q-26 0 -62 -4z" />
    <glyph glyph-name="uni042B" unicode="&#x42b;" horiz-adv-x="805" 
d="M71 674h122v-243q30 6 78 6q112 0 187.5 -55t75.5 -162q0 -88 -53 -144q-80 -83 -260 -83q-78 0 -150 9v672zM193 337v-247q20 -4 60 -4q64 0 108 34.5t44 96.5t-45 93t-107 31q-34 0 -60 -4zM602 674h123v-674h-123v674z" />
    <glyph glyph-name="uni042C" unicode="&#x42c;" horiz-adv-x="577" 
d="M71 674h122v-243q31 6 83 6q114 0 189 -54.5t75 -160.5q0 -90 -53 -146q-80 -83 -265 -83q-79 0 -151 9v672zM193 337v-247q24 -4 63 -4q67 0 111 33t44 97t-43 94.5t-111 30.5q-24 0 -64 -4z" />
    <glyph glyph-name="uni042D" unicode="&#x42d;" horiz-adv-x="578" 
d="M110 295v97h300q-8 85 -62 139t-144 54q-69 0 -140 -30l-26 92q88 38 175 38q162 0 246 -98.5t84 -250.5q0 -163 -96 -255t-244 -92q-105 0 -174 33l23 96q63 -28 139 -28q95 0 153.5 57t65.5 148h-300z" />
    <glyph glyph-name="uni042E" unicode="&#x42e;" horiz-adv-x="896" 
d="M70 674h123v-276h89q17 132 95.5 210t196.5 78q134 0 211 -96.5t77 -245.5q0 -166 -83 -260.5t-214 -94.5q-123 0 -200 84t-86 222h-86v-295h-123v674zM569 87q79 0 123.5 71t44.5 181q0 102 -44 175.5t-123 73.5q-81 0 -125.5 -73t-44.5 -180q0 -105 45.5 -176.5
t123.5 -71.5z" />
    <glyph glyph-name="uni042F" unicode="&#x42f;" horiz-adv-x="574" 
d="M143 0h-132q18 27 31 69q6 17 19 57t21 61.5t23.5 50t34.5 46.5q23 23 56 34v3q-63 11 -104 54t-41 111q0 89 66 140q67 53 208 53q97 0 179 -14v-665h-122v277h-49q-53 0 -83 -29q-16 -15 -29.5 -41.5t-21 -48.5t-18 -56.5t-15.5 -48.5q-12 -32 -23 -53zM382 369v210
q-30 7 -71 7q-61 0 -99 -26.5t-38 -82.5q0 -52 40.5 -81t104.5 -29q48 0 63 2z" />
    <glyph glyph-name="uni0430" unicode="&#x430;" horiz-adv-x="508" 
d="M444 292v-175q0 -77 8 -117h-111l-9 54h-3q-50 -65 -144 -65q-70 0 -111.5 43t-41.5 102q0 90 76 137.5t213 46.5v8q0 33 -21 59t-78 26q-74 0 -131 -36l-24 80q70 43 176 43q108 0 154.5 -57.5t46.5 -148.5zM324 171v67q-170 2 -170 -91q0 -34 19.5 -52t50.5 -18
q36 0 61.5 19.5t35.5 47.5q3 9 3 27z" />
    <glyph glyph-name="uni0431" unicode="&#x431;" horiz-adv-x="555" 
d="M470 720l-6 -98q-33 -11 -109 -20q-115 -15 -163 -76q-46 -56 -53 -139h4q23 46 67 73t97 27q96 0 154.5 -65.5t58.5 -176.5q0 -118 -65 -187t-174 -69q-82 0 -138 45t-80.5 116t-24.5 162q0 186 91 284q67 81 207 101q106 15 134 23zM394 240q0 40 -10 74t-37 60t-69 26
q-59 0 -88 -52q-25 -41 -25 -99q0 -64 29.5 -117.5t86.5 -53.5q58 0 85.5 47.5t27.5 114.5z" />
    <glyph glyph-name="uni0432" unicode="&#x432;" horiz-adv-x="528" 
d="M65 0v481q72 12 178 12q229 0 229 -123q0 -44 -28.5 -71.5t-71.5 -36.5v-2q57 -9 89.5 -39t32.5 -80q0 -147 -273 -147q-27 0 -58.5 1t-60.5 3t-37 2zM186 410v-120h51q114 0 114 64q0 60 -106 60q-23 0 -59 -4zM185 216v-142q20 -2 59 -2q51 0 87.5 16.5t36.5 55.5
q0 72 -131 72h-52z" />
    <glyph glyph-name="uni0433" unicode="&#x433;" horiz-adv-x="402" 
d="M65 487h322v-97h-199v-390h-123v487z" />
    <glyph glyph-name="uni0434" unicode="&#x434;" horiz-adv-x="563" 
d="M125 487h360v-398l52 -2l-6 -243h-94l-4 156h-320l-6 -156h-94l-4 242l43 3q33 47 48 100q25 82 25 176v122zM233 396v-67q0 -75 -21 -151q-13 -44 -36 -87h189v305h-132z" />
    <glyph glyph-name="uni0435" unicode="&#x435;" horiz-adv-x="516" 
d="M479 209h-326q2 -63 44 -94.5t106 -31.5q71 0 135 22l18 -84q-72 -31 -170 -31q-117 0 -184 66.5t-67 179.5q0 108 63.5 185t174.5 77q56 0 99 -21.5t66 -57.5t34 -75.5t11 -82.5q0 -30 -4 -52zM153 295h214q1 44 -22.5 81.5t-78.5 37.5q-52 0 -80 -37t-33 -82z" />
    <glyph glyph-name="uni0436" unicode="&#x436;" horiz-adv-x="706" 
d="M7 487h137l134 -203h16v203h118v-203h16l133 203h138l-180 -215q88 -13 128 -127l17 -47l21 -56t19 -42h-124q-14 25 -43 111q-33 92 -112 92h-13v-203h-118v203h-13q-42 0 -68.5 -21.5t-45.5 -70.5q-33 -91 -44 -111h-121q10 19 19 42t21 56.5l17 46.5q42 115 128 127z
" />
    <glyph glyph-name="uni0437" unicode="&#x437;" horiz-adv-x="462" 
d="M111 212v78h58q50 0 78.5 17.5t28.5 44.5q0 26 -23.5 42t-64.5 16q-62 0 -120 -34l-27 73q79 47 182 47q46 0 85 -11.5t68.5 -41.5t29.5 -76q0 -43 -32 -71.5t-75 -37.5v-3q53 -5 91 -35.5t38 -81.5q0 -53 -37.5 -88t-85.5 -47.5t-104 -12.5q-102 0 -176 43l28 79
q58 -32 135 -34q49 0 77 18.5t28 47.5q0 68 -122 68h-60z" />
    <glyph glyph-name="uni0438" unicode="&#x438;" horiz-adv-x="578" 
d="M65 487h117v-175q0 -78 -7 -197h4q63 138 66 144l119 228h149v-487h-117v174q0 59 8 206h-4q-32 -77 -64 -140l-124 -240h-147v487z" />
    <glyph glyph-name="uni0439" unicode="&#x439;" horiz-adv-x="578" 
d="M65 487h117v-175q0 -78 -7 -197h4q63 138 66 144l119 228h149v-487h-117v174q0 59 8 206h-4q-32 -77 -64 -140l-124 -240h-147v487zM151 686h82q2 -33 15.5 -53t38.5 -20q51 0 58 73h81q-4 -65 -41 -99t-100 -34q-65 0 -98 35.5t-36 97.5z" />
    <glyph glyph-name="uni043A" unicode="&#x43a;" horiz-adv-x="507" 
d="M66 487h123v-202h18l150 202h146l-194 -214q48 -7 81.5 -42.5t59.5 -97.5q4 -10 14.5 -38.5t20.5 -52t20 -42.5h-128q-14 22 -45 104q-21 51 -51 75t-76 24h-16v-203h-123v487z" />
    <glyph glyph-name="uni043B" unicode="&#x43b;" horiz-adv-x="528" 
d="M93 487h371v-487h-123v392h-133v-105q0 -103 -15.5 -164t-56.5 -92q-41 -40 -122 -40l-13 96q32 5 52 23q25 22 32.5 62t7.5 119v196z" />
    <glyph glyph-name="uni043C" unicode="&#x43c;" horiz-adv-x="683" 
d="M43 0l35 487h155l69 -212q23 -72 38 -127h2q9 33 47 148l64 191h155l32 -487h-115l-9 212q-7 159 -7 172h-3q-20 -71 -50 -159l-78 -219h-89l-71 214l-44 162h-4q-2 -107 -6 -173l-10 -209h-111z" />
    <glyph glyph-name="uni043D" unicode="&#x43d;" horiz-adv-x="564" 
d="M65 487h123v-186h188v186h123v-487h-123v205h-188v-205h-123v487z" />
    <glyph glyph-name="uni043E" unicode="&#x43e;" horiz-adv-x="564" 
d="M287 498q108 0 175 -69.5t67 -180.5q0 -126 -74 -192.5t-176 -66.5q-106 0 -175 68t-69 183q0 118 70 188t182 70zM284 409q-61 0 -91.5 -49t-30.5 -117q0 -72 33 -118.5t88 -46.5q53 0 86 46.5t33 120.5q0 65 -30 114.5t-88 49.5z" />
    <glyph glyph-name="uni043F" unicode="&#x43f;" horiz-adv-x="560" 
d="M65 487h430v-487h-124v392h-183v-392h-123v487z" />
    <glyph glyph-name="uni0440" unicode="&#x440;" horiz-adv-x="585" 
d="M66 -198v523q0 70 -4 162h108l6 -75h2q56 86 167 86q86 0 145.5 -68.5t59.5 -179.5q0 -124 -65.5 -192.5t-156.5 -68.5q-45 0 -81.5 17.5t-55.5 47.5h-2v-252h-123zM189 279v-75q0 -18 3 -34q10 -38 40 -62t69 -24q58 0 91 44t33 117q0 67 -32 111.5t-89 44.5
q-39 0 -70 -25.5t-41 -65.5q-4 -20 -4 -31z" />
    <glyph glyph-name="uni0441" unicode="&#x441;" horiz-adv-x="449" 
d="M407 106l17 -91q-54 -25 -138 -25q-114 0 -182.5 68t-68.5 181t73 186t198 73q68 0 119 -22l-22 -93q-38 19 -93 19q-69 0 -109.5 -45t-39.5 -113q0 -73 42 -115t107 -42q51 0 97 19z" />
    <glyph glyph-name="uni0442" unicode="&#x442;" horiz-adv-x="438" 
d="M12 487h415v-95h-146v-392h-123v392h-146v95z" />
    <glyph glyph-name="uni0443" unicode="&#x443;" horiz-adv-x="500" 
d="M8 487h136l87 -261q16 -49 28 -94h3q19 73 26 95l76 260h131l-122 -332q-50 -135 -88 -205t-81 -108q-62 -53 -129 -62l-28 103q36 8 71 34q42 26 68 77q7 13 7 22q0 10 -6 24z" />
    <glyph glyph-name="uni0444" unicode="&#x444;" horiz-adv-x="684" 
d="M285 706h116l-2 -211q110 -9 180.5 -75.5t70.5 -177.5q0 -113 -71.5 -178.5t-179.5 -73.5l2 -188h-116l2 188q-110 8 -181 73.5t-71 175.5q0 115 70.5 180t180.5 75zM287 72v341q-63 -11 -97 -57.5t-34 -113.5t34.5 -113t96.5 -57zM399 413v-341q62 11 95.5 57.5
t33.5 114.5q0 66 -33.5 111.5t-95.5 57.5z" />
    <glyph glyph-name="uni0445" unicode="&#x445;" horiz-adv-x="494" 
d="M11 487h137l58 -92l44 -75h2q20 39 43 77l54 90h134l-163 -234l166 -253h-140l-59 97q-19 31 -44 79h-2q-6 -12 -13.5 -25.5l-16.5 -29l-14 -24.5l-56 -97h-136l169 248z" />
    <glyph glyph-name="uni0446" unicode="&#x446;" horiz-adv-x="572" 
d="M65 487h123v-392h183v392h124v-398l52 -2l-6 -243h-94l-4 156h-378v487z" />
    <glyph glyph-name="uni0447" unicode="&#x447;" horiz-adv-x="539" 
d="M60 487h123v-158q0 -91 85 -91q48 0 83 26v223h123v-494h-123v189h-2q-51 -33 -126 -33q-76 0 -119.5 42.5t-43.5 125.5v170z" />
    <glyph glyph-name="uni0448" unicode="&#x448;" horiz-adv-x="779" 
d="M65 487h122v-392h142v392h122v-392h142v392h122v-487h-650v487z" />
    <glyph glyph-name="uni0449" unicode="&#x449;" horiz-adv-x="792" 
d="M65 487h122v-392h142v392h122v-392h141v392h123v-398l52 -2l-6 -243h-94l-4 156h-598v487z" />
    <glyph glyph-name="uni044A" unicode="&#x44a;" horiz-adv-x="618" 
d="M17 487h263v-153q38 5 82 5q42 0 80 -9t71 -27.5t52.5 -52.5t19.5 -80q0 -76 -60 -121q-71 -54 -220 -54q-78 0 -148 8v389h-140v95zM279 249v-166q24 -3 58 -3q53 0 89 20.5t36 64.5q0 49 -38 69t-92 20q-25 0 -53 -5z" />
    <glyph glyph-name="uni044B" unicode="&#x44b;" horiz-adv-x="727" 
d="M65 487h123v-154q38 6 78 6q57 0 104 -15.5t79.5 -54.5t32.5 -97q0 -77 -60 -122q-72 -55 -209 -55q-78 0 -148 8v484zM187 249v-166q23 -3 53 -3q49 0 84 21.5t35 66.5t-33 65.5t-81 20.5q-31 0 -58 -5zM539 487h123v-487h-123v487z" />
    <glyph glyph-name="uni044C" unicode="&#x44c;" horiz-adv-x="529" 
d="M65 487h123v-154q31 6 78 6q36 0 67.5 -4.5t62 -16.5t52 -30.5t35 -48t13.5 -67.5q0 -77 -60 -122q-72 -55 -223 -55q-78 0 -148 8v484zM187 249v-166q24 -3 57 -3q52 0 90.5 20.5t38.5 66.5q0 48 -39.5 67.5t-90.5 19.5q-28 0 -56 -5z" />
    <glyph glyph-name="uni044D" unicode="&#x44d;" horiz-adv-x="475" 
d="M88 206v80h227q-7 54 -44 87t-103 33q-58 0 -112 -25l-24 80q68 37 157 37q110 0 177 -64q74 -71 74 -191q0 -113 -72 -183.5t-197 -70.5q-83 0 -146 33l20 85q56 -23 116 -23q62 0 103 32.5t49 89.5h-225z" />
    <glyph glyph-name="uni044E" unicode="&#x44e;" horiz-adv-x="741" 
d="M65 487h122v-192h72q15 93 75 148t149 55q100 0 161.5 -69t61.5 -181q0 -120 -66 -189.5t-163 -69.5q-89 0 -149.5 57.5t-70.5 157.5h-70v-204h-122v487zM480 78q50 0 76.5 48.5t26.5 118.5q0 67 -26.5 115.5t-76.5 48.5q-51 0 -78.5 -49t-27.5 -118t27.5 -116.5
t78.5 -47.5z" />
    <glyph glyph-name="uni044F" unicode="&#x44f;" horiz-adv-x="528" 
d="M463 483v-483h-122v193h-46q-46 0 -75 -32q-11 -9 -20.5 -25.5t-14.5 -28.5t-13 -35.5t-11 -31.5q-5 -13 -20 -40h-131q15 21 30 55q4 9 13.5 33.5l16 40t18 35t24.5 31.5q25 25 59 32v3q-50 5 -88.5 36.5t-38.5 84.5q0 74 74 112q59 31 172 31q94 0 173 -11zM341 271
v141q-34 4 -61 4q-46 0 -77.5 -17.5t-31.5 -55.5q0 -35 34 -54t75 -19q45 0 61 1z" />
    <glyph glyph-name="uni0451" unicode="&#x451;" horiz-adv-x="516" 
d="M479 209h-326q2 -63 44 -94.5t106 -31.5q71 0 135 22l18 -84q-72 -31 -170 -31q-117 0 -184 66.5t-67 179.5q0 108 63.5 185t174.5 77q56 0 99 -21.5t66 -57.5t34 -75.5t11 -82.5q0 -30 -4 -52zM153 295h214q1 44 -22.5 81.5t-78.5 37.5q-52 0 -80 -37t-33 -82zM175 563
q-26 0 -43.5 18t-17.5 43q0 26 18 44t45 18q25 0 42 -17.5t17 -44.5q0 -25 -17.5 -43t-43.5 -18zM375 563h-2q-25 0 -42.5 18t-17.5 43q0 26 18 44t44 18t43 -17.5t17 -44.5q0 -25 -17 -43t-43 -18z" />
    <glyph glyph-name="uni0452" unicode="&#x452;" horiz-adv-x="573" 
d="M4 634h77v76h123v-76h218v-83h-218v-124h2q57 61 136 61q93 0 143 -84q50 -75 50 -204q0 -218 -114 -298q-58 -42 -120 -49l-23 98q52 12 81 43q52 59 52 197q0 95 -31 149q-27 49 -78 49q-48 0 -84 -45q-14 -17 -14 -47v-297h-123v551h-77v83z" />
    <glyph glyph-name="uni0453" unicode="&#x453;" horiz-adv-x="402" 
d="M65 487h322v-97h-199v-390h-123v487zM244 698h121l-122 -148h-85z" />
    <glyph glyph-name="uni0454" unicode="&#x454;" horiz-adv-x="467" 
d="M442 469l-25 -86q-48 24 -103 24q-64 0 -103.5 -33.5t-48.5 -87.5h222v-80h-220q7 -57 47.5 -90t103.5 -33q51 0 107 21l20 -85q-56 -30 -147 -30q-120 0 -190 69t-70 181q0 119 78 189t199 70q76 0 130 -29z" />
    <glyph glyph-name="uni0455" unicode="&#x455;" horiz-adv-x="417" 
d="M36 24l25 90q57 -36 124 -36q78 0 78 55q0 24 -17 39t-63 32q-134 45 -134 142q0 66 50.5 109t133.5 43q77 0 130 -29l-25 -86q-47 28 -103 28q-32 0 -50 -14.5t-18 -37.5q0 -22 18 -36t67 -32q67 -23 98 -58.5t32 -89.5q0 -69 -52 -111t-146 -42q-87 0 -148 34z" />
    <glyph glyph-name="uni0456" unicode="&#x456;" horiz-adv-x="256" 
d="M189 0h-123v487h123v-487zM128 690q31 0 49.5 -19t19.5 -48q0 -28 -19.5 -47t-50.5 -19q-30 0 -49 19t-19 47q0 29 19.5 48t49.5 19z" />
    <glyph glyph-name="uni0457" unicode="&#x457;" horiz-adv-x="256" 
d="M189 0h-123v487h123v-487zM28 563q-26 0 -43.5 18t-17.5 43q0 26 18 44t45 18q25 0 42 -17.5t17 -44.5q0 -25 -17.5 -43t-43.5 -18zM229 563h-2q-25 0 -42.5 18t-17.5 43q0 26 18 44t44 18t43 -17.5t17 -44.5q0 -25 -17 -43t-43 -18z" />
    <glyph glyph-name="uni0458" unicode="&#x458;" horiz-adv-x="270" 
d="M-30 -213l-12 96q63 5 92 35q18 19 25 55t7 114v400h123v-435q0 -144 -64 -208q-60 -57 -171 -57zM145 690q30 0 48.5 -19t19.5 -48q0 -28 -19 -47t-51 -19q-31 0 -49.5 19t-18.5 47q0 29 19.5 48t50.5 19z" />
    <glyph glyph-name="uni0459" unicode="&#x459;" horiz-adv-x="802" 
d="M96 487h368v-155q35 5 77 5q60 0 109 -15t84 -54.5t35 -99.5q0 -72 -55 -117q-71 -56 -223 -56q-80 0 -150 8v389h-131v-105q0 -101 -16.5 -162.5t-58.5 -92.5q-40 -40 -121 -40l-13 96q32 5 51 22q26 21 35 63.5t9 117.5v196zM463 248v-165q24 -3 57 -3q50 0 88 20
t38 66q0 47 -36 67t-85 20q-32 0 -62 -5z" />
    <glyph glyph-name="uni045A" unicode="&#x45a;" horiz-adv-x="814" 
d="M65 487h123v-172h168v172h123v-158q35 5 79 5q91 0 156.5 -41t65.5 -126q0 -73 -56 -117q-69 -55 -218 -55q-73 0 -150 7v221h-168v-223h-123v487zM478 246v-163q22 -3 57 -3q49 0 85.5 20t36.5 65q0 46 -35.5 65.5t-85.5 19.5q-22 0 -58 -4z" />
    <glyph glyph-name="uni045B" unicode="&#x45b;" horiz-adv-x="586" 
d="M4 634h77v76h123v-76h200v-83h-200v-139h2q24 34 59 54q39 22 86 22q80 0 125 -54.5t45 -155.5v-278h-123v264q0 124 -93 124q-35 0 -59.5 -20t-35.5 -49q-6 -13 -6 -40v-279h-123v551h-77v83z" />
    <glyph glyph-name="uni045C" unicode="&#x45c;" horiz-adv-x="507" 
d="M66 487h123v-202h18l150 202h146l-194 -214q48 -7 81.5 -42.5t59.5 -97.5q4 -10 14.5 -38.5t20.5 -52t20 -42.5h-128q-14 22 -45 104q-21 51 -51 75t-76 24h-16v-203h-123v487zM280 698h121l-122 -148h-85z" />
    <glyph glyph-name="uni045E" unicode="&#x45e;" horiz-adv-x="500" 
d="M112 686h82q2 -33 15.5 -53t38.5 -20q51 0 58 73h81q-4 -65 -41 -99t-100 -34q-65 0 -98 35.5t-36 97.5zM8 487h136l87 -261q16 -49 28 -94h3q19 73 26 95l76 260h131l-122 -332q-50 -135 -88 -205t-81 -108q-62 -53 -129 -62l-28 103q36 8 71 34q42 26 68 77q7 13 7 22
q0 10 -6 24z" />
    <glyph glyph-name="uni045F" unicode="&#x45f;" horiz-adv-x="559" 
d="M65 487h123v-392h183v392h123v-487h-158l-8 -161h-98l-7 161h-158v487z" />
    <glyph glyph-name="uni0490" unicode="&#x490;" horiz-adv-x="471" 
d="M71 674h293l16 126h88l-11 -227h-263v-573h-123v674z" />
    <glyph glyph-name="uni0491" unicode="&#x491;" horiz-adv-x="414" 
d="M65 487h232l13 114h86l-7 -210h-201v-391h-123v487z" />
    <glyph glyph-name="uni04D9" unicode="&#x4d9;" horiz-adv-x="328" 
d="M77 381l-18 83q77 34 172 34q116 0 182.5 -67.5t66.5 -180.5q0 -107 -63 -183.5t-174 -76.5q-57 0 -99.5 21.5t-66 57t-34.5 75t-11 82.5q0 34 5 51h325q-2 64 -42 96t-106 32q-70 0 -137 -24zM362 191h-214q-1 -43 23.5 -80t79.5 -37q52 0 79 36t32 81z" />
    <glyph glyph-name="Wgrave" unicode="&#x1e80;" horiz-adv-x="869" 
d="M313 0h-133l-165 674h131l64 -306q26 -126 44 -235h2q8 55 49 236l73 305h129l67 -310q31 -155 41 -228h2q14 87 46 234l70 304h125l-182 -674h-131l-70 317q-26 119 -38 214h-2q-17 -108 -44 -214zM273 830h136l88 -119h-99z" />
    <glyph glyph-name="wgrave" unicode="&#x1e81;" horiz-adv-x="749" 
d="M14 487h126l50 -221q20 -85 32 -158h2q5 26 39 157l64 222h100l61 -216q24 -93 39 -163h2q7 54 32 163l54 216h121l-153 -487h-114l-58 198q-22 74 -37 156h-2q-14 -78 -37 -156l-62 -198h-115zM232 698h120l87 -148h-85z" />
    <glyph glyph-name="Wacute" unicode="&#x1e82;" horiz-adv-x="869" 
d="M313 0h-133l-165 674h131l64 -306q26 -126 44 -235h2q8 55 49 236l73 305h129l67 -310q31 -155 41 -228h2q14 87 46 234l70 304h125l-182 -674h-131l-70 317q-26 119 -38 214h-2q-17 -108 -44 -214zM472 830h136l-125 -120h-99z" />
    <glyph glyph-name="wacute" unicode="&#x1e83;" horiz-adv-x="749" 
d="M14 487h126l50 -221q20 -85 32 -158h2q5 26 39 157l64 222h100l61 -216q24 -93 39 -163h2q7 54 32 163l54 216h121l-153 -487h-114l-58 198q-22 74 -37 156h-2q-14 -78 -37 -156l-62 -198h-115zM403 698h121l-122 -148h-85z" />
    <glyph glyph-name="Wdieresis" unicode="&#x1e84;" horiz-adv-x="869" 
d="M313 0h-133l-165 674h131l64 -306q26 -126 44 -235h2q8 55 49 236l73 305h129l67 -310q31 -155 41 -228h2q14 87 46 234l70 304h125l-182 -674h-131l-70 317q-26 119 -38 214h-2q-17 -108 -44 -214zM342 716q-25 0 -42 18t-17 42q0 26 17.5 43.5t42.5 17.5t41.5 -17.5
t16.5 -43.5q0 -25 -16.5 -42.5t-42.5 -17.5zM539 716q-25 0 -41.5 17.5t-16.5 42.5q0 26 17 43.5t43 17.5q25 0 41.5 -17.5t16.5 -43.5q0 -25 -17 -42.5t-43 -17.5z" />
    <glyph glyph-name="wdieresis" unicode="&#x1e85;" horiz-adv-x="749" 
d="M14 487h126l50 -221q20 -85 32 -158h2q5 26 39 157l64 222h100l61 -216q24 -93 39 -163h2q7 54 32 163l54 216h121l-153 -487h-114l-58 198q-22 74 -37 156h-2q-14 -78 -37 -156l-62 -198h-115zM274 563q-26 0 -43.5 18t-17.5 43q0 26 18 44t45 18q25 0 42 -17.5
t17 -44.5q0 -25 -17.5 -43t-43.5 -18zM475 563h-2q-25 0 -42.5 18t-17.5 43q0 26 18 44t44 18t43 -17.5t17 -44.5q0 -25 -17 -43t-43 -18z" />
    <glyph glyph-name="uni1EA0" unicode="&#x1ea0;" horiz-adv-x="636" 
d="M419 191h-213l-58 -191h-127l216 674h157l219 -674h-133zM226 284h173l-53 166q-8 27 -34 127h-2q-28 -113 -32 -127zM314 -80q25 0 42 -18t17 -44t-17 -44t-44 -18q-25 0 -43 18t-18 44t18 44t45 18z" />
    <glyph glyph-name="uni1EA1" unicode="&#x1ea1;" horiz-adv-x="508" 
d="M444 292v-175q0 -77 8 -117h-111l-9 54h-3q-50 -65 -144 -65q-70 0 -111.5 43t-41.5 102q0 90 76 137.5t213 46.5v8q0 33 -21 59t-78 26q-74 0 -131 -36l-24 80q70 43 176 43q108 0 154.5 -57.5t46.5 -148.5zM324 171v67q-170 2 -170 -91q0 -34 19.5 -52t50.5 -18
q36 0 61.5 19.5t35.5 47.5q3 9 3 27zM255 -80q25 0 42 -18t17 -44t-17 -44t-44 -18q-25 0 -43 18t-18 44t18 44t45 18z" />
    <glyph glyph-name="uni1EA2" unicode="&#x1ea2;" horiz-adv-x="636" 
d="M419 191h-213l-58 -191h-127l216 674h157l219 -674h-133zM226 284h173l-53 166q-9 28 -34 126h-2l-14 -55l-18 -71zM348 707l-59 15q7 20 28.5 43.5t21.5 40.5q0 14 -8.5 22.5t-22.5 8.5q-25 0 -47 -35l-42 26q39 73 112 73q38 0 64.5 -23.5t26.5 -55.5q0 -24 -12 -41.5
t-32 -36.5t-30 -37z" />
    <glyph glyph-name="uni1EA3" unicode="&#x1ea3;" horiz-adv-x="508" 
d="M444 292v-175q0 -77 8 -117h-111l-9 54h-3q-50 -65 -144 -65q-70 0 -111.5 43t-41.5 102q0 90 76 137.5t213 46.5v8q0 33 -21 59t-78 26q-74 0 -131 -36l-24 80q70 43 176 43q108 0 154.5 -57.5t46.5 -148.5zM324 171v67q-170 2 -170 -91q0 -34 19.5 -52t50.5 -18
q36 0 61.5 19.5t35.5 47.5q3 9 3 27zM275 528l-62 15q6 22 31 49.5t25 46.5q0 15 -9 24t-23 9q-24 0 -45 -34l-43 25q35 74 111 74q39 0 66 -23t27 -59q0 -35 -36 -74t-42 -53z" />
    <glyph glyph-name="uni1EA4" unicode="&#x1ea4;" horiz-adv-x="636" 
d="M420 191h-214l-58 -191h-127l217 674h156l219 -674h-132zM226 284h173l-53 166q-9 28 -34 126h-2q-1 -3 -13 -52.5t-19 -73.5zM277 829h87l92 -119h-85l-49 66h-2l-50 -66h-83zM486 908h112l-128 -110h-63z" />
    <glyph glyph-name="uni1EA5" unicode="&#x1ea5;" horiz-adv-x="508" 
d="M444 292v-175q0 -77 8 -117h-111l-9 54h-3q-50 -65 -144 -65q-70 0 -111.5 43t-41.5 102q0 90 76 137.5t213 46.5v8q0 33 -21 59t-78 26q-74 0 -131 -36l-24 80q70 43 176 43q108 0 154.5 -57.5t46.5 -148.5zM324 171v67q-170 2 -170 -91q0 -34 19.5 -52t50.5 -18
q36 0 61.5 19.5t35.5 47.5q3 9 3 27zM204 698h87l88 -148h-83l-47 90h-3l-47 -90h-82zM419 787h101l-109 -141h-65z" />
    <glyph glyph-name="uni1EA6" unicode="&#x1ea6;" horiz-adv-x="636" 
d="M420 191h-214l-58 -191h-127l217 674h156l219 -674h-132zM226 284h173l-53 166q-9 28 -34 126h-2q-1 -3 -13 -52.5t-19 -73.5zM346 892h113l69 -109h-68zM271 829h87l92 -119h-85l-49 66h-2l-49 -66h-84z" />
    <glyph glyph-name="uni1EA7" unicode="&#x1ea7;" horiz-adv-x="508" 
d="M444 292v-175q0 -75 7 -117h-111l-8 54h-3q-50 -65 -144 -65q-70 0 -111.5 43t-41.5 102q0 90 76 137.5t213 46.5v8q0 33 -21 59t-78 26q-74 0 -131 -36l-24 80q70 43 176 43q108 0 154.5 -57.5t46.5 -148.5zM324 171v67q-170 2 -170 -91q0 -34 19.5 -52t50.5 -18
q36 0 61.5 19.5t35.5 47.5q3 9 3 27zM288 788h99l66 -142h-64zM204 698h88l88 -148h-84l-47 90h-2l-47 -90h-83z" />
    <glyph glyph-name="uni1EA8" unicode="&#x1ea8;" horiz-adv-x="636" 
d="M420 191h-214l-57 -191h-128l217 674h156l219 -674h-132zM226 284h174l-53 166q-12 38 -34 127h-3q-18 -81 -32 -127zM273 829h87l92 -119h-85l-50 66h-2l-49 -66h-84zM486 756l-51 13q7 20 28.5 43.5t21.5 39.5q0 13 -9 22t-22 9q-27 0 -48 -36l-39 24q35 69 105 69
q36 0 60.5 -21.5t24.5 -53.5q0 -29 -31 -60.5t-40 -48.5z" />
    <glyph glyph-name="uni1EA9" unicode="&#x1ea9;" horiz-adv-x="508" 
d="M444 292v-175q0 -75 7 -117h-111l-8 54h-3q-50 -65 -144 -65q-70 0 -111.5 43t-41.5 102q0 90 76 137.5t213 46.5v8q0 33 -21 59t-78 26q-74 0 -131 -36l-24 80q70 43 176 43q108 0 154.5 -57.5t46.5 -148.5zM324 171v67q-170 2 -170 -91q0 -34 19.5 -52t50.5 -18
q36 0 61.5 19.5t35.5 47.5q3 9 3 27zM203 698h87l88 -148h-83l-47 90h-3l-47 -90h-82zM414 634l-55 13q7 19 27.5 41.5t20.5 38.5q0 13 -8.5 22t-21.5 9q-22 0 -45 -34l-39 24q35 69 105 69q36 0 61 -22.5t25 -52.5q0 -23 -11.5 -39.5t-30.5 -34t-28 -34.5z" />
    <glyph glyph-name="uni1EAA" unicode="&#x1eaa;" horiz-adv-x="636" 
d="M419 191h-213l-58 -191h-127l216 674h157l219 -674h-133zM226 284h173l-53 166q-9 28 -34 126h-2l-14 -55l-18 -71zM270 829h93l103 -119h-92l-56 65h-2l-56 -65h-91zM248 844h-61q-1 48 19.5 76.5t56.5 28.5q23 0 63 -21q28 -16 43 -16q13 0 19 8.5t7 31.5h60
q3 -107 -76 -107q-23 0 -65 22q-30 15 -41 15q-22 0 -25 -38z" />
    <glyph glyph-name="uni1EAB" unicode="&#x1eab;" horiz-adv-x="508" 
d="M444 292v-175q0 -77 8 -117h-111l-9 54h-3q-50 -65 -144 -65q-70 0 -111.5 43t-41.5 102q0 90 76 137.5t213 46.5v8q0 33 -21 59t-78 26q-74 0 -131 -36l-24 80q70 43 176 43q108 0 154.5 -57.5t46.5 -148.5zM324 171v67q-170 2 -170 -91q0 -34 19.5 -52t50.5 -18
q36 0 61.5 19.5t35.5 47.5q3 9 3 27zM210 674h87l93 -125h-85l-50 72h-2l-51 -72h-85zM184 689h-61q-1 48 19.5 76t56.5 28q25 0 63 -20q30 -17 43 -17q12 0 18.5 8.5t7.5 31.5h60q3 -106 -76 -106q-22 0 -64 21q-30 16 -42 16q-22 0 -25 -38z" />
    <glyph glyph-name="uni1EAC" unicode="&#x1eac;" horiz-adv-x="636" 
d="M419 191h-213l-58 -191h-127l216 674h157l219 -674h-133zM226 284h173l-53 166q-9 28 -34 126h-2l-14 -55l-18 -71zM271 829h93l103 -119h-92l-56 65h-2l-56 -65h-91zM310 -201q-25 0 -42.5 18t-17.5 42q0 25 18 43t44 18q24 0 41 -18t17 -43t-17 -42.5t-43 -17.5z" />
    <glyph glyph-name="uni1EAD" unicode="&#x1ead;" horiz-adv-x="508" 
d="M444 292v-175q0 -77 8 -117h-111l-9 54h-3q-50 -65 -144 -65q-70 0 -111.5 43t-41.5 102q0 90 76 137.5t213 46.5v8q0 33 -21 59t-78 26q-74 0 -131 -36l-24 80q70 43 176 43q108 0 154.5 -57.5t46.5 -148.5zM324 171v67q-170 2 -170 -91q0 -34 19.5 -52t50.5 -18
q36 0 61.5 19.5t35.5 47.5q3 9 3 27zM212 698h83l98 -148h-85l-54 90h-2l-53 -90h-84zM255 -80q25 0 42 -18t17 -44t-17 -44t-44 -18q-25 0 -43 18t-18 44t18 44t45 18z" />
    <glyph glyph-name="uni1EAE" unicode="&#x1eae;" horiz-adv-x="636" 
d="M420 191h-214l-58 -191h-127l216 674h157l219 -674h-132zM226 284h174l-53 166q-8 24 -20.5 71.5t-14.5 54.5h-2q-1 -3 -13 -52.5t-19 -73.5zM184 812h59q14 -47 75 -47q65 0 78 47h57q-5 -48 -40.5 -80.5t-95.5 -32.5t-93.5 31.5t-39.5 81.5zM346 912h116l-119 -110h-69
z" />
    <glyph glyph-name="uni1EAF" unicode="&#x1eaf;" horiz-adv-x="508" 
d="M444 292v-175q0 -77 8 -117h-111l-9 54h-3q-50 -65 -144 -65q-70 0 -111.5 43t-41.5 102q0 90 76 137.5t213 46.5v8q0 33 -21 59t-78 26q-74 0 -131 -36l-24 80q70 43 176 43q108 0 154.5 -57.5t46.5 -148.5zM324 171v67q-170 2 -170 -91q0 -34 19.5 -52t50.5 -18
q36 0 61.5 19.5t35.5 47.5q3 9 3 27zM286 793h102l-117 -140h-68zM105 665h62q5 -29 26 -47t53 -18q36 0 57 19t23 46h62q-2 -60 -40.5 -96.5t-101.5 -36.5q-66 0 -103 38t-38 95z" />
    <glyph glyph-name="uni1EB0" unicode="&#x1eb0;" horiz-adv-x="636" 
d="M420 191h-215l-57 -191h-127l216 674h157l219 -674h-132zM226 284h173l-53 166q-9 28 -34 126h-2q-1 -3 -13 -52.5t-19 -73.5zM182 912h116l71 -110h-69zM187 812h59q14 -47 75 -47q64 0 77 47h58q-6 -48 -41 -80.5t-95 -32.5t-93.5 31.5t-39.5 81.5z" />
    <glyph glyph-name="uni1EB1" unicode="&#x1eb1;" horiz-adv-x="508" 
d="M444 292v-175q0 -75 7 -117h-111l-8 54h-3q-51 -65 -144 -65q-70 0 -111.5 43t-41.5 102q0 90 76 137.5t213 46.5v8q0 33 -21 59t-78 26q-73 0 -131 -36l-24 80q72 43 176 43q108 0 154.5 -57.5t46.5 -148.5zM324 171v67q-170 2 -170 -91q0 -35 19.5 -52.5t51.5 -17.5
q35 0 60.5 19.5t35.5 47.5q3 9 3 27zM112 793h102l83 -140h-68zM110 665h62q5 -29 26 -47t53 -18q36 0 57 19t23 46h62q-2 -60 -40.5 -96.5t-101.5 -36.5q-66 0 -103 38t-38 95z" />
    <glyph glyph-name="uni1EB2" unicode="&#x1eb2;" horiz-adv-x="636" 
d="M420 191h-214l-58 -191h-127l216 674h157l219 -674h-132zM226 284h173l-53 166q-9 28 -34 126h-2l-14 -55l-18 -71zM340 789l-54 13q7 20 28 43t21 39q0 13 -8.5 21.5t-21.5 8.5q-23 0 -46 -34l-38 23q36 70 105 70q36 0 60.5 -22.5t24.5 -52.5q0 -31 -32 -63.5
t-39 -45.5zM187 813h60q13 -48 75 -48q63 0 77 48h58q-6 -48 -41.5 -81t-95.5 -33t-93.5 31.5t-39.5 82.5z" />
    <glyph glyph-name="uni1EB3" unicode="&#x1eb3;" horiz-adv-x="508" 
d="M444 292v-175q0 -75 7 -117h-111l-8 54h-3q-51 -65 -144 -65q-70 0 -111.5 43t-41.5 102q0 90 76 137.5t213 46.5v8q0 33 -21 59t-78 26q-74 0 -131 -36l-25 80q72 43 177 43q108 0 154.5 -57.5t46.5 -148.5zM324 171v67q-170 2 -170 -91q0 -34 19.5 -52t50.5 -18
q35 0 61 19.5t36 47.5q3 9 3 27zM268 643l-55 13q7 19 27.5 41.5t20.5 38.5q0 13 -8.5 22t-21.5 9q-22 0 -45 -34l-39 24q35 69 105 69q36 0 61 -22.5t25 -52.5q0 -23 -11.5 -39.5t-30.5 -34t-28 -34.5zM108 665h62q5 -29 26 -47t53 -18q35 0 56.5 19t23.5 46h62
q-2 -60 -41 -96.5t-101 -36.5q-66 0 -103 38t-38 95z" />
    <glyph glyph-name="uni1EB4" unicode="&#x1eb4;" horiz-adv-x="636" 
d="M420 191h-214l-57 -191h-128l216 674h157l219 -674h-132zM226 284h173l-53 166q-9 28 -34 126h-2q-1 -3 -13 -52.5t-19 -73.5zM246 844h-62q1 44 20.5 70.5t54.5 26.5q25 0 63 -20q32 -17 43 -17q13 0 19 8.5t8 31.5h59q3 -106 -75 -106q-25 0 -65 21q-29 15 -41 15
q-20 0 -24 -30zM181 812h59q14 -47 75 -47q64 0 77 47h57q-6 -48 -41 -80.5t-95 -32.5t-93 31.5t-39 81.5z" />
    <glyph glyph-name="uni1EB5" unicode="&#x1eb5;" horiz-adv-x="508" 
d="M444 292v-175q0 -77 8 -117h-111l-9 54h-3q-50 -65 -144 -65q-70 0 -111.5 43t-41.5 102q0 90 76 137.5t213 46.5v8q0 33 -21 59t-78 26q-74 0 -131 -36l-24 80q70 43 176 43q108 0 154.5 -57.5t46.5 -148.5zM324 171v67q-170 2 -170 -91q0 -34 19.5 -52t50.5 -18
q36 0 61.5 19.5t35.5 47.5q3 9 3 27zM182 705h-62q1 44 20.5 70.5t54.5 26.5q24 0 64 -20q30 -17 42 -17q13 0 19 8.5t8 31.5h59q3 -106 -75 -106q-25 0 -65 21q-29 15 -41 15q-20 0 -24 -30zM115 665h61q5 -29 25 -48t51 -19q34 0 54 20t22 47h62q-2 -61 -39 -97t-99 -36
q-65 0 -100.5 37.5t-36.5 95.5z" />
    <glyph glyph-name="uni1EB6" unicode="&#x1eb6;" horiz-adv-x="636" 
d="M419 191h-213l-58 -191h-127l216 674h157l219 -674h-133zM226 284h173l-53 166q-9 28 -34 126h-2l-14 -55l-18 -71zM182 840h68q9 -47 65 -47q58 0 67 47h66q-2 -53 -35 -85t-99 -32t-98 31.5t-34 85.5zM312 -201q-25 0 -42.5 18t-17.5 42q0 25 18 43t44 18q24 0 41 -18
t17 -43t-17 -42.5t-43 -17.5z" />
    <glyph glyph-name="uni1EB7" unicode="&#x1eb7;" horiz-adv-x="508" 
d="M444 292v-175q0 -77 8 -117h-111l-9 54h-3q-50 -65 -144 -65q-70 0 -111.5 43t-41.5 102q0 90 76 137.5t213 46.5v8q0 33 -21 59t-78 26q-74 0 -131 -36l-24 80q70 43 176 43q108 0 154.5 -57.5t46.5 -148.5zM324 171v67q-170 2 -170 -91q0 -34 19.5 -52t50.5 -18
q36 0 61.5 19.5t35.5 47.5q3 9 3 27zM122 688h67q4 -30 20.5 -47.5t43.5 -17.5q31 0 47.5 19t18.5 46h67q-1 -61 -36 -98t-96 -37q-65 0 -98 38t-34 97zM255 -80q25 0 42 -18t17 -44t-17 -44t-44 -18q-25 0 -43 18t-18 44t18 44t45 18z" />
    <glyph glyph-name="uni1EB8" unicode="&#x1eb8;" horiz-adv-x="515" 
d="M448 399v-100h-254v-198h284v-101h-407v674h392v-101h-269v-174h254zM257 -201q-25 0 -42.5 18t-17.5 42q0 25 18 43t44 18q24 0 41 -18t17 -43t-17 -42.5t-43 -17.5z" />
    <glyph glyph-name="uni1EB9" unicode="&#x1eb9;" horiz-adv-x="516" 
d="M479 209h-326q2 -63 44 -94.5t106 -31.5q71 0 135 22l18 -84q-72 -31 -170 -31q-117 0 -184 66.5t-67 179.5q0 108 63.5 185t174.5 77q46 0 82.5 -14.5t60 -38t39 -55t22 -64t6.5 -65.5q0 -30 -4 -52zM153 295h214q1 44 -22.5 81.5t-78.5 37.5q-52 0 -80 -37t-33 -82z
M259 -80q25 0 42 -17.5t17 -44.5q0 -25 -17.5 -43.5t-43.5 -18.5q-25 0 -43 18.5t-18 43.5q0 26 18 44t45 18z" />
    <glyph glyph-name="uni1EBA" unicode="&#x1eba;" horiz-adv-x="515" 
d="M448 399v-100h-254v-198h284v-101h-407v674h392v-101h-269v-174h254zM306 707l-60 14q8 21 29.5 44.5t21.5 40.5q0 14 -8.5 22.5t-22.5 8.5q-25 0 -47 -35l-42 26q37 73 112 73q37 0 64 -23.5t27 -55.5q0 -25 -12 -42t-32 -36t-30 -37z" />
    <glyph glyph-name="uni1EBB" unicode="&#x1ebb;" horiz-adv-x="516" 
d="M479 209h-326q2 -63 44 -94.5t106 -31.5q71 0 135 22l18 -84q-72 -31 -170 -31q-117 0 -184 66.5t-67 179.5q0 108 63.5 185t174.5 77q56 0 99 -21.5t66 -57.5t34 -75.5t11 -82.5q0 -30 -4 -52zM153 295h214q1 44 -22.5 81.5t-78.5 37.5q-52 0 -80 -37t-33 -82zM278 528
l-61 15q6 22 30.5 49.5t24.5 46.5q0 15 -9 24t-22 9q-25 0 -46 -34l-42 26q36 73 110 73q39 0 66 -23t27 -58q0 -27 -14 -48t-35 -41.5t-29 -38.5z" />
    <glyph glyph-name="uni1EBC" unicode="&#x1ebc;" horiz-adv-x="515" 
d="M448 399v-100h-254v-198h284v-101h-407v674h392v-101h-269v-174h254zM203 715h-60q-1 55 18.5 85.5t54.5 30.5q27 0 62 -20q32 -19 46 -19q13 0 19 8.5t8 32.5h59q3 -112 -74 -112q-28 0 -63 19q-36 19 -45 19q-22 0 -25 -44z" />
    <glyph glyph-name="uni1EBD" unicode="&#x1ebd;" horiz-adv-x="516" 
d="M479 209h-326q2 -63 44 -94.5t106 -31.5q71 0 135 22l18 -84q-72 -31 -170 -31q-117 0 -184 66.5t-67 179.5q0 108 63.5 185t174.5 77q56 0 99 -21.5t66 -57.5t34 -75.5t11 -82.5q0 -30 -4 -52zM153 295h214q1 44 -22.5 81.5t-78.5 37.5q-52 0 -80 -37t-33 -82zM185 562
h-61q-2 56 18.5 87.5t57.5 31.5q23 0 63 -21q32 -18 43 -18q23 0 26 43h60q3 -116 -76 -116q-27 0 -65 21q-29 17 -41 17q-22 0 -25 -45z" />
    <glyph glyph-name="uni1EBE" unicode="&#x1ebe;" horiz-adv-x="515" 
d="M448 399v-100h-254v-198h284v-101h-407v674h392v-101h-269v-174h254zM227 829h87l92 -119h-85l-50 66h-2l-49 -66h-84zM436 908h112l-128 -110h-63z" />
    <glyph glyph-name="uni1EBF" unicode="&#x1ebf;" horiz-adv-x="516" 
d="M479 209h-326q2 -63 44 -94.5t106 -31.5q71 0 135 22l18 -84q-72 -31 -170 -31q-117 0 -184 66.5t-67 179.5q0 108 63.5 185t174.5 77q56 0 99 -21.5t66 -57.5t34 -75.5t11 -82.5q0 -30 -4 -52zM153 295h214q1 44 -22.5 81.5t-78.5 37.5q-52 0 -80 -37t-33 -82zM231 698
h87l88 -148h-83l-47 90h-2l-48 -90h-82zM446 787h101l-109 -141h-65z" />
    <glyph glyph-name="uni1EC0" unicode="&#x1ec0;" horiz-adv-x="515" 
d="M447 399l1 -100h-254v-198h284v-101h-407v674h392v-101h-269v-174h253zM299 892h113l69 -109h-68zM225 829h86l92 -119h-85l-49 66h-2l-49 -66h-84z" />
    <glyph glyph-name="uni1EC1" unicode="&#x1ec1;" horiz-adv-x="516" 
d="M479 209h-326q2 -63 44 -94.5t106 -31.5q71 0 135 22l18 -84q-72 -31 -170 -31q-117 0 -184 66.5t-67 179.5q0 108 63.5 185t174.5 77q56 0 99 -21.5t66 -57.5t34 -75.5t11 -82.5q0 -30 -4 -52zM153 295h214q1 44 -22.5 81.5t-78.5 37.5q-52 0 -80 -37t-33 -82zM312 788
h98l67 -142h-65zM228 698h87l88 -148h-84l-47 90h-2l-47 -90h-83z" />
    <glyph glyph-name="uni1EC2" unicode="&#x1ec2;" horiz-adv-x="515" 
d="M448 399v-100h-254v-198h284v-101h-407v674h392v-101h-269v-174h254zM226 829h87l92 -119h-86l-49 66h-2l-49 -66h-84zM439 756l-51 13q7 20 28.5 43.5t21.5 39.5q0 13 -9 22t-23 9q-24 0 -47 -36l-39 23q36 70 105 70q36 0 60.5 -21.5t24.5 -53.5q0 -22 -11.5 -38
t-30.5 -34.5t-29 -36.5z" />
    <glyph glyph-name="uni1EC3" unicode="&#x1ec3;" horiz-adv-x="516" 
d="M478 209h-325q2 -63 44 -94.5t106 -31.5q71 0 135 22l18 -84q-72 -31 -170 -31q-117 0 -184 66.5t-67 179.5q0 108 63.5 185t174.5 77q56 0 99 -21.5t66 -57.5t34 -75.5t11 -82.5q0 -34 -5 -52zM153 295h214q1 44 -22.5 81.5t-78.5 37.5q-52 0 -80 -37t-33 -82zM223 698
h87l88 -148h-83l-47 90h-3l-47 -90h-82zM434 634l-55 13q7 19 27.5 41.5t20.5 38.5q0 13 -8.5 22t-21.5 9q-22 0 -45 -34l-39 24q35 69 105 69q36 0 61 -22.5t25 -52.5q0 -31 -31.5 -63t-38.5 -45z" />
    <glyph glyph-name="uni1EC4" unicode="&#x1ec4;" horiz-adv-x="515" 
d="M448 399v-100h-254v-198h284v-101h-407v674h392v-101h-269v-174h254zM233 829h93l103 -119h-92l-56 65h-2l-56 -65h-91zM211 844h-61q-1 48 19.5 76.5t56.5 28.5q23 0 63 -21q28 -16 43 -16q13 0 19 8.5t7 31.5h60q3 -107 -76 -107q-23 0 -65 22q-30 15 -41 15
q-22 0 -25 -38z" />
    <glyph glyph-name="uni1EC5" unicode="&#x1ec5;" horiz-adv-x="516" 
d="M479 209h-326q2 -63 44 -94.5t106 -31.5q71 0 135 22l18 -84q-72 -31 -170 -31q-117 0 -184 66.5t-67 179.5q0 108 63.5 185t174.5 77q56 0 99 -21.5t66 -57.5t34 -75.5t11 -82.5q0 -30 -4 -52zM153 295h214q1 44 -22.5 81.5t-78.5 37.5q-52 0 -80 -37t-33 -82zM224 674
h88l93 -125h-85l-51 72h-2l-50 -72h-85zM199 689h-61q-1 48 19.5 76t56.5 28q25 0 63 -20q30 -17 43 -17q12 0 18.5 8.5t7.5 31.5h60q3 -106 -76 -106q-22 0 -64 21q-30 16 -42 16q-22 0 -25 -38z" />
    <glyph glyph-name="uni1EC6" unicode="&#x1ec6;" horiz-adv-x="515" 
d="M448 399v-100h-254v-198h284v-101h-407v674h392v-101h-269v-174h254zM223 829h93l103 -119h-92l-56 65h-2l-56 -65h-91zM269 -201q-25 0 -42.5 18t-17.5 42q0 25 18 43t44 18q24 0 41 -18t17 -43t-17 -42.5t-43 -17.5z" />
    <glyph glyph-name="uni1EC7" unicode="&#x1ec7;" horiz-adv-x="516" 
d="M479 209h-326q2 -63 44 -94.5t106 -31.5q71 0 135 22l18 -84q-72 -31 -170 -31q-117 0 -184 66.5t-67 179.5q0 108 63.5 185t174.5 77q46 0 82.5 -14.5t60 -38t39 -55t22 -64t6.5 -65.5q0 -30 -4 -52zM153 295h214q1 44 -22.5 81.5t-78.5 37.5q-52 0 -80 -37t-33 -82z
M216 698h83l98 -148h-85l-53 90h-2l-54 -90h-84zM259 -80q25 0 42 -18t17 -44t-17 -44t-44 -18q-25 0 -43 18t-18 44t18 44t45 18z" />
    <glyph glyph-name="uni1EC8" unicode="&#x1ec8;" horiz-adv-x="264" 
d="M71 674h123v-674h-123v674zM163 707l-60 15q8 20 29.5 43.5t21.5 40.5q0 14 -8.5 22.5t-22.5 8.5q-25 0 -47 -35l-42 26q37 73 112 73q37 0 63.5 -23.5t26.5 -55.5q0 -25 -12 -42t-31.5 -36t-29.5 -37z" />
    <glyph glyph-name="uni1EC9" unicode="&#x1ec9;" horiz-adv-x="256" 
d="M189 0h-123v487h123v-487zM148 528l-61 15q6 22 30.5 49.5t24.5 46.5q0 15 -9 24t-22 9q-23 0 -46 -34l-42 26q36 73 110 73q39 0 66 -23t27 -58q0 -27 -14 -48t-35 -41.5t-29 -38.5z" />
    <glyph glyph-name="uni1ECA" unicode="&#x1eca;" horiz-adv-x="264" 
d="M71 674h123v-674h-123v674zM132 -201q-25 0 -42.5 18t-17.5 42q0 25 18 43t44 18q24 0 41 -18t17 -43t-17 -42.5t-43 -17.5z" />
    <glyph glyph-name="uni1ECB" unicode="&#x1ecb;" horiz-adv-x="256" 
d="M189 0h-123v487h123v-487zM128 690q31 0 49.5 -19t19.5 -48q0 -28 -19.5 -47t-50.5 -19q-30 0 -49 19t-19 47q0 29 19.5 48t49.5 19zM129 -80q25 0 42 -18t17 -44t-17 -44t-44 -18q-25 0 -43 18t-18 44t18 44t45 18z" />
    <glyph glyph-name="uni1ECC" unicode="&#x1ecc;" horiz-adv-x="704" 
d="M357 686q144 0 228 -96.5t84 -245.5q0 -166 -90 -260.5t-232 -94.5q-141 0 -226 96.5t-85 246.5q0 156 89.5 255t231.5 99zM353 587q-88 0 -137.5 -71.5t-49.5 -180.5q0 -107 50.5 -177t136.5 -70q87 0 136.5 71.5t49.5 180.5q0 102 -49 174.5t-137 72.5zM352 -201
q-25 0 -42.5 18t-17.5 42q0 25 18 43t44 18q24 0 41 -18t17 -43t-17 -42.5t-43 -17.5z" />
    <glyph glyph-name="uni1ECD" unicode="&#x1ecd;" horiz-adv-x="564" 
d="M287 497q108 0 175 -69t67 -180q0 -126 -74 -192.5t-176 -66.5q-106 0 -175 68t-69 182q0 118 70 188t182 70zM284 408q-61 0 -91.5 -48.5t-30.5 -117.5q0 -71 33 -117.5t88 -46.5q53 0 86 46.5t33 119.5q0 65 -30 114.5t-88 49.5zM283 -79q25 0 42 -18t17 -44t-17 -44
t-44 -18q-25 0 -43 18t-18 44t18 44t45 18z" />
    <glyph glyph-name="uni1ECE" unicode="&#x1ece;" horiz-adv-x="704" 
d="M357 686q144 0 228 -96.5t84 -245.5q0 -166 -90 -260.5t-232 -94.5q-141 0 -226 96.5t-85 246.5q0 156 89.5 255t231.5 99zM353 587q-88 0 -137.5 -71.5t-49.5 -180.5q0 -107 50.5 -177t136.5 -70q87 0 136.5 71.5t49.5 180.5q0 102 -49 174.5t-137 72.5zM383 708l-60 15
q7 21 29 44.5t22 39.5q0 14 -9 22.5t-23 8.5q-23 0 -47 -35l-41 26q37 73 111 73q38 0 64.5 -23.5t26.5 -55.5q0 -24 -12 -41.5t-31.5 -36.5t-29.5 -37z" />
    <glyph glyph-name="uni1ECF" unicode="&#x1ecf;" horiz-adv-x="564" 
d="M287 498q108 0 175 -69.5t67 -180.5q0 -126 -74 -192.5t-176 -66.5q-106 0 -175 68t-69 183q0 118 70 188t182 70zM284 409q-61 0 -91.5 -49t-30.5 -117q0 -72 33 -118.5t88 -46.5q53 0 86 46.5t33 120.5q0 65 -30 114.5t-88 49.5zM303 528l-62 15q6 22 31 49.5t25 46.5
q0 15 -9 24t-23 9q-24 0 -45 -34l-43 26q36 73 111 73q39 0 65.5 -23t26.5 -58q0 -27 -14 -48t-34.5 -41.5t-28.5 -38.5z" />
    <glyph glyph-name="uni1ED0" unicode="&#x1ed0;" horiz-adv-x="704" 
d="M356 686q144 0 228.5 -96.5t84.5 -245.5q0 -166 -90 -260.5t-232 -94.5q-141 0 -226 96.5t-85 246.5q0 155 89 254t231 100zM353 587q-88 0 -137.5 -71.5t-49.5 -181.5q0 -106 50.5 -176t136.5 -70q87 0 136.5 71t49.5 180q0 102 -49 174.5t-137 73.5zM317 830h87
l92 -119h-86l-49 66h-2l-49 -66h-84zM526 909h112l-128 -110h-64z" />
    <glyph glyph-name="uni1ED1" unicode="&#x1ed1;" horiz-adv-x="564" 
d="M287 498q108 0 175 -69.5t67 -180.5q0 -126 -74 -192.5t-176 -66.5q-106 0 -175 68t-69 183q0 118 70 188t182 70zM284 409q-61 0 -91.5 -49t-30.5 -117q0 -72 33 -118.5t88 -46.5q53 0 86 46.5t33 120.5q0 65 -30 114.5t-88 49.5zM243 698h87l88 -148h-83l-48 90h-2
l-47 -90h-82zM458 787h101l-109 -141h-65z" />
    <glyph glyph-name="uni1ED2" unicode="&#x1ed2;" horiz-adv-x="704" 
d="M356 686q144 0 228.5 -96.5t84.5 -245.5q0 -166 -90 -260.5t-232 -94.5q-141 0 -226 96.5t-85 246.5q0 155 89 254t231 100zM353 587q-88 0 -137.5 -71.5t-49.5 -181.5q0 -106 50.5 -176t136.5 -70q87 0 136.5 71t49.5 180q0 102 -49 174.5t-137 73.5zM388 893h113
l68 -109h-68zM313 830h87l92 -119h-86l-49 66h-2l-49 -66h-84z" />
    <glyph glyph-name="uni1ED3" unicode="&#x1ed3;" horiz-adv-x="564" 
d="M287 498q108 0 175 -69.5t67 -180.5q0 -126 -74 -192.5t-176 -66.5q-106 0 -175 68t-69 183q0 118 70 188t182 70zM284 409q-61 0 -91.5 -49t-30.5 -117q0 -72 33 -118.5t88 -46.5q53 0 86 46.5t33 120.5q0 65 -30 114.5t-88 49.5zM328 788h98l67 -142h-65zM244 698h87
l88 -148h-84l-47 90h-2l-47 -90h-82z" />
    <glyph glyph-name="uni1ED4" unicode="&#x1ed4;" horiz-adv-x="704" 
d="M357 686q144 0 228 -96.5t84 -245.5q0 -166 -90 -260.5t-232 -94.5q-141 0 -226 96.5t-85 246.5q0 156 89.5 255t231.5 99zM353 587q-88 0 -137.5 -71.5t-49.5 -180.5q0 -107 50.5 -177t136.5 -70q87 0 136.5 71.5t49.5 180.5q0 102 -49 174.5t-137 72.5zM318 829h86
l92 -119h-85l-49 66h-2l-49 -66h-84zM530 757l-51 13q7 19 29 42.5t22 39.5q0 13 -9 22t-23 9q-26 0 -47 -36l-39 24q35 69 104 69q37 0 61 -21.5t24 -53.5q0 -22 -11.5 -38t-30.5 -34t-29 -36z" />
    <glyph glyph-name="uni1ED5" unicode="&#x1ed5;" horiz-adv-x="564" 
d="M287 498q108 0 175 -69.5t67 -180.5q0 -126 -74 -192.5t-176 -66.5q-106 0 -175 68t-69 183q0 118 70 188t182 70zM284 409q-61 0 -91.5 -49t-30.5 -117q0 -72 33 -118.5t88 -46.5q53 0 86 46.5t33 120.5q0 65 -30 114.5t-88 49.5zM239 698h87l88 -148h-84l-47 90h-2
l-47 -90h-82zM449 634l-55 13q7 19 28 41.5t21 38.5q0 13 -9 22t-22 9q-24 0 -44 -34l-39 24q35 69 105 69q36 0 60.5 -22.5t24.5 -52.5q0 -31 -31.5 -63t-38.5 -45z" />
    <glyph glyph-name="uni1ED6" unicode="&#x1ed6;" horiz-adv-x="704" 
d="M357 686q144 0 228 -96.5t84 -245.5q0 -166 -90 -260.5t-232 -94.5q-141 0 -226 96.5t-85 246.5q0 156 89.5 255t231.5 99zM353 587q-88 0 -137.5 -71.5t-49.5 -180.5q0 -107 50.5 -177t136.5 -70q87 0 136.5 71.5t49.5 180.5q0 102 -49 174.5t-137 72.5zM307 829h93
l103 -119h-92l-56 65h-2l-56 -65h-91zM285 844h-61q-1 48 19.5 76.5t56.5 28.5q23 0 63 -21q28 -16 43 -16q13 0 19 8.5t7 31.5h60q3 -107 -76 -107q-23 0 -65 22q-30 15 -41 15q-22 0 -25 -38z" />
    <glyph glyph-name="uni1ED7" unicode="&#x1ed7;" horiz-adv-x="564" 
d="M287 498q108 0 175 -69.5t67 -180.5q0 -126 -74 -192.5t-176 -66.5q-106 0 -175 68t-69 183q0 118 70 188t182 70zM284 409q-61 0 -91.5 -49t-30.5 -117q0 -72 33 -118.5t88 -46.5q53 0 86 46.5t33 120.5q0 65 -30 114.5t-88 49.5zM238 674h87l93 -125h-85l-51 72h-2
l-50 -72h-85zM212 689h-61q-1 48 19.5 76t56.5 28q25 0 63 -20q30 -17 43 -17q12 0 18.5 8.5t7.5 31.5h60q3 -106 -76 -106q-22 0 -64 21q-30 16 -42 16q-22 0 -25 -38z" />
    <glyph glyph-name="uni1ED8" unicode="&#x1ed8;" horiz-adv-x="704" 
d="M357 686q144 0 228 -96.5t84 -245.5q0 -166 -90 -260.5t-232 -94.5q-141 0 -226 96.5t-85 246.5q0 156 89.5 255t231.5 99zM353 587q-88 0 -137.5 -71.5t-49.5 -180.5q0 -107 50.5 -177t136.5 -70q87 0 136.5 71.5t49.5 180.5q0 102 -49 174.5t-137 72.5zM305 829h93
l103 -119h-92l-56 65h-2l-56 -65h-91zM352 -201q-25 0 -42.5 18t-17.5 42q0 25 18 43t44 18q24 0 41 -18t17 -43t-17 -42.5t-43 -17.5z" />
    <glyph glyph-name="uni1ED9" unicode="&#x1ed9;" horiz-adv-x="564" 
d="M287 497q108 0 175 -69t67 -180q0 -126 -74 -192.5t-176 -66.5q-106 0 -175 68t-69 182q0 118 70 188t182 70zM284 408q-61 0 -91.5 -48.5t-30.5 -117.5q0 -71 33 -117.5t88 -46.5q53 0 86 46.5t33 119.5q0 65 -30 114.5t-88 49.5zM240 698h83l98 -148h-85l-53 90h-2
l-54 -90h-84zM283 -80q25 0 42 -18t17 -44t-17 -44t-44 -18q-25 0 -43 18t-18 44t18 44t45 18z" />
    <glyph glyph-name="uni1EDA" unicode="&#x1eda;" horiz-adv-x="704" 
d="M352 88q87 0 137 71.5t50 180.5q0 102 -49 174.5t-137 72.5t-137.5 -72.5t-49.5 -178.5q0 -105 50 -176.5t136 -71.5zM597 742l90 16q21 -46 21 -92t-26.5 -74t-78.5 -27q66 -89 66 -221q0 -166 -90 -260.5t-233 -94.5q-140 0 -225 96.5t-85 246.5q0 156 89 255t231 99
q64 0 115 -20q10 -3 32.5 -13t40.5 -16t31 -6q41 0 41 43q0 30 -19 68zM385 830h136l-125 -120h-99z" />
    <glyph glyph-name="uni1EDB" unicode="&#x1edb;" horiz-adv-x="573" 
d="M283 409q-60 0 -90.5 -49t-30.5 -117q0 -72 33 -118.5t88 -46.5q53 0 86 46.5t33 120.5q0 66 -30 115t-89 49zM474 561l89 15q20 -44 20 -85q0 -43 -25 -69t-70 -27q41 -60 41 -147q0 -126 -74 -192.5t-176 -66.5q-106 0 -175 68t-69 183q0 118 70 188t182 70
q42 0 86 -13q8 -3 25 -10.5t31.5 -12t26.5 -4.5q37 0 37 38q0 30 -19 65zM311 698h120l-122 -148h-85z" />
    <glyph glyph-name="uni1EDC" unicode="&#x1edc;" horiz-adv-x="704" 
d="M352 88q87 0 137 71.5t50 180.5q0 102 -49 174.5t-137 72.5t-137.5 -72.5t-49.5 -178.5q0 -105 50 -176.5t136 -71.5zM597 742l90 15q21 -44 21 -91q0 -46 -26.5 -74t-78.5 -27q66 -89 66 -221q0 -166 -90 -260.5t-233 -94.5q-140 0 -225 96.5t-85 246.5q0 156 89 255
t231 99q64 0 115 -20q10 -3 32.5 -13t40.5 -16t31 -6q41 0 41 43q0 30 -19 68zM200 830h136l88 -119h-99z" />
    <glyph glyph-name="uni1EDD" unicode="&#x1edd;" horiz-adv-x="573" 
d="M283 409q-60 0 -90.5 -49t-30.5 -117q0 -72 33 -118.5t88 -46.5q53 0 86 46.5t33 120.5q0 66 -30 115t-89 49zM474 561l89 15q20 -44 20 -85q0 -43 -25 -69t-70 -27q41 -60 41 -147q0 -126 -74 -192.5t-176 -66.5q-106 0 -175 68t-69 183q0 118 70 188t182 70
q42 0 86 -13q8 -3 25 -10.5t31.5 -12t26.5 -4.5q37 0 37 38q0 30 -19 65zM141 698h120l87 -148h-85z" />
    <glyph glyph-name="uni1EDE" unicode="&#x1ede;" horiz-adv-x="704" 
d="M352 88q87 0 137 71.5t50 180.5q0 102 -49 174.5t-137 72.5t-137.5 -72.5t-49.5 -178.5q0 -105 50 -176.5t136 -71.5zM597 743l90 16q21 -46 21 -93q0 -46 -26.5 -74t-78.5 -27q66 -89 66 -221q0 -166 -90 -260.5t-233 -94.5q-140 0 -225 96.5t-85 246.5q0 156 89 255
t231 99q62 0 115 -19q10 -3 32.5 -13t40.5 -16t31 -6q41 0 41 42q0 31 -19 69zM383 708l-60 15q7 21 29 44.5t22 39.5q0 14 -9 22.5t-23 8.5q-23 0 -47 -35l-41 26q37 73 111 73q38 0 64.5 -23.5t26.5 -55.5q0 -24 -12 -41.5t-31.5 -36.5t-29.5 -37z" />
    <glyph glyph-name="uni1EDF" unicode="&#x1edf;" horiz-adv-x="573" 
d="M283 409q-60 0 -90.5 -49t-30.5 -117q0 -72 33 -118.5t88 -46.5q53 0 86 46.5t33 120.5q0 66 -30 115t-89 49zM474 561l89 15q20 -42 20 -85t-25 -69t-70 -27q41 -60 41 -147q0 -126 -74 -192.5t-176 -66.5q-106 0 -175 68t-69 183q0 118 70 188t182 70q42 0 86 -13
q8 -3 25 -10.5t31.5 -12t26.5 -4.5q37 0 37 38q0 30 -19 65zM303 528l-62 15q6 22 30.5 49.5t24.5 46.5q0 15 -9 24t-22 9q-23 0 -46 -34l-42 26q36 73 110 73q39 0 66 -23t27 -58q0 -27 -14 -48t-34.5 -41.5t-28.5 -38.5z" />
    <glyph glyph-name="uni1EE0" unicode="&#x1ee0;" horiz-adv-x="704" 
d="M353 88q86 0 136 71t50 180q0 102 -49 174.5t-137 73.5q-88 0 -137.5 -72.5t-49.5 -179.5q0 -105 50.5 -176t136.5 -71zM597 742l90 16q21 -46 21 -93q0 -46 -26.5 -74t-78.5 -27q66 -89 66 -220q0 -166 -90 -260.5t-233 -94.5q-140 0 -225 96.5t-85 246.5q0 155 89 254
t231 100q64 0 115 -20q10 -3 32.5 -13t40.5 -16t31 -6q41 0 41 42q0 31 -19 69zM286 716l-60 -1q-1 55 18.5 85.5t55.5 30.5q26 0 61 -20q32 -19 46 -19q13 0 19 8.5t8 32.5h59q3 -112 -75 -112q-30 0 -63 20q-36 18 -44 18q-22 0 -25 -43z" />
    <glyph glyph-name="uni1EE1" unicode="&#x1ee1;" horiz-adv-x="573" 
d="M283 409q-60 0 -91 -49.5t-30 -116.5q0 -72 33 -118.5t88 -46.5q53 0 86.5 46.5t32.5 120.5q0 66 -30 115t-89 49zM474 561l89 15q20 -42 20 -85t-25 -69t-70 -27q41 -60 41 -147q0 -126 -74 -192.5t-176 -66.5q-106 0 -175 68t-69 183q0 118 70 188t182 70q43 0 87 -13
q8 -3 25 -10.5t31 -12t26 -4.5q39 0 37 38q0 30 -19 65zM209 562h-61q-2 56 18.5 87.5t56.5 31.5q24 0 64 -21q32 -18 42 -18q13 0 19.5 9.5t7.5 33.5h60q3 -116 -76 -116q-27 0 -65 21q-29 17 -41 17q-22 0 -25 -45z" />
    <glyph glyph-name="uni1EE2" unicode="&#x1ee2;" horiz-adv-x="704" 
d="M352 88q87 0 137 71.5t50 180.5q0 102 -49 174.5t-137 72.5t-137.5 -72.5t-49.5 -178.5q0 -105 50 -176.5t136 -71.5zM597 743l90 16q21 -46 21 -93q0 -46 -26.5 -74t-78.5 -27q66 -89 66 -221q0 -166 -90 -260.5t-233 -94.5q-140 0 -225 96.5t-85 246.5q0 156 89 255
t231 99q62 0 115 -19q10 -3 32.5 -13t40.5 -16t31 -6q41 0 41 42q0 31 -19 69zM354 -201h-2q-25 0 -42.5 18t-17.5 42q0 25 18 43t44 18q24 0 41 -18t17 -43q0 -24 -17 -42t-41 -18z" />
    <glyph glyph-name="uni1EE3" unicode="&#x1ee3;" horiz-adv-x="573" 
d="M283 409q-60 0 -90.5 -49t-30.5 -117q0 -72 33 -118.5t88 -46.5q53 0 86 46.5t33 120.5q0 66 -30 115t-89 49zM474 561l89 15q20 -42 20 -85t-25 -69t-70 -27q41 -60 41 -147q0 -126 -74 -192.5t-176 -66.5q-106 0 -175 68t-69 183q0 118 70 188t182 70q42 0 86 -13
q8 -3 25 -10.5t31.5 -12t26.5 -4.5q37 0 37 38q0 30 -19 65zM285 -80q25 0 42 -18t17 -44t-17 -44t-44 -18q-25 0 -43 18t-18 44t18 44t45 18z" />
    <glyph glyph-name="uni1EE4" unicode="&#x1ee4;" horiz-adv-x="666" 
d="M70 674h123v-393q0 -96 37 -144.5t101 -48.5q142 0 142 193v393h123v-385q0 -151 -71.5 -225.5t-197.5 -74.5q-122 0 -189.5 72.5t-67.5 226.5v386zM333 -201q-25 0 -42.5 18t-17.5 42q0 25 18 43t44 18q24 0 41 -18t17 -43t-17 -42.5t-43 -17.5z" />
    <glyph glyph-name="uni1EE5" unicode="&#x1ee5;" horiz-adv-x="569" 
d="M502 487v-341q0 -66 4 -146h-107l-6 73h-3q-52 -84 -157 -84q-74 0 -121.5 50.5t-47.5 161.5v286h123v-265q0 -133 91 -133q35 0 59.5 19.5t34.5 46.5q7 14 7 38v294h123zM286 -80q25 0 42 -18t17 -44t-17 -44t-44 -18q-25 0 -43 18t-18 44t18 44t45 18z" />
    <glyph glyph-name="uni1EE6" unicode="&#x1ee6;" horiz-adv-x="666" 
d="M70 674h123v-393q0 -96 37 -144.5t101 -48.5q142 0 142 193v393h123v-385q0 -151 -71.5 -225.5t-197.5 -74.5q-122 0 -189.5 72.5t-67.5 226.5v386zM363 707l-59 15q7 20 28.5 43.5t21.5 40.5q0 14 -8.5 22.5t-22.5 8.5q-25 0 -47 -35l-42 26q37 73 112 73
q38 0 64.5 -23.5t26.5 -55.5q0 -25 -12 -42t-32 -36t-30 -37z" />
    <glyph glyph-name="uni1EE7" unicode="&#x1ee7;" horiz-adv-x="569" 
d="M502 487v-341q0 -66 4 -146h-107l-6 73h-3q-52 -84 -157 -84q-74 0 -121.5 50.5t-47.5 161.5v286h123v-265q0 -133 91 -133q35 0 59.5 19.5t34.5 46.5q7 14 7 38v294h123zM305 528l-61 15q6 22 30.5 49.5t24.5 46.5q0 15 -9 24t-22 9q-25 0 -46 -34l-43 26q36 73 111 73
q39 0 66 -23t27 -58q0 -27 -14 -48t-35 -41.5t-29 -38.5z" />
    <glyph glyph-name="uni1EE8" unicode="&#x1ee8;" horiz-adv-x="705" 
d="M603 775l89 15q20 -44 20 -85q0 -42 -25.5 -68t-74.5 -30l-16 -1v-317q0 -151 -71.5 -225.5t-197.5 -74.5q-122 0 -189.5 72.5t-67.5 226.5v386h123v-393q0 -96 37 -144.5t101 -48.5q142 0 142 193v393h99q28 0 38.5 9.5t10.5 29.5q0 32 -18 62zM356 830h136l-125 -120
h-99z" />
    <glyph glyph-name="uni1EE9" unicode="&#x1ee9;" horiz-adv-x="569" 
d="M491 589l89 15q20 -38 20 -82q0 -41 -25 -66t-64 -28l-9 -1v-281q0 -66 4 -146h-107l-6 74h-3q-52 -85 -157 -85q-74 0 -121.5 50.5t-47.5 161.5v286h123v-265q0 -132 91 -133q35 0 59.5 19.5t34.5 46.5q7 14 7 38v294h82q50 0 50 40q0 29 -20 62zM327 698h120l-122 -148
h-85z" />
    <glyph glyph-name="uni1EEA" unicode="&#x1eea;" horiz-adv-x="705" 
d="M603 775l89 15q20 -44 20 -85q0 -42 -25.5 -68t-74.5 -30l-16 -1v-317q0 -151 -71.5 -225.5t-197.5 -74.5q-122 0 -189.5 72.5t-67.5 226.5v386h123v-393q0 -96 37 -144.5t101 -48.5q142 0 142 193v393h99q28 0 38.5 9.5t10.5 29.5q0 32 -18 62zM178 830h136l88 -119h-99
z" />
    <glyph glyph-name="uni1EEB" unicode="&#x1eeb;" horiz-adv-x="569" 
d="M491 589l89 15q20 -38 20 -82q0 -41 -25 -66t-64 -28l-9 -1v-281q0 -66 4 -146h-107l-6 74h-3q-52 -85 -157 -85q-74 0 -121.5 50.5t-47.5 161.5v286h123v-265q0 -132 91 -133q35 0 59.5 19.5t34.5 46.5q7 14 7 38v294h82q50 0 50 40q0 29 -20 62zM145 698h120l87 -148
h-85z" />
    <glyph glyph-name="uni1EEC" unicode="&#x1eec;" horiz-adv-x="705" 
d="M603 775l89 15q20 -44 20 -85q0 -42 -25.5 -68t-74.5 -30l-16 -1v-317q0 -151 -71.5 -225.5t-197.5 -74.5q-122 0 -189.5 72.5t-67.5 226.5v386h123v-393q0 -96 37 -144.5t101 -48.5q142 0 142 193v393h99q28 0 38.5 9.5t10.5 29.5q0 32 -18 62zM383 707l-60 15
q8 20 29.5 43.5t21.5 40.5q0 14 -8.5 22.5t-22.5 8.5q-24 0 -48 -35l-41 26q37 73 112 73q37 0 64 -23.5t27 -55.5q0 -25 -12 -42t-32 -36t-30 -37z" />
    <glyph glyph-name="uni1EED" unicode="&#x1eed;" horiz-adv-x="569" 
d="M491 589l89 15q20 -38 20 -82q0 -41 -25 -66t-64 -28l-9 -1v-281q0 -66 4 -146h-107l-6 74h-3q-52 -85 -157 -85q-74 0 -121.5 50.5t-47.5 161.5v286h123v-265q0 -132 91 -133q35 0 59.5 19.5t34.5 46.5q7 14 7 38v294h82q50 0 50 40q0 29 -20 62zM313 528l-62 15
q6 22 31 49.5t25 46.5q0 15 -9 24t-23 9q-25 0 -46 -34l-42 26q36 73 111 73q39 0 65.5 -23t26.5 -58q0 -27 -14 -48t-34.5 -41.5t-28.5 -38.5z" />
    <glyph glyph-name="uni1EEE" unicode="&#x1eee;" horiz-adv-x="705" 
d="M603 775l89 15q20 -44 20 -85q0 -42 -25.5 -68t-74.5 -30l-16 -1v-317q0 -151 -71.5 -225.5t-197.5 -74.5q-122 0 -189.5 72.5t-67.5 226.5v386h123v-393q0 -96 37 -144.5t101 -48.5q142 0 142 193v393h99q28 0 38.5 9.5t10.5 29.5q0 32 -18 62zM279 715h-60
q-1 55 18.5 85.5t54.5 30.5q26 0 62 -20q32 -19 46 -19q13 0 19 8.5t8 32.5h59q3 -112 -74 -112q-29 0 -64 19q-34 19 -44 19q-22 0 -25 -44z" />
    <glyph glyph-name="uni1EEF" unicode="&#x1eef;" horiz-adv-x="569" 
d="M491 589l89 15q20 -38 20 -82q0 -41 -25 -66t-64 -28l-9 -1v-281q0 -66 4 -146h-107l-6 74h-3q-52 -85 -157 -85q-74 0 -121.5 50.5t-47.5 161.5v286h123v-265q0 -132 91 -133q35 0 59.5 19.5t34.5 46.5q7 14 7 38v294h82q50 0 50 40q0 29 -20 62zM213 562h-61
q-2 56 18.5 87.5t57.5 31.5q22 0 64 -21q32 -18 42 -18q13 0 19.5 9.5t7.5 33.5h60q3 -116 -76 -116q-26 0 -66 21q-29 17 -41 17q-22 0 -25 -45z" />
    <glyph glyph-name="uni1EF0" unicode="&#x1ef0;" horiz-adv-x="705" 
d="M603 775l89 15q20 -44 20 -85q0 -42 -25.5 -68t-74.5 -30l-16 -1v-317q0 -151 -71.5 -225.5t-197.5 -74.5q-122 0 -189.5 72.5t-67.5 226.5v386h123v-393q0 -96 37 -144.5t101 -48.5q142 0 142 193v393h99q28 0 38.5 9.5t10.5 29.5q0 32 -18 62zM354 -80q25 0 42 -18
t17 -44t-17 -44t-44 -18q-25 0 -43 18t-18 44t18 44t45 18z" />
    <glyph glyph-name="uni1EF1" unicode="&#x1ef1;" horiz-adv-x="569" 
d="M491 589l89 15q20 -38 20 -82q0 -41 -25 -66t-64 -28l-9 -1v-281q0 -66 4 -146h-107l-6 74h-3q-52 -85 -157 -85q-74 0 -121.5 50.5t-47.5 161.5v286h123v-265q0 -132 91 -133q35 0 59.5 19.5t34.5 46.5q7 14 7 38v294h82q50 0 50 40q0 29 -20 62zM284 -80q25 0 42 -18
t17 -44t-17 -44t-44 -18q-25 0 -43 18t-18 44t18 44t45 18z" />
    <glyph glyph-name="Ygrave" unicode="&#x1ef2;" horiz-adv-x="575" 
d="M347 0h-123v281l-213 393h141l80 -173q36 -78 59 -134h2q19 50 58 134l81 173h139l-224 -390v-284zM136 826h136l88 -119h-99z" />
    <glyph glyph-name="ygrave" unicode="&#x1ef3;" horiz-adv-x="500" 
d="M8 487h136l87 -261q16 -49 28 -94h3q19 73 26 95l76 260h131l-122 -332q-50 -135 -88 -205t-81 -108q-62 -53 -129 -62l-28 103q36 8 71 34q42 26 68 77q7 13 7 22q0 10 -6 24zM112 698h120l87 -148h-85z" />
    <glyph glyph-name="uni1EF4" unicode="&#x1ef4;" horiz-adv-x="575" 
d="M347 0h-123v281l-213 393h141l80 -173q36 -78 59 -134h2q19 50 58 134l81 173h139l-224 -390v-284zM287 -201q-25 0 -42.5 18t-17.5 42q0 25 18 43t44 18q24 0 41 -18t17 -43t-17 -42.5t-43 -17.5z" />
    <glyph glyph-name="uni1EF5" unicode="&#x1ef5;" horiz-adv-x="500" 
d="M8 487h136l87 -261q17 -51 28 -95h3q16 64 26 96l76 260h131l-122 -332q-50 -135 -88 -205t-81 -108q-62 -54 -129 -63l-28 104q36 8 71 34q41 27 67 77q8 14 8 22q0 10 -6 24zM370 -80q25 0 42 -18t17 -44t-17 -44t-44 -18q-25 0 -43 18t-18 44t18 44t45 18z" />
    <glyph glyph-name="uni1EF6" unicode="&#x1ef6;" horiz-adv-x="575" 
d="M347 0h-123v281l-213 393h141l80 -173q36 -78 59 -134h2q19 50 58 134l81 173h139l-224 -390v-284zM318 707l-60 15q8 20 29.5 43.5t21.5 40.5q0 14 -9 22.5t-23 8.5q-24 0 -46 -35l-42 26q37 73 111 73q38 0 64.5 -23.5t26.5 -55.5q0 -25 -12 -42t-31.5 -36t-29.5 -37z
" />
    <glyph glyph-name="uni1EF7" unicode="&#x1ef7;" horiz-adv-x="500" 
d="M8 487h136l87 -261q16 -49 28 -94h3q19 73 26 95l76 260h131l-122 -332q-50 -135 -88 -205t-81 -108q-62 -53 -129 -62l-28 103q36 8 71 34q42 26 68 77q7 13 7 22q0 10 -6 24zM281 528l-61 15q6 22 30.5 49.5t24.5 46.5q0 15 -9 24t-22 9q-25 0 -46 -34l-42 26
q36 73 110 73q39 0 66 -23t27 -58q0 -27 -14 -48t-35 -41.5t-29 -38.5z" />
    <glyph glyph-name="uni1EF8" unicode="&#x1ef8;" horiz-adv-x="575" 
d="M347 0h-123v281l-213 393h141l80 -173q36 -78 59 -134h2q19 50 58 134l81 173h139l-224 -390v-284zM214 715h-60q-1 55 18.5 85.5t54.5 30.5q27 0 62 -20q32 -19 46 -19q13 0 19 8.5t8 32.5h59q3 -112 -74 -112q-30 0 -63 19q-36 19 -45 19q-22 0 -25 -44z" />
    <glyph glyph-name="uni1EF9" unicode="&#x1ef9;" horiz-adv-x="500" 
d="M8 487h136l87 -261q16 -49 28 -94h3q19 73 26 95l76 260h131l-122 -332q-50 -135 -88 -205t-81 -108q-62 -53 -129 -62l-28 103q36 8 71 34q42 26 68 77q7 13 7 22q0 10 -6 24zM185 562h-61q-2 56 18.5 87.5t57.5 31.5q23 0 63 -21q32 -18 43 -18q23 0 26 43h60
q3 -116 -76 -116q-26 0 -66 21q-28 17 -40 17q-22 0 -25 -45z" />
    <glyph glyph-name="uni2010" unicode="&#x2010;" horiz-adv-x="315" 
d="M30 309h255v-85h-255v85z" />
    <glyph glyph-name="endash" unicode="&#x2013;" horiz-adv-x="500" 
d="M30 293h440v-78h-440v78z" />
    <glyph glyph-name="emdash" unicode="&#x2014;" horiz-adv-x="1000" 
d="M30 293h940v-78h-940v78z" />
    <glyph glyph-name="quoteleft" unicode="&#x2018;" horiz-adv-x="236" 
d="M149 438l-119 -9q44 149 108 256l76 7q-47 -132 -65 -254z" />
    <glyph glyph-name="quoteright" unicode="&#x2019;" horiz-adv-x="236" 
d="M94 683l119 10q-43 -148 -108 -256l-76 -8q47 135 65 254z" />
    <glyph glyph-name="quotesinglbase" unicode="&#x201a;" horiz-adv-x="236" 
d="M94 -102l-76 -8q47 131 65 253l119 10q-45 -151 -108 -255z" />
    <glyph glyph-name="quotedblleft" unicode="&#x201c;" horiz-adv-x="409" 
d="M149 438l-119 -9q44 149 108 256l76 7q-46 -123 -65 -254zM323 438l-119 -9q48 155 108 256l76 7q-47 -132 -65 -254z" />
    <glyph glyph-name="quotedblright" unicode="&#x201d;" horiz-adv-x="409" 
d="M94 683l119 10q-47 -153 -108 -256l-76 -8q47 135 65 254zM268 683l119 10q-43 -148 -108 -256l-76 -8q46 126 65 254z" />
    <glyph glyph-name="quotedblbase" unicode="&#x201e;" horiz-adv-x="412" 
d="M93 -102l-76 -8q47 131 65 253l119 10q-48 -156 -108 -255zM267 -102l-76 -8q46 123 65 253l119 10q-45 -151 -108 -255z" />
    <glyph glyph-name="dagger" unicode="&#x2020;" horiz-adv-x="513" 
d="M201 674h112l-11 -206l173 10v-97l-173 10l11 -441h-112l11 441l-173 -10v97l173 -10z" />
    <glyph glyph-name="daggerdbl" unicode="&#x2021;" horiz-adv-x="513" 
d="M201 674h111l-9 -193l172 10v-97l-172 10v-178l172 10v-97l-172 10l9 -199h-111l8 199l-171 -10v97l172 -10v178l-172 -10v97l172 -10z" />
    <glyph glyph-name="bullet" unicode="&#x2022;" horiz-adv-x="313" 
d="M156 142q-49 0 -83.5 34t-34.5 85q-1 49 34 84t85 35t84.5 -34.5t34.5 -84.5t-35 -84.5t-85 -34.5z" />
    <glyph glyph-name="ellipsis" unicode="&#x2026;" horiz-adv-x="1000" 
d="M166 -11q-33 0 -54 22.5t-21 56.5t21.5 56.5t54.5 22.5q34 0 55 -22t21 -57q0 -34 -21 -56.5t-56 -22.5zM500 -11q-33 0 -54 22.5t-21 56.5t21.5 56.5t54.5 22.5q34 0 55 -22t21 -57q0 -34 -21 -56.5t-56 -22.5zM834 -11q-33 0 -54 22.5t-21 56.5t21.5 56.5t54.5 22.5
q34 0 55 -22t21 -57q0 -34 -21 -56.5t-56 -22.5z" />
    <glyph glyph-name="perthousand" unicode="&#x2030;" horiz-adv-x="1227" 
d="M200 661q75 0 119 -52.5t44 -140.5q0 -98 -49 -152.5t-120 -54.5t-118 52.5t-48 143.5q0 92 48 148t124 56zM195 592q-35 0 -54 -36.5t-19 -94.5q-1 -58 19 -94.5t55 -36.5q36 0 54.5 35.5t18.5 96.5q0 130 -74 130zM265 -11h-70l377 672h71zM648 391q76 0 120 -52.5
t44 -140.5q0 -97 -49 -151.5t-121 -54.5q-71 0 -118 52.5t-48 143.5q0 91 48 147t124 56zM644 322q-35 0 -54.5 -37t-19.5 -94q-1 -57 19 -93.5t56 -36.5q73 0 73 131q0 130 -74 130zM1035 391q75 0 119 -52.5t44 -140.5q0 -97 -49 -151.5t-120 -54.5t-118 52.5t-48 143.5
q0 91 48 147t124 56zM1030 322q-35 0 -54 -36.5t-19 -94.5q-1 -57 19 -93.5t55 -36.5q73 0 73 131q0 130 -74 130z" />
    <glyph glyph-name="guilsinglleft" unicode="&#x2039;" horiz-adv-x="264" 
d="M241 440l-125 -188l125 -187h-90l-123 187l123 188h90z" />
    <glyph glyph-name="guilsinglright" unicode="&#x203a;" horiz-adv-x="264" 
d="M148 252l-125 188h89l124 -188l-124 -187h-89z" />
    <glyph glyph-name="fraction" unicode="&#x2044;" horiz-adv-x="124" 
d="M-90 -11h-71l374 672h71z" />
    <glyph glyph-name="zero.superior" unicode="&#x2070;" horiz-adv-x="359" 
d="M177 437q-74 0 -114.5 55t-40.5 145t41 145.5t117 55.5t116.5 -54.5t40.5 -144.5t-40 -146t-120 -56zM180 503q64 0 64 135q0 134 -65 134q-30 0 -47 -34.5t-17 -99.5q0 -66 17 -100.5t48 -34.5z" />
    <glyph glyph-name="four.superior" unicode="&#x2074;" horiz-adv-x="372" 
d="M299 443h-90v95h-191v53l171 243h110v-233h53v-63h-53v-95zM209 602v92q0 14 2 38.5t2 30.5h-3q-18 -36 -35 -63l-68 -97l2 -1h100z" />
    <glyph glyph-name="five.superior" unicode="&#x2075;" horiz-adv-x="330" 
d="M285 831v-71h-158l-10 -65q8 1 29 1q66 0 104 -25q51 -32 51 -98q0 -59 -46.5 -97.5t-121.5 -38.5q-65 0 -113 23l17 65q38 -20 92 -20q32 0 56.5 16.5t24.5 45.5q0 67 -113 67q-26 0 -56 -4l26 201h218z" />
    <glyph glyph-name="six.superior" unicode="&#x2076;" horiz-adv-x="349" 
d="M282 836l1 -67q-17 2 -39 0q-55 -5 -89 -31.5t-43 -66.5l2 -1q34 34 89 34t89.5 -34t34.5 -91q0 -62 -43 -102t-104 -40q-75 0 -116 48.5t-41 121.5q0 108 68 171q55 51 152 57q30 2 39 1zM180 503q25 0 41.5 20t16.5 51t-17 50.5t-48 19.5q-42 0 -60 -39q-4 -12 -4 -21
q0 -34 18.5 -57.5t52.5 -23.5z" />
    <glyph glyph-name="seven.superior" unicode="&#x2077;" horiz-adv-x="316" 
d="M22 831h280v-54l-168 -334h-94l168 316v1h-186v71z" />
    <glyph glyph-name="eight.superior" unicode="&#x2078;" horiz-adv-x="346" 
d="M176 837q63 0 97 -29.5t34 -69.5q0 -26 -16 -49t-45 -36v-2q77 -29 77 -96q0 -52 -42 -85t-110 -33q-71 0 -109 32.5t-38 74.5q0 65 74 97v2q-61 29 -61 86q0 48 39.5 78t99.5 30zM174 498q26 0 42.5 14t16.5 37q0 49 -67 65q-54 -15 -54 -60q0 -23 17 -39.5t45 -16.5z
M172 778q-25 0 -39 -13t-14 -33q0 -40 61 -56q45 14 45 53q0 20 -14 34.5t-39 14.5z" />
    <glyph glyph-name="nine.superior" unicode="&#x2079;" horiz-adv-x="344" 
d="M58 439v67q18 -2 40 0q48 3 83 26q41 28 52 76h-2q-31 -31 -84 -31t-89 33t-36 88q0 59 42.5 99.5t106.5 40.5q73 0 112 -48t39 -120q0 -115 -68 -177q-55 -49 -154 -54q-25 -2 -42 0zM169 773q-25 0 -42 -20t-17 -51q0 -27 16 -46t45 -19q40 0 59 29q4 7 4 22
q0 37 -16 61t-49 24z" />
    <glyph glyph-name="parenleft.superior" unicode="&#x207d;" horiz-adv-x="193" 
d="M113 868h64q-64 -105 -64 -241q0 -130 64 -239h-64q-73 102 -73 239q0 136 73 241z" />
    <glyph glyph-name="parenright.superior" unicode="&#x207e;" horiz-adv-x="193" 
d="M81 388h-64q64 109 64 240q0 133 -64 240h64q72 -104 72 -240q0 -137 -72 -240z" />
    <glyph glyph-name="zero.inferior" unicode="&#x2080;" horiz-adv-x="359" 
d="M177 -152q-74 0 -114.5 55t-40.5 145q0 89 41 144.5t117 55.5t116.5 -54.5t40.5 -144.5q0 -89 -40.5 -145t-119.5 -56zM180 -86q64 0 64 135q0 133 -65 133q-30 0 -47 -34.5t-17 -98.5q0 -66 17 -100.5t48 -34.5z" />
    <glyph glyph-name="one.inferior" unicode="&#x2081;" horiz-adv-x="275" 
d="M209 -147h-96v310h-1l-76 -35l-14 69l103 46h84v-390z" />
    <glyph glyph-name="two.inferior" unicode="&#x2082;" horiz-adv-x="333" 
d="M13 -147v48l62 56q69 63 95 94.5t26 63.5q0 26 -17 42t-49 16q-44 0 -85 -29l-27 62q55 42 136 42q69 0 106 -34t37 -83q0 -26 -9 -49.5t-28.5 -47.5t-37 -40l-48.5 -43l-27 -24v-2h157v-72h-291z" />
    <glyph glyph-name="three.inferior" unicode="&#x2083;" horiz-adv-x="328" 
d="M46 155l-20 62q50 31 129 31q65 0 99.5 -27.5t34.5 -68.5q0 -31 -21.5 -55t-57.5 -35v-2q42 -5 68.5 -30.5t26.5 -63.5q0 -51 -46 -84.5t-124 -33.5q-81 0 -126 28l21 65q43 -26 95 -26q36 0 57.5 16.5t21.5 38.5q0 29 -27.5 44t-67.5 16h-29v58h27q32 0 58 12.5t26 38.5
q0 18 -14.5 30t-42.5 12q-48 0 -88 -26z" />
    <glyph glyph-name="four.inferior" unicode="&#x2084;" horiz-adv-x="372" 
d="M299 -147h-90v96h-191v53l171 242h110v-232h53v-63h-53v-96zM209 12v92q0 14 2 38.5t2 30.5h-3q-18 -36 -35 -63l-68 -97l2 -1h100z" />
    <glyph glyph-name="five.inferior" unicode="&#x2085;" horiz-adv-x="330" 
d="M285 241v-71h-158l-10 -65q8 1 29 1q66 0 104 -25q51 -33 51 -98q0 -59 -46.5 -97.5t-121.5 -38.5q-65 0 -113 23l17 65q38 -20 92 -20q32 0 56.5 16.5t24.5 45.5q0 67 -113 67q-26 0 -56 -4l26 201h218z" />
    <glyph glyph-name="six.inferior" unicode="&#x2086;" horiz-adv-x="349" 
d="M282 247l1 -67q-17 2 -39 0q-55 -5 -89 -32t-43 -67l2 -1q34 34 89 34t89.5 -34t34.5 -91q0 -61 -43 -101t-104 -40q-75 0 -116 48.5t-41 121.5q0 108 68 171q55 51 152 57q30 2 39 1zM180 -86q25 0 41.5 20t16.5 50q0 31 -17 50.5t-48 19.5q-42 0 -60 -39q-4 -10 -4 -20
q0 -34 18.5 -57.5t52.5 -23.5z" />
    <glyph glyph-name="seven.inferior" unicode="&#x2087;" horiz-adv-x="316" 
d="M22 242h280v-54l-168 -335h-94l168 317v1h-186v71z" />
    <glyph glyph-name="eight.inferior" unicode="&#x2088;" horiz-adv-x="346" 
d="M176 248q63 0 97 -29.5t34 -69.5q0 -59 -61 -86v-2q33 -12 55 -36.5t22 -59.5q0 -52 -42 -84.5t-110 -32.5q-71 0 -109 32.5t-38 74.5q0 66 74 96v2q-61 29 -61 86q0 49 39.5 79t99.5 30zM174 -91q26 0 42.5 14t16.5 37q0 47 -67 65q-54 -17 -54 -61q0 -23 17 -39t45 -16
zM172 189q-25 0 -39 -13.5t-14 -33.5q0 -40 61 -56q20 6 32.5 20t12.5 33q0 20 -14 35t-39 15z" />
    <glyph glyph-name="nine.inferior" unicode="&#x2089;" horiz-adv-x="344" 
d="M58 -151v67q18 -2 40 0q48 3 83 26q41 27 52 77h-2q-31 -31 -84 -31t-89 33t-36 88q0 58 42.5 98.5t106.5 40.5q73 0 112 -47.5t39 -119.5q0 -116 -68 -178q-56 -50 -154 -53q-22 -3 -42 -1zM169 183q-25 0 -42 -20t-17 -50q0 -28 16 -46.5t45 -18.5q40 0 59 29q4 7 4 21
q0 37 -16 61t-49 24z" />
    <glyph glyph-name="parenleft.inferior" unicode="&#x208d;" horiz-adv-x="193" 
d="M113 278h64q-64 -105 -64 -241q0 -130 64 -239h-64q-73 102 -73 239q0 136 73 241z" />
    <glyph glyph-name="parenright.inferior" unicode="&#x208e;" horiz-adv-x="193" 
d="M81 -202h-64q64 109 64 240q0 133 -64 240h64q72 -104 72 -240q0 -137 -72 -240z" />
    <glyph glyph-name="dong" unicode="&#x20ab;" horiz-adv-x="536" 
d="M88 101h363v-75h-363v75zM342 670h104v-62h64v-62h-64v-290q0 -29 3 -98h-93l-4 54h-2q-37 -63 -123 -63q-69 0 -115 50t-46 130q-1 86 48.5 137t121.5 51q73 0 104 -46h2v75h-122v62h122v62zM342 314v44q0 16 -2 22q-5 24 -27.5 41.5t-51.5 17.5q-42 0 -65.5 -29.5
t-23.5 -77.5q0 -46 23 -74.5t63 -28.5q29 0 52 16.5t29 43.5q3 11 3 25z" />
    <glyph glyph-name="Euro" unicode="&#x20ac;" horiz-adv-x="536" 
d="M492 118l21 -89q-66 -40 -153 -40q-145 0 -226 103q-50 57 -63 148h-64v62h56v15q0 15 2 37h-58v62h67q17 90 75 152q85 93 216 93q79 0 143 -31l-25 -92q-52 26 -112 26q-78 0 -127 -55q-31 -33 -44 -93h262v-62h-274q-2 -11 -2 -36v-16h276v-62h-265q10 -63 43 -97
q50 -54 134 -54q62 0 118 29z" />
    <glyph glyph-name="uni2113" unicode="&#x2113;" horiz-adv-x="532" 
d="M227 499v-171q107 112 107 221q0 81 -50 81q-25 0 -41 -32t-16 -99zM445 173l57 -55q-75 -129 -215 -129q-148 0 -174 152q0 5 -1 7q-17 -12 -51 -34l-33 66q60 42 82 60v241q0 116 48 174t127 58q66 0 105 -44t39 -118q0 -87 -49.5 -166.5t-152.5 -169.5v-13
q1 -111 89 -111q66 0 129 82z" />
    <glyph glyph-name="uni2116" unicode="&#x2116;" horiz-adv-x="945" 
d="M752 638q76 0 120.5 -47.5t44.5 -125.5q0 -88 -48 -133t-120 -45q-73 0 -120 46t-47 127q0 82 47.5 130t122.5 48zM748 574q-33 0 -51 -35t-18 -79q0 -47 20.5 -78.5t50.5 -31.5q33 0 51.5 31t18.5 81q0 45 -18 78.5t-54 33.5zM890 182h-280v64h280v-64zM176 0h-107v653
h134l136 -280q44 -92 93 -217l1 1q-10 123 -10 276v220h107v-653h-124l-139 285q-40 81 -94 222h-3q6 -125 6 -284v-223z" />
    <glyph glyph-name="trademark" unicode="&#x2122;" horiz-adv-x="636" 
d="M29 674h233v-57h-82v-216h-70v216h-81v57zM624 401h-68l-8 138q0 57 -1 93h-4q-7 -31 -23 -95l-38 -131h-68l-35 133q-1 4 -8 39.5t-11 53.5h-4q0 -37 -2 -93l-8 -138h-66l18 273h107l31 -97q6 -21 17 -79h1q17 69 19 78l33 98h101z" />
    <glyph glyph-name="Omega" unicode="&#x2126;" horiz-adv-x="727" 
d="M555 98v-3h140v-95h-277v74q60 43 98.5 115t38.5 163q0 95 -51 165t-138 70q-88 0 -141 -69.5t-53 -166.5q0 -86 40 -163.5t98 -113.5v-74h-278v95h138v3q-53 43 -89.5 112t-36.5 154q0 139 91.5 230.5t233.5 91.5q143 0 228 -90.5t85 -221.5q0 -166 -127 -276z" />
    <glyph glyph-name="estimated" unicode="&#x212e;" horiz-adv-x="817" 
d="M782 316h-605q-5 0 -5 -4v-183q0 -10 9 -21q93 -99 229 -99q145 0 240 111h55q-52 -61 -130 -96t-166 -35q-155 0 -264.5 98.5t-109.5 237.5t109.5 237.5t264.5 98.5t264 -98.5t109 -237.5v-9zM646 340v184q0 12 -10 22q-95 95 -226 95q-133 0 -228 -98q-10 -10 -10 -23
v-180q0 -5 5 -5h464q5 0 5 5z" />
    <glyph glyph-name="partialdiff" unicode="&#x2202;" horiz-adv-x="375" 
d="M89 591l-37 83q81 55 186 55q120 0 201 -96.5t81 -260.5q0 -181 -82 -282t-203 -101q-101 0 -156 65.5t-55 151.5q0 104 62 175t158 71q55 0 95.5 -24.5t58.5 -55.5h1q1 7 1 24q0 106 -50 169.5t-126 63.5q-78 0 -135 -38zM248 88q53 0 91.5 54.5t47.5 129.5
q-12 34 -43 59t-74 25q-52 0 -87 -43t-35 -107q0 -55 27.5 -86.5t72.5 -31.5z" />
    <glyph glyph-name="Delta" unicode="&#x2206;" horiz-adv-x="603" 
d="M569 0h-535v64l197 589h144l194 -588v-65zM437 100l-94 291q-24 79 -45 159h-3q-17 -73 -40 -148l-97 -302h279z" />
    <glyph glyph-name="product" unicode="&#x220f;" horiz-adv-x="642" 
d="M631 549h-93v-639h-115v639h-205v-639h-115v639h-93v101h621v-101z" />
    <glyph glyph-name="summation" unicode="&#x2211;" horiz-adv-x="527" 
d="M528 -90h-516v71l233 296l-221 292v81h475v-101h-318v-4l197 -263l-208 -267v-4h358v-101z" />
    <glyph glyph-name="minus" unicode="&#x2212;" horiz-adv-x="596" 
d="M40 306h516v-78h-516v78z" />
    <glyph glyph-name="uni2215" unicode="&#x2215;" horiz-adv-x="124" 
d="M-90 -11h-71l374 672h71z" />
    <glyph glyph-name="uni2219" unicode="&#x2219;" horiz-adv-x="236" 
d="M117 182q-33 0 -54 22.5t-21 56.5t21.5 56.5t54.5 22.5q34 0 55 -22t21 -57q0 -34 -21 -56.5t-56 -22.5z" />
    <glyph glyph-name="radical" unicode="&#x221a;" horiz-adv-x="577" 
d="M597 834l-229 -920h-85l-158 419l-77 -31l-22 58l159 66l114 -320q11 -30 21 -73h2q1 6 4 20.5l6 29t6 26.5l173 725h86z" />
    <glyph glyph-name="infinity" unicode="&#x221e;" horiz-adv-x="741" 
d="M548 106q-34 0 -69.5 18.5t-55 35t-53.5 50.5q-61 -59 -89 -76q-46 -28 -97 -28q-68 0 -110.5 44.5t-42.5 112.5q0 65 45.5 112t115.5 47q26 0 50.5 -8.5t49.5 -27t39 -31l40 -37.5q61 59 89 76q46 28 97 28q68 0 110.5 -45t42.5 -114q0 -64 -45.5 -110.5t-116.5 -46.5z
M549 183q33 0 56 23.5t23 56.5q0 36 -22 59t-55 23q-24 0 -50.5 -15t-38.5 -26.5l-40 -39.5l21 -20.5t24.5 -23t23 -17.5t29.5 -15.5t29 -4.5zM191 183q23 0 49.5 15t38.5 26l40 38l-25 25t-33 31t-29.5 17t-38.5 10q-34 0 -57 -24t-23 -58q0 -35 22 -57.5t56 -22.5z" />
    <glyph glyph-name="integral" unicode="&#x222b;" horiz-adv-x="339" 
d="M331 795l-13 -75q-20 4 -33 4q-31 0 -47 -25q-25 -35 -25 -152q0 -73 7 -224t7 -232q0 -129 -38 -187q-37 -63 -115 -63q-41 0 -63 11l14 77q20 -6 37 -6q26 0 44 21q28 35 28 144q0 83 -7 237t-7 230q0 145 57 205q38 42 102 42q33 0 52 -7z" />
    <glyph glyph-name="approxequal" unicode="&#x2248;" horiz-adv-x="596" 
d="M525 427l48 -51q-26 -39 -68 -64t-89 -25q-20 0 -40.5 4.5t-29.5 7.5t-32 13.5t-24 10.5l-22 10.5t-27.5 12t-27 7.5t-34.5 4q-61 0 -114 -61l-44 53q27 36 69 61t90 25q20 0 40 -4t30 -8l30 -12.5t24 -10.5l22 -10.5t27.5 -12t27 -7.5t34.5 -4q57 0 110 61zM530 221
l46 -50q-26 -39 -68.5 -64.5t-90.5 -25.5q-15 0 -29.5 2t-29 7t-22.5 8t-24 10.5t-19 8.5q-3 2 -22 10.5t-28 12t-27 7.5t-36 4q-58 0 -113 -61l-43 54q27 36 69.5 60.5t88.5 24.5q20 0 40 -4.5t29.5 -7.5t31.5 -13t24 -11l22 -10.5t27.5 -12t27 -7.5t33.5 -4q64 0 113 62z
" />
    <glyph glyph-name="notequal" unicode="&#x2260;" horiz-adv-x="596" 
d="M556 126h-309l-69 -111h-83l71 111h-126v78h176l82 128h-258v78h308l68 111h83l-71 -111h128v-78h-178l-81 -128h259v-78z" />
    <glyph glyph-name="lessequal" unicode="&#x2264;" horiz-adv-x="596" 
d="M534 109l-472 184v77l472 183v-85l-364 -136v-2l364 -135v-86zM534 0h-471v74h471v-74z" />
    <glyph glyph-name="greaterequal" unicode="&#x2265;" horiz-adv-x="596" 
d="M534 293l-472 -184v86l364 135v2l-364 136v85l472 -183v-77zM533 0h-471v74h471v-74z" />
    <glyph glyph-name="lozenge" unicode="&#x25ca;" horiz-adv-x="550" 
d="M508 325l-187 -360h-92l-187 360l187 359h92zM407 322l-121 245q-8 15 -12 27h-2q-4 -12 -12 -27l-117 -240l120 -245q11 -21 12 -27h2q1 4 13 27z" />
    <glyph glyph-name="G_tildecomb" unicode="&#xe000;" horiz-adv-x="666" 
d="M611 372v-341q-102 -38 -216 -38q-171 0 -265 90q-94 89 -94 248q1 160 104 255t271 95q113 0 179 -32l-27 -99q-63 29 -153 29q-111 0 -178 -63.5t-67 -178.5q0 -113 64 -178.5t170 -65.5q63 0 93 13v169h-119v97h238zM305 715h-60q-1 55 18.5 85.5t54.5 30.5
q27 0 62 -20q30 -19 45 -19q13 0 19 8.5t8 32.5h59q3 -112 -74 -112q-28 0 -63 19q-34 19 -44 19q-22 0 -25 -44z" />
    <glyph glyph-name="M_uni0302" unicode="&#xe001;" horiz-adv-x="827" 
d="M653 0l-13 275q-9 195 -8 283h-3q-35 -131 -80 -258l-99 -292h-94l-90 288q-41 135 -68 262h-2q-6 -178 -12 -287l-15 -271h-115l45 674h162l88 -271q35 -116 62 -234h3q31 125 67 235l93 270h160l39 -674h-120zM366 829h93l103 -119h-92l-56 65h-2l-56 -65h-91z" />
    <glyph glyph-name="N_uni0302" unicode="&#xe002;" horiz-adv-x="676" 
d="M184 0h-114v674h141l174 -289q69 -117 115 -226h2q-11 110 -11 280v235h114v-674h-128l-176 297q-76 131 -120 232l-4 -1q7 -122 7 -287v-241zM291 829h93l103 -119h-92l-56 65h-2l-56 -65h-91z" />
    <glyph glyph-name="g_tildecomb" unicode="&#xe005;" horiz-adv-x="573" 
d="M500 347v-276q0 -156 -72 -221q-66 -59 -188 -59q-104 0 -170 39l27 93q64 -37 142 -37q64 0 102 36t38 111v42h-2q-47 -72 -142 -72q-91 0 -149 67t-58 171q0 116 65 186.5t156 70.5q97 0 141 -76h2l5 65h107q-4 -66 -4 -140zM377 213v79q0 20 -4 33q-10 35 -36 57
t-64 22q-53 0 -86.5 -43t-33.5 -116q0 -65 31.5 -107.5t87.5 -42.5q34 0 62 20.5t38 54.5q5 15 5 43zM214 562h-61q-2 56 18.5 87.5t57.5 31.5q23 0 63 -21q32 -18 43 -18q23 0 26 43h60q3 -116 -76 -116q-27 0 -65 21q-29 17 -41 17q-22 0 -25 -45z" />
    <glyph glyph-name="m_uni0302" unicode="&#xe006;" horiz-adv-x="848" 
d="M66 0v342q0 61 -4 145h105l6 -72h3q50 83 150 83q47 0 83 -24.5t52 -65.5h2q25 39 59 61q43 29 100 29q68 0 115 -51.5t47 -159.5v-287h-120v269q0 129 -87 129q-30 0 -53 -18.5t-33 -46.5q-6 -17 -6 -41v-292h-120v282q0 53 -21.5 84.5t-62.5 31.5q-32 0 -55.5 -20.5
t-33.5 -48.5q-6 -19 -6 -41v-288h-120zM382 698h83l98 -148h-85l-53 90h-2l-54 -90h-84z" />
    <glyph glyph-name="n_uni0302" unicode="&#xe007;" horiz-adv-x="572" 
d="M244 698h83l98 -148h-85l-53 90h-2l-54 -90h-84zM66 0v342q0 61 -4 145h107l6 -73h3q19 34 59.5 59t96.5 25q72 0 122.5 -51t50.5 -158v-289h-123v275q0 56 -22.5 89.5t-70.5 33.5q-35 0 -60 -21t-36 -51q-6 -15 -6 -39v-287h-123z" />
    <glyph glyph-name="zero.slashfitted" unicode="&#xe008;" horiz-adv-x="536" 
d="M168 208l177 313q-25 46 -77 46q-53 0 -84 -64t-32 -176q0 -68 16 -119zM371 445l-179 -318q29 -44 75 -44q56 0 86.5 63.5t30.5 180.5q0 63 -13 118zM499 644l-52 -79q55 -85 55 -235q0 -160 -61 -250.5t-176 -90.5q-79 0 -134 49l-38 -61l-52 37l49 74q-56 86 -56 235
q-1 155 62 246.5t176 91.5q81 0 133 -47l41 66z" />
    <glyph glyph-name="dong.alt" unicode="&#xe184;" horiz-adv-x="536" 
d="M342 670h104v-62h64v-62h-64v-290q0 -29 3 -98h-93l-4 54h-2q-37 -63 -123 -63q-69 0 -115 50t-46 130q-1 86 48.5 137t122.5 51q72 0 103 -46h2v75h-122v62h122v62zM342 314v44q0 10 -2 22q-6 25 -28.5 42t-51.5 17q-42 0 -65 -29.5t-23 -77.5q0 -46 23 -74.5t63 -28.5
q28 0 51 16.5t30 43.5q3 11 3 25z" />
    <glyph glyph-name="breve_acutecomb" unicode="&#xe300;" 
d="M190 793h102l-118 -140h-67zM9 665h62q5 -29 26 -47t53 -18q36 0 57 19t23 46h62q-2 -60 -40.5 -97t-101.5 -37q-66 0 -103 38.5t-38 95.5z" />
    <glyph glyph-name="breve_gravecomb" unicode="&#xe301;" 
d="M8 793h103l82 -140h-67zM6 665h62q5 -29 26 -47t53 -18q36 0 57 19t23 46h62q-2 -60 -40.5 -96.5t-101.5 -36.5q-65 0 -102 38t-39 95z" />
    </font>
</defs>
</svg>
